<svg width="254" height="166" viewBox="0 0 254 166" fill="none" xmlns="http://www.w3.org/2000/svg">
<path d="M75.3595 46.1486V130.142H53.3553V97.4946H22.9544V130.142H0.950195V46.1486H22.9544V78.7962H53.3255V46.1486H75.3595Z" fill="#030370"/>
<path d="M221.2 46.1486C243.919 46.1486 253.745 59.9484 253.745 75.7793C253.745 94.0297 242.728 106.246 219.89 106.246H204.467V130.112H182.343V46.1486H221.23H221.2ZM219.414 87.1895C226.471 87.1895 231.503 83.5753 231.503 75.8988C231.503 69.4171 226.947 65.2055 219.414 65.2055H204.467V87.1597H219.414V87.1895Z" fill="#030370"/>
<path d="M128.717 131.456C104.212 131.456 86.1383 113.325 86.1383 88.1454C86.1383 62.9652 104.212 44.8344 128.717 44.8344C153.223 44.8344 171.535 62.9652 171.535 88.1454C171.535 113.325 153.461 131.456 128.717 131.456ZM128.717 65.8327C116.748 65.8327 108.619 75.0625 108.619 88.1454C108.619 101.228 116.748 110.458 128.717 110.458C140.687 110.458 149.054 101.228 149.054 88.1454C149.054 75.0625 140.925 65.8327 128.717 65.8327Z" fill="#030370"/>
<path d="M109.244 30.3774C102.753 23.7165 96.6491 16.1595 91.349 7.94533L83.518 13.531C89.4433 22.9399 94.803 29.0034 103.17 36.5306L109.214 30.3774H109.244Z" fill="#030370"/>
<path d="M158.076 38.6215C163.585 31.1242 170.046 23.8957 177.281 17.3244L170.552 10.4544C162.245 17.8023 157.123 24.1048 151.079 33.6034L158.106 38.6215H158.076Z" fill="#030370"/>
<path d="M134.285 30.1684C134.375 20.849 135.417 11.2011 137.442 1.61296L127.973 0C125.531 10.8427 125.025 18.9374 125.68 30.1982L134.285 30.1385V30.1684Z" fill="#030370"/>
<path d="M112.162 165.03C125.531 161.894 139.705 159.982 154.146 159.534L152.359 139.163C135.983 139.461 124.191 141.582 108.291 146.451L112.162 165V165.03Z" fill="#030370"/>
</svg>
