<?xml version="1.0" encoding="UTF-8"?>
<svg id="Capa_2" data-name="Capa 2" xmlns="http://www.w3.org/2000/svg" viewBox="0 0 1296.62 331.6">
  <defs>
    <style>
      .cls-1 {
        fill: #030370;
      }
    </style>
  </defs>
  <g id="Capa_1-2" data-name="Capa 1">
    <path class="cls-1" d="M1208.58,239.45c-17.69,0-28.74-12.33-28.74-25.39,0-15.6,11.04-23.93,25.78-26.13l54.15-7.98v7.98c.01,38.1-22.82,51.52-51.19,51.52ZM1144.48,215.86c0,27.57,23.21,52.24,59.32,52.24,31.67,0,49.35-16.69,57.1-29.01,0,12.68,1.1,19.22,1.84,23.58h33.9c-.74-4.37-2.22-13.43-2.22-28.66v-87.44c0-34.11-20.63-63.85-73.67-63.85-38.31,0-68.89,23.21-72.56,56.6l33.15,7.61c2.2-20.32,15.84-35.19,40.14-35.19,26.9,0,38.31,14.14,38.31,31.19,0,6.17-2.94,11.61-13.63,13.06l-47.89,6.91c-30.58,4.37-53.78,21.78-53.78,52.97ZM1075.97,175.24c0,35.92-20.25,61.67-52.31,61.67s-52.67-25.75-52.67-61.67,20.99-60.96,52.67-60.96c32.42.01,52.31,26.13,52.31,60.96ZM971.35,331.6v-92.51c9.59,15.6,30.2,28.29,57.46,28.29,51.94,0,82.53-40.27,82.53-92.14s-28.37-91.07-81.41-91.07c-28.75,0-49.73,13.79-59.32,31.19v-27.2h-33.52v243.44h34.25ZM900.27,86.35c-1.86-.35-6.64-1.08-11.42-1.08-18.06,0-40.14,6.54-53.05,33.36v-30.47h-33.9v174.51h34.63v-87.44c0-38.45,19.52-53.7,48.61-53.7,4.8,0,9.94.35,15.12,1.08v-36.27ZM726.77,202.8c-6.63,19.59-21.01,35.2-49.73,35.2s-52.69-21.75-53.4-52.95h133.34c.38-2.18.74-6.54.74-10.9,0-54.41-30.58-91.4-85.08-91.4-44.58,0-84.74,37.35-84.74,92.14,0,59.15,41.63,93.24,89.16,93.24,41.26,0,69.62-24.29,79.58-55.13l-29.86-10.18ZM624.73,157.46c1.48-22.5,19.16-44.63,48.26-44.63,31.31,0,47.89,19.59,48.63,44.63h-96.89ZM429.86,160c.74-25.75,14.74-46.07,41.26-46.07,30.94,0,41.26,19.59,41.26,43.89v104.86h34.61v-110.66c0-38.81-21-68.93-63.35-68.93-20.25,0-40.89,6.88-53.78,25.39V0h-34.63v262.67h34.63v-102.68ZM348.83,63.85c-5.91-27.94-29.48-63.85-88.41-63.85-48.26,0-86.2,36.29-86.2,76.55s26.53,62.39,63.73,70.38l37.21,7.98c26.15,5.42,39.04,21.4,39.04,39.91,0,22.49-17.68,40.99-53.78,40.99-39.41,0-60.04-26.49-62.62-55.15l-34.63,10.9c4.8,36.63,34.63,76.54,97.62,76.54,55.63,0,90.24-36.27,90.24-76.19,0-35.92-24.3-62.77-67.77-72.18l-39.04-8.34c-22.11-4.73-33.53-18.87-33.53-37.38,0-23.93,21-42.8,50.47-42.8,36.47,0,52.31,25.39,55.26,43.89l32.42-11.24ZM82.5,5.45h-29.1v48.98l-44.94-15.59L0,64.95l45.68,14.87-29.1,37.74,22.46,16.7,28.72-39.19,30.58,39.53,22.46-16.69-30.2-38.1,45.68-14.87-8.47-26.13-45.31,15.23V5.45Z"/>
  </g>
</svg>