<?xml version="1.0" encoding="UTF-8"?>
<svg id="Capa_2" data-name="Capa 2" xmlns="http://www.w3.org/2000/svg" viewBox="0 0 1289.98 561.51">
  <defs>
    <style>
      .cls-1 {
        fill: #030370;
      }
    </style>
  </defs>
  <g id="Capa_1-2" data-name="Capa 1">
    <g>
      <g>
        <path class="cls-1" d="M1061.1,329.67v101.7h-431.65v-101.7h431.65ZM966.39,369.07c.44.31,9.43-4.03,9.59-4.54.68-2.19-4.83-8.37-6.56-9.93-14.25-12.82-41.24-9.75-49.57,8.49-3.71,8.13-3.91,28.02-.68,36.23,9.51,24.2,48.92,23.45,56.83-1.13l-9.25-3.54c-6.72,17.35-35.78,15.81-37.76-3.76-.45-4.44-.51-14.9.16-19.2,2.92-18.75,30.53-19.34,37.25-2.62ZM704.85,349.04h-47.04v65.73h11.76v-27.67h26.29v-9.69h-26.29v-18.68h35.28v-9.69ZM751.54,349.04h-36.32v65.73h11.76v-26.98h22.48c2.07,0,4.92,2.69,5.67,4.71,3.96,10.77-5.32,25.7,16.13,22.97,1.61-4.5-2.67-5.95-3.32-8.8-.75-3.34.2-8.02-.15-11.61-.68-6.78-4.35-10.87-11.05-12.12l6.55-3.47c6-4.29,5.9-16.77,2.33-22.36-2.5-3.9-9.6-7.46-14.07-8.07ZM839.05,414.77l-25.94-65.04c-1.14-1.37-9.26-.67-11.44-.37l-26.26,65.41h11.41l6.49-16.2c.77-1.12,23.67-.25,27.07-.07,1.92.95,4.99,13.91,7.25,16.27h11.41ZM893.01,394.7l-34.93-45.66h-10.03v65.73h11.07v-45.66l35.23,44.67c2.59,1.99,6.59.61,9.73.99v-65.73h-11.07v45.66ZM1034.81,349.04h-47.73v65.73h47.73c-.23-1.69.73-10.38-1.04-10.38h-35.63v-18.68h26.63c1.56,0,1.56-10.38,0-10.38h-26.63v-15.57c0-.07.96-1.04,1.04-1.04h35.63v-9.69Z"/>
        <path class="cls-1" d="M935.11,203.06l12.11,71.96,15.99-72,14.76.08,15.24,71.23,11.77-71.26h15.22l-20.39,97.57c-1.09,1.1-14.44,1.08-15.26,0l-14.51-67.82-16.58,68.55c-3.96-.6-9.46.66-13.17-.04-.81-.15-1.4-.23-1.59-1.17l-19.5-97.07h15.91Z"/>
        <path class="cls-1" d="M810.94,203.06c6.17.73,13.25,4.46,16.39,9.9,4.5,7.8,5.66,29.55-1.85,35.77l-7.96,4.13c8.64,1.39,13.1,9.57,13.82,17.66.32,3.53-.94,16.87.99,18.38.79.62,3.87.76,3.87,1.67v10.38c0,2.42-12.73.66-15.26-.65-11.69-6.06-.1-31.49-9.29-39.14-.96-.8-5.25-2.76-6.23-2.76h-18.33v41.86c0,.07-.96,1.04-1.04,1.04h-14.87v-98.24h39.78ZM787.08,247.34h17.64c1.39,0,5.85-2.25,6.95-3.43,4.24-4.52,4.78-21.57-.02-25.65-.55-.47-3.76-2.06-4.17-2.06h-20.41v31.13Z"/>
        <path class="cls-1" d="M876.89,200.46c17.6-.35,31,8.98,32.62,27.17,1.12,12.61,1.04,35.76.04,48.44-2.64,33.41-50.48,36.73-61.02,9.79-4.03-10.31-3.49-42.69-2.63-54.77,1.34-18.91,11.52-30.24,31-30.63ZM876.89,214.3c-10.58.52-14.4,7.79-15.13,17.45s-1.14,40.04,1.37,47.8c4.7,14.49,27.65,12.96,30.17-1.73,2.51-14.68-1.26-34.32.34-49.53-.78-9.23-7.69-14.43-16.75-13.99Z"/>
        <path class="cls-1" d="M1155.09,232.12h-15.22c.75-12.27-7.21-19.91-19.55-17.82-8.59,1.45-12.47,11.37-7.73,18.47,9.29,13.92,40.41,14.29,43.11,37.14,5.19,43.92-66.63,45.09-62.18.96h14.87c1.19,0,1.21,7.26,1.77,9.3,3.82,13.76,27.21,12.89,29.54-.81,2.85-16.78-15.66-20.04-26.59-26.35-8.43-4.87-16.73-11.83-18.02-22.11-5.12-40.94,64.94-39.92,59.99,1.23Z"/>
        <path class="cls-1" d="M1020.2,301.3l24.93-98.21,16.25-.08,26.61,98.29h-14.87l-6.97-25.64-25.16.07-6.6,25.57h-14.18ZM1063.08,262.56l-9-37.36-9.68,37.36h18.68Z"/>
        <path class="cls-1" d="M757.33,203.06v13.84h-36.32c-.07,0-1.04.96-1.04,1.04v24.56h26.98v13.15h-25.94c-.07,0-1.04.96-1.04,1.04v30.1h37.35v14.53h-52.23c-.07,0-1.04-.96-1.04-1.04v-97.2h53.26Z"/>
        <polygon class="cls-1" points="1289.98 203.06 1289.98 216.9 1252.62 216.9 1252.62 242.5 1279.6 242.5 1279.6 255.64 1252.62 255.64 1252.62 286.78 1289.98 286.78 1289.98 300.61 1237.41 300.61 1237.41 203.06 1289.98 203.06"/>
        <path class="cls-1" d="M691.61,203.06l-1.23,8.11c-11.94,23.83-26.37,46.5-38.32,70.29-.84,1.68-2.08,3.32-1.96,5.31h39.43v14.53h-60.87l.53-8.81c11.79-24.2,28.7-47.9,39.96-72.11.53-1.15,1.23-2.11,1.01-3.49h-39.43v-13.84h60.87Z"/>
        <path class="cls-1" d="M1226.34,203.06v13.84h-23.17c-.07,0-1.04.96-1.04,1.04v82.68h-15.22v-82.68c0-.07-.96-1.04-1.04-1.04h-23.17v-13.84h63.64Z"/>
        <path class="cls-1" d="M726.99,378.79v-20.06h21.1c.25,0,3.58,1.2,4.06,1.47,7.3,4.17,4.27,18.59-4.06,18.59h-21.1Z"/>
        <polygon class="cls-1" points="816.91 389.17 796.85 389.17 806.55 363.57 816.91 389.17"/>
      </g>
      <path class="cls-1" d="M280.75,561.51c-74.99,0-145.5-29.2-198.52-82.23S0,355.75,0,280.75,29.2,135.26,82.23,82.23,205.76,0,280.75,0s145.5,29.2,198.52,82.23,82.23,123.53,82.23,198.52-29.2,145.5-82.23,198.52-123.53,82.23-198.52,82.23ZM280.75,10c-72.32,0-140.31,28.16-191.45,79.3C38.16,140.44,10,208.43,10,280.75s28.16,140.31,79.3,191.45c51.14,51.14,119.13,79.3,191.45,79.3s140.31-28.16,191.45-79.3c51.14-51.14,79.3-119.13,79.3-191.45s-28.16-140.31-79.3-191.45c-51.14-51.14-119.13-79.3-191.45-79.3Z"/>
      <path class="cls-1" d="M588.18,157.1c-21.74.67-45.37.5-67.14-.03-.3,0-.87-.58-1.17-.59-2.79-.08-8.43-.46-10.85,0-.68.13-1.13.25-1.37.98l-43.17,152.6-39.55-153.29-81.78.29-39.55,150.66-.99-1.63c-11.91-45-18.04-75.83-30.42-120.69l-67.99,96.72c.06.18,7.23,25.08,13.41,44.5,2.45,7.69,4.96,15.46,6.88,23.31-27.15-.01-54.32.01-81.46,0l55.67-81.47c-.06-.18.06-.41,0-.59l67.99-96.72c-.77-2.8-2.27-12.38-3.52-14.07-.35-.48-.52-.64-1.17-.59-9.76-.02-19.54.03-29.3,0-.2,0-.39,0-.59,0-.39,0-.78,0-1.17,0s-.78,0-1.17,0c-21.87-.06-43.77.01-65.64,0-40.82-.02-81.67-.12-122.49,0-8.39.02-16.81-.02-25.2,0v68s116.04,0,116.04,0l-.54,2.09c-34.12,52.07-70.04,103.23-104.36,155-.25.37-.35,1.47-.91,2.3-2.18,3.3-17.26,24-17.26,25.54v14.95c13.08.01,26.19-.02,39.27,0,66.61.08,133.25.06,199.85,0,27.94-.03,55.9.24,83.83-.27,7.62-23.71,15.1-47.47,22.57-71.23.33-1.06.07-2.32.26-2.94,6.38-20.31,14.16-41.04,19.89-61.88l1.2-1.43,40.52,137.67h89.22s46.09-141.78,46.09-141.78c0-.59,0-1.17,0-1.76l39.26-124.27c-1.08.16-2.06.58-3.19.62Z"/>
    </g>
  </g>
</svg>