<?xml version="1.0" encoding="UTF-8"?>
<svg id="Capa_2" data-name="Capa 2" xmlns="http://www.w3.org/2000/svg" viewBox="0 0 1009.01 222.62">
  <defs>
    <style>
      .cls-1 {
        fill: #fff;
      }
    </style>
  </defs>
  <g id="Capa_1-2" data-name="Capa 1">
    <g>
      <g>
        <path class="cls-1" d="M573.68,51.33c-4,0-7.52-.71-10.56-2.14-3.03-1.43-5.58-3.34-7.62-5.74-2.05-2.4-3.59-5.09-4.62-8.08-1.03-2.99-1.55-6.05-1.55-9.17s.52-6.17,1.55-9.14c1.03-2.97,2.57-5.64,4.62-8.02,2.05-2.38,4.59-4.28,7.62-5.71,3.04-1.43,6.55-2.14,10.56-2.14s7.52.72,10.56,2.14c3.04,1.43,5.58,3.33,7.62,5.71,2.05,2.38,3.58,5.05,4.62,8.02,1.03,2.97,1.55,6.02,1.55,9.14s-.52,6.18-1.55,9.17c-1.03,2.99-2.57,5.69-4.62,8.08-2.05,2.4-4.59,4.31-7.62,5.74-3.04,1.43-6.55,2.14-10.56,2.14ZM573.68,43.22c3.3,0,6.06-.81,8.28-2.44,2.22-1.63,3.91-3.74,5.08-6.33,1.17-2.6,1.75-5.34,1.75-8.25s-.58-5.58-1.75-8.15c-1.17-2.57-2.86-4.67-5.08-6.3-2.22-1.63-4.98-2.44-8.28-2.44s-6.07.81-8.31,2.44c-2.24,1.63-3.94,3.73-5.08,6.3-1.14,2.57-1.72,5.29-1.72,8.15s.57,5.65,1.72,8.25c1.14,2.6,2.84,4.71,5.08,6.33,2.24,1.63,5.01,2.44,8.31,2.44Z"/>
        <path class="cls-1" d="M625.61,51.33c-2.24,0-4.09-.36-5.54-1.09-1.45-.73-2.58-1.53-3.4-2.41-.81-.88-1.38-1.56-1.68-2.05h-.46v4.88h-8.78V.53h8.78v20.06h.46c.31-.53.87-1.23,1.68-2.11.81-.88,1.95-1.67,3.4-2.38,1.45-.7,3.3-1.06,5.54-1.06,2.64,0,4.93.52,6.86,1.55,1.94,1.03,3.54,2.42,4.82,4.16,1.28,1.74,2.23,3.68,2.87,5.84.64,2.16.96,4.35.96,6.6s-.32,4.44-.96,6.6c-.64,2.16-1.59,4.1-2.87,5.84-1.28,1.74-2.88,3.12-4.82,4.16-1.94,1.03-4.22,1.55-6.86,1.55ZM623.3,44.14c2.02,0,3.7-.54,5.01-1.62,1.32-1.08,2.31-2.45,2.97-4.12.66-1.67.99-3.41.99-5.21s-.33-3.54-.99-5.21c-.66-1.67-1.65-3.05-2.97-4.12-1.32-1.08-2.99-1.62-5.01-1.62s-3.63.54-4.95,1.62c-1.32,1.08-2.31,2.45-2.97,4.12-.66,1.67-.99,3.41-.99,5.21s.33,3.54.99,5.21c.66,1.67,1.65,3.05,2.97,4.12,1.32,1.08,2.97,1.62,4.95,1.62Z"/>
        <path class="cls-1" d="M662.89,51.33c-2.86,0-5.21-.39-7.06-1.15-1.85-.77-3.31-1.74-4.39-2.9-1.08-1.16-1.88-2.32-2.41-3.46-.53-1.14-.95-2.48-1.25-4.02h8.31c.31.97.69,1.77,1.15,2.41.46.64,1.18,1.2,2.14,1.68.97.48,2.24.73,3.83.73,1.89,0,3.25-.41,4.09-1.22.83-.81,1.25-1.73,1.25-2.74s-.36-1.75-1.09-2.34c-.73-.59-1.79-1.04-3.2-1.35l-4.82-.99c-1.94-.4-3.74-.98-5.41-1.75-1.67-.77-3.04-1.82-4.09-3.17-1.06-1.34-1.58-3.07-1.58-5.18,0-3.12,1.19-5.71,3.56-7.75,2.38-2.05,5.61-3.07,9.7-3.07,2.59,0,4.74.35,6.43,1.06,1.69.7,3.06,1.58,4.09,2.64,1.03,1.06,1.8,2.11,2.31,3.17.51,1.06.91,2.31,1.22,3.76h-8.05c-.26-.83-.61-1.52-1.02-2.05-.42-.53-1.03-1-1.85-1.42-.81-.42-1.9-.63-3.27-.63-1.85,0-3.16.4-3.93,1.19-.77.79-1.15,1.63-1.15,2.51,0,.97.42,1.72,1.25,2.24.83.53,1.91.92,3.23,1.19l4.55.99c3.25.66,5.93,1.8,8.02,3.43,2.09,1.63,3.13,3.98,3.13,7.06,0,2.07-.54,3.95-1.62,5.64-1.08,1.69-2.64,3.03-4.68,4.02-2.05.99-4.52,1.48-7.42,1.48Z"/>
        <path class="cls-1" d="M700.03,51.33c-2.99,0-5.58-.52-7.75-1.55-2.18-1.03-3.98-2.42-5.41-4.16-1.43-1.74-2.5-3.68-3.2-5.84-.7-2.15-1.06-4.35-1.06-6.6s.34-4.43,1.02-6.57c.68-2.13,1.72-4.08,3.1-5.84,1.39-1.76,3.16-3.16,5.31-4.19,2.15-1.03,4.71-1.55,7.65-1.55,3.17,0,5.96.7,8.38,2.11,2.42,1.41,4.31,3.46,5.67,6.17,1.36,2.71,2.05,6.06,2.05,10.06v2.24h-24.35c.13,2.38.95,4.43,2.44,6.17,1.49,1.74,3.54,2.61,6.14,2.61,1.49,0,2.73-.24,3.7-.73.97-.48,1.72-1.04,2.24-1.68.53-.64,1.01-1.42,1.45-2.34h8.12c-.44,1.54-.96,2.89-1.55,4.06-.59,1.17-1.46,2.33-2.61,3.5-1.14,1.17-2.64,2.14-4.49,2.94-1.85.79-4.14,1.19-6.86,1.19ZM691.46,29.89h15.9c-.13-2.73-.95-4.75-2.44-6.07-1.5-1.32-3.26-1.98-5.28-1.98-2.24,0-4.11.72-5.61,2.14-1.5,1.43-2.35,3.4-2.57,5.91Z"/>
        <path class="cls-1" d="M723.46,50.67V15.7h8.71v4.82h.33c.62-1.36,1.63-2.62,3.04-3.76,1.41-1.14,3.52-1.72,6.33-1.72.88,0,1.89.11,3.03.33v8.51c-1.28-.18-2.38-.26-3.3-.26-3.08,0-5.41.86-6.99,2.57-1.58,1.72-2.38,4.49-2.38,8.31v16.17h-8.78Z"/>
        <path class="cls-1" d="M761.85,50.67l-13-34.97h8.91l8.78,24.94,8.64-24.94h8.91l-13.06,34.97h-9.17Z"/>
        <path class="cls-1" d="M803.36,15.04c2.24,0,4.09.36,5.54,1.09,1.45.73,2.59,1.52,3.43,2.38.83.86,1.41,1.55,1.72,2.08h.4v-4.88h8.78v34.97h-8.78v-4.88h-.4c-.31.53-.88,1.23-1.72,2.11-.84.88-1.98,1.67-3.43,2.38-1.45.7-3.3,1.06-5.54,1.06-2.6,0-4.86-.52-6.8-1.55-1.94-1.03-3.55-2.42-4.85-4.16-1.3-1.74-2.27-3.68-2.9-5.84-.64-2.15-.96-4.35-.96-6.6s.32-4.44.96-6.6c.64-2.15,1.61-4.1,2.9-5.84,1.3-1.74,2.91-3.12,4.85-4.16,1.94-1.03,4.2-1.55,6.8-1.55ZM805.67,22.24c-1.98,0-3.64.54-4.98,1.62-1.34,1.08-2.34,2.45-3,4.12-.66,1.67-.99,3.41-.99,5.21s.33,3.54.99,5.21c.66,1.67,1.66,3.05,3,4.12,1.34,1.08,3,1.62,4.98,1.62s3.63-.54,4.95-1.62c1.32-1.08,2.31-2.45,2.97-4.12.66-1.67.99-3.41.99-5.21s-.33-3.54-.99-5.21c-.66-1.67-1.65-3.05-2.97-4.12-1.32-1.08-2.97-1.62-4.95-1.62Z"/>
        <path class="cls-1" d="M846.38,51.33c-2.38,0-4.33-.35-5.87-1.06-1.54-.7-2.74-1.63-3.6-2.77-.86-1.14-1.46-2.4-1.81-3.76-.35-1.36-.53-2.71-.53-4.02v-16.96h-6v-7.06h6V6.99h8.78v8.71h7.85v7.06h-7.85v16.76c0,3.12,1.76,4.68,5.28,4.68.84,0,1.98-.11,3.43-.33v6.86c-2.24.4-4.13.59-5.67.59Z"/>
        <path class="cls-1" d="M875.87,51.33c-3.83,0-7.08-.86-9.77-2.57-2.68-1.72-4.72-3.95-6.1-6.7-1.39-2.75-2.08-5.71-2.08-8.87s.69-6.13,2.08-8.87c1.39-2.75,3.42-4.98,6.1-6.7,2.68-1.72,5.94-2.57,9.77-2.57s7.14.86,9.8,2.57c2.66,1.72,4.68,3.95,6.07,6.7,1.39,2.75,2.08,5.71,2.08,8.87s-.69,6.13-2.08,8.87c-1.39,2.75-3.41,4.98-6.07,6.7-2.66,1.72-5.93,2.57-9.8,2.57ZM875.87,44.01c1.98,0,3.64-.51,4.98-1.52,1.34-1.01,2.36-2.34,3.07-3.99.7-1.65,1.06-3.42,1.06-5.31s-.35-3.72-1.06-5.34c-.7-1.63-1.73-2.95-3.07-3.96-1.34-1.01-3-1.52-4.98-1.52s-3.59.51-4.95,1.52c-1.36,1.01-2.4,2.33-3.1,3.96-.7,1.63-1.06,3.41-1.06,5.34s.35,3.66,1.06,5.31c.7,1.65,1.74,2.98,3.1,3.99,1.36,1.01,3.01,1.52,4.95,1.52Z"/>
        <path class="cls-1" d="M906.75,10.29c-1.54,0-2.8-.51-3.79-1.52-.99-1.01-1.48-2.22-1.48-3.63s.49-2.62,1.48-3.63c.99-1.01,2.25-1.52,3.79-1.52s2.81.51,3.83,1.52c1.01,1.01,1.52,2.22,1.52,3.63s-.51,2.62-1.52,3.63c-1.01,1.01-2.29,1.52-3.83,1.52ZM902.39,50.67V15.7h8.78v34.97h-8.78Z"/>
        <path class="cls-1" d="M920.27,50.67V15.7h8.71v4.82h.33c.62-1.36,1.63-2.62,3.04-3.76,1.41-1.14,3.52-1.72,6.33-1.72.88,0,1.89.11,3.03.33v8.51c-1.28-.18-2.38-.26-3.3-.26-3.08,0-5.41.86-6.99,2.57-1.58,1.72-2.38,4.49-2.38,8.31v16.17h-8.78Z"/>
        <path class="cls-1" d="M962.76,51.33c-2.99,0-5.58-.52-7.75-1.55-2.18-1.03-3.98-2.42-5.41-4.16-1.43-1.74-2.5-3.68-3.2-5.84-.7-2.15-1.06-4.35-1.06-6.6s.34-4.43,1.02-6.57c.68-2.13,1.72-4.08,3.1-5.84,1.39-1.76,3.16-3.16,5.31-4.19,2.15-1.03,4.71-1.55,7.65-1.55,3.17,0,5.96.7,8.38,2.11,2.42,1.41,4.31,3.46,5.67,6.17,1.36,2.71,2.05,6.06,2.05,10.06v2.24h-24.35c.13,2.38.95,4.43,2.44,6.17,1.49,1.74,3.54,2.61,6.14,2.61,1.49,0,2.73-.24,3.7-.73.97-.48,1.72-1.04,2.24-1.68.53-.64,1.01-1.42,1.45-2.34h8.12c-.44,1.54-.96,2.89-1.55,4.06-.59,1.17-1.46,2.33-2.61,3.5-1.14,1.17-2.64,2.14-4.49,2.94-1.85.79-4.14,1.19-6.86,1.19ZM954.19,29.89h15.9c-.13-2.73-.95-4.75-2.44-6.07-1.5-1.32-3.26-1.98-5.28-1.98-2.24,0-4.11.72-5.61,2.14-1.5,1.43-2.35,3.4-2.57,5.91Z"/>
        <path class="cls-1" d="M573.15,123.6c-3.96,0-7.42-.71-10.39-2.14-2.97-1.43-5.45-3.34-7.46-5.74-2-2.4-3.5-5.08-4.49-8.05-.99-2.97-1.48-6.01-1.48-9.14s.49-6.18,1.48-9.17c.99-2.99,2.48-5.68,4.49-8.08,2-2.4,4.49-4.3,7.46-5.71,2.97-1.41,6.43-2.11,10.39-2.11,3.3,0,6.14.42,8.51,1.25,2.38.84,4.35,1.91,5.94,3.23,1.58,1.32,2.85,2.73,3.79,4.22.95,1.5,1.66,2.9,2.14,4.22.48,1.32.88,2.82,1.19,4.49h-8.91c-.31-1.23-.69-2.32-1.15-3.27-.46-.95-1.15-1.88-2.08-2.8-.92-.92-2.14-1.69-3.66-2.31-1.52-.62-3.4-.92-5.64-.92-2.46,0-4.62.47-6.47,1.42-1.85.95-3.39,2.23-4.62,3.86-1.23,1.63-2.14,3.45-2.74,5.48-.59,2.02-.89,4.09-.89,6.2s.3,4.17.89,6.17c.59,2,1.51,3.82,2.74,5.44,1.23,1.63,2.77,2.93,4.62,3.89,1.85.97,4,1.45,6.47,1.45,2.24,0,4.12-.32,5.64-.96,1.52-.64,2.74-1.42,3.66-2.34.92-.92,1.62-1.85,2.08-2.77.46-.92.85-2.02,1.15-3.3h8.91c-.31,1.67-.7,3.18-1.19,4.52-.48,1.34-1.2,2.75-2.14,4.22-.95,1.47-2.21,2.88-3.79,4.22-1.58,1.34-3.56,2.43-5.94,3.27-2.38.83-5.21,1.25-8.51,1.25Z"/>
        <path class="cls-1" d="M607.07,82.56c-1.54,0-2.8-.51-3.79-1.52-.99-1.01-1.48-2.22-1.48-3.63s.49-2.62,1.48-3.63c.99-1.01,2.25-1.52,3.79-1.52s2.81.51,3.83,1.52c1.01,1.01,1.52,2.22,1.52,3.63s-.51,2.62-1.52,3.63c-1.01,1.01-2.29,1.52-3.83,1.52ZM602.71,122.94v-34.97h8.78v34.97h-8.78Z"/>
        <path class="cls-1" d="M636.36,123.6c-2.38,0-4.33-.35-5.87-1.06-1.54-.7-2.74-1.63-3.6-2.77-.86-1.14-1.46-2.4-1.81-3.76-.35-1.36-.53-2.71-.53-4.02v-16.96h-6v-7.06h6v-8.71h8.78v8.71h7.85v7.06h-7.85v16.76c0,3.12,1.76,4.68,5.28,4.68.84,0,1.98-.11,3.43-.33v6.86c-2.24.4-4.13.59-5.67.59Z"/>
        <path class="cls-1" d="M665.86,123.6c-3.83,0-7.08-.86-9.77-2.57-2.68-1.72-4.72-3.95-6.1-6.7-1.39-2.75-2.08-5.71-2.08-8.87s.69-6.13,2.08-8.87c1.39-2.75,3.42-4.98,6.1-6.7,2.68-1.72,5.94-2.57,9.77-2.57s7.14.86,9.8,2.57c2.66,1.72,4.68,3.95,6.07,6.7,1.39,2.75,2.08,5.71,2.08,8.87s-.69,6.13-2.08,8.87c-1.39,2.75-3.41,4.98-6.07,6.7-2.66,1.72-5.93,2.57-9.8,2.57ZM665.86,116.27c1.98,0,3.64-.51,4.98-1.52,1.34-1.01,2.36-2.34,3.07-3.99.7-1.65,1.06-3.42,1.06-5.31s-.35-3.72-1.06-5.34c-.7-1.63-1.73-2.95-3.07-3.96-1.34-1.01-3-1.52-4.98-1.52s-3.59.51-4.95,1.52c-1.36,1.01-2.4,2.33-3.1,3.96-.7,1.63-1.06,3.41-1.06,5.34s.35,3.66,1.06,5.31c.7,1.65,1.74,2.98,3.1,3.99,1.36,1.01,3.01,1.52,4.95,1.52Z"/>
        <path class="cls-1" d="M691.79,135.81c-1.14,0-2.44-.09-3.89-.26v-7.19c1.32.13,2.42.2,3.3.2,2.24,0,4.1-.36,5.58-1.09,1.47-.73,2.72-2.08,3.73-4.06l-13.13-35.43h8.91l8.78,24.94,8.64-24.94h8.91l-12.8,34.11c-1.76,4.66-4.02,8.12-6.8,10.36-2.77,2.24-6.51,3.36-11.22,3.36Z"/>
        <path class="cls-1" d="M743.19,123.6c-2.99,0-5.58-.52-7.75-1.55-2.18-1.03-3.98-2.42-5.41-4.16-1.43-1.74-2.5-3.68-3.2-5.84-.7-2.15-1.06-4.35-1.06-6.6s.34-4.43,1.02-6.57c.68-2.13,1.72-4.08,3.1-5.84,1.39-1.76,3.16-3.16,5.31-4.19,2.15-1.03,4.71-1.55,7.65-1.55,3.17,0,5.96.7,8.38,2.11,2.42,1.41,4.31,3.46,5.67,6.17,1.36,2.71,2.05,6.06,2.05,10.06v2.24h-24.35c.13,2.38.95,4.43,2.44,6.17,1.49,1.74,3.54,2.61,6.14,2.61,1.49,0,2.73-.24,3.7-.73.97-.48,1.72-1.04,2.24-1.68.53-.64,1.01-1.42,1.45-2.34h8.12c-.44,1.54-.96,2.89-1.55,4.06-.59,1.17-1.46,2.33-2.61,3.5-1.14,1.17-2.64,2.14-4.49,2.94-1.85.79-4.14,1.19-6.86,1.19ZM734.61,102.15h15.9c-.13-2.73-.95-4.75-2.44-6.07-1.5-1.32-3.26-1.98-5.28-1.98-2.24,0-4.11.72-5.61,2.14-1.5,1.43-2.35,3.4-2.57,5.91Z"/>
        <path class="cls-1" d="M766.34,122.94v-34.97h8.78v5.01h.4c.35-.62.9-1.37,1.65-2.28.75-.9,1.78-1.69,3.1-2.38,1.32-.68,2.99-1.02,5.01-1.02,2.68,0,4.89.61,6.63,1.81,1.74,1.21,3.04,2.8,3.89,4.78.86,1.98,1.29,4.11,1.29,6.4v22.63h-8.78v-21.44c0-1.89-.53-3.52-1.58-4.88-1.06-1.36-2.64-2.05-4.75-2.05-1.63,0-2.95.41-3.96,1.22-1.01.81-1.75,1.86-2.21,3.13-.46,1.28-.69,2.62-.69,4.02v19.99h-8.78Z"/>
        <path class="cls-1" d="M565.43,195.86c-2.6,0-4.86-.52-6.8-1.55-1.94-1.03-3.55-2.42-4.85-4.16-1.3-1.74-2.27-3.68-2.9-5.84-.64-2.15-.96-4.35-.96-6.6s.32-4.44.96-6.6c.64-2.15,1.61-4.1,2.9-5.84,1.3-1.74,2.91-3.12,4.85-4.16,1.94-1.03,4.2-1.55,6.8-1.55,2.24,0,4.09.36,5.54,1.09,1.45.73,2.59,1.52,3.43,2.38.83.86,1.41,1.55,1.72,2.08h.4v-20.06h8.78v50.15h-8.78v-4.88h-.4c-.31.53-.88,1.23-1.72,2.11-.84.88-1.98,1.67-3.43,2.38-1.45.7-3.3,1.06-5.54,1.06ZM567.74,188.67c1.98,0,3.63-.54,4.95-1.62,1.32-1.08,2.31-2.45,2.97-4.12.66-1.67.99-3.41.99-5.21s-.33-3.54-.99-5.21c-.66-1.67-1.65-3.05-2.97-4.12-1.32-1.08-2.97-1.62-4.95-1.62s-3.64.54-4.98,1.62c-1.34,1.08-2.34,2.45-3,4.12-.66,1.67-.99,3.41-.99,5.21s.33,3.54.99,5.21c.66,1.67,1.66,3.05,3,4.12,1.34,1.08,3,1.62,4.98,1.62Z"/>
        <path class="cls-1" d="M610.76,195.86c-2.99,0-5.58-.52-7.75-1.55-2.18-1.03-3.98-2.42-5.41-4.16-1.43-1.74-2.5-3.68-3.2-5.84-.7-2.15-1.06-4.35-1.06-6.6s.34-4.43,1.02-6.57c.68-2.13,1.72-4.08,3.1-5.84,1.39-1.76,3.16-3.16,5.31-4.19,2.15-1.03,4.71-1.55,7.65-1.55,3.17,0,5.96.7,8.38,2.11,2.42,1.41,4.31,3.46,5.67,6.17,1.36,2.71,2.05,6.06,2.05,10.06v2.24h-24.35c.13,2.38.95,4.43,2.44,6.17,1.49,1.74,3.54,2.61,6.14,2.61,1.49,0,2.73-.24,3.7-.73.97-.48,1.72-1.04,2.24-1.68.53-.64,1.01-1.42,1.45-2.34h8.12c-.44,1.54-.96,2.89-1.55,4.06-.59,1.17-1.46,2.33-2.61,3.5-1.14,1.17-2.64,2.14-4.49,2.94-1.85.79-4.14,1.19-6.86,1.19ZM602.19,174.42h15.9c-.13-2.73-.95-4.75-2.44-6.07-1.5-1.32-3.26-1.98-5.28-1.98-2.24,0-4.11.72-5.61,2.14-1.5,1.43-2.35,3.4-2.57,5.91Z"/>
        <path class="cls-1" d="M650.02,195.2l.07-50.15h8.71v50.15h-8.78Z"/>
        <path class="cls-1" d="M682.35,159.57c2.24,0,4.09.36,5.54,1.09,1.45.73,2.59,1.52,3.43,2.38.83.86,1.41,1.55,1.72,2.08h.4v-4.88h8.78v34.97h-8.78v-4.88h-.4c-.31.53-.88,1.23-1.72,2.11-.84.88-1.98,1.67-3.43,2.38-1.45.7-3.3,1.06-5.54,1.06-2.6,0-4.86-.52-6.8-1.55-1.94-1.03-3.55-2.42-4.85-4.16-1.3-1.74-2.27-3.68-2.9-5.84-.64-2.15-.96-4.35-.96-6.6s.32-4.44.96-6.6c.64-2.15,1.61-4.1,2.9-5.84,1.3-1.74,2.91-3.12,4.85-4.16,1.94-1.03,4.2-1.55,6.8-1.55ZM684.66,166.77c-1.98,0-3.64.54-4.98,1.62-1.34,1.08-2.34,2.45-3,4.12-.66,1.67-.99,3.41-.99,5.21s.33,3.54.99,5.21c.66,1.67,1.66,3.05,3,4.12,1.34,1.08,3,1.62,4.98,1.62s3.63-.54,4.95-1.62c1.32-1.08,2.31-2.45,2.97-4.12.66-1.67.99-3.41.99-5.21s-.33-3.54-.99-5.21c-.66-1.67-1.65-3.05-2.97-4.12-1.32-1.08-2.97-1.62-4.95-1.62Z"/>
        <path class="cls-1" d="M726.23,195.2v-48.83h19.27c3.91,0,7.17.78,9.77,2.34,2.59,1.56,4.54,3.59,5.84,6.07,1.3,2.49,1.95,5.07,1.95,7.75s-.65,5.27-1.95,7.75c-1.3,2.49-3.24,4.52-5.84,6.1-2.6,1.58-5.85,2.38-9.77,2.38h-10.29v16.43h-8.97ZM745.43,154.16h-10.23v16.83h10.23c1.94,0,3.54-.41,4.82-1.22,1.28-.81,2.23-1.87,2.87-3.17.64-1.3.96-2.63.96-3.99s-.32-2.75-.96-4.02c-.64-1.28-1.59-2.33-2.87-3.17-1.28-.84-2.88-1.25-4.82-1.25Z"/>
        <path class="cls-1" d="M780.66,195.86c-3.65,0-6.41-1.12-8.28-3.36-1.87-2.24-2.8-5.12-2.8-8.64v-23.62h8.71v22.17c0,1.89.51,3.4,1.52,4.52,1.01,1.12,2.44,1.68,4.29,1.68,1.63,0,2.95-.42,3.96-1.25,1.01-.83,1.75-1.91,2.21-3.23.46-1.32.69-2.68.69-4.09v-19.79h8.78v34.97h-8.78v-5.01h-.4c-.44.79-1.07,1.63-1.88,2.51-.81.88-1.87,1.63-3.17,2.24-1.3.62-2.91.92-4.85.92Z"/>
        <path class="cls-1" d="M828.43,195.86c-2.24,0-4.09-.36-5.54-1.09-1.45-.73-2.58-1.53-3.4-2.41-.81-.88-1.38-1.56-1.68-2.05h-.46v4.88h-8.78v-50.15h8.78v20.06h.46c.31-.53.87-1.23,1.68-2.11.81-.88,1.95-1.67,3.4-2.38,1.45-.7,3.3-1.06,5.54-1.06,2.64,0,4.93.52,6.86,1.55,1.94,1.03,3.54,2.42,4.82,4.16,1.28,1.74,2.23,3.68,2.87,5.84.64,2.16.96,4.35.96,6.6s-.32,4.44-.96,6.6c-.64,2.16-1.59,4.1-2.87,5.84-1.28,1.74-2.88,3.12-4.82,4.16-1.94,1.03-4.22,1.55-6.86,1.55ZM826.12,188.67c2.02,0,3.7-.54,5.01-1.62,1.32-1.08,2.31-2.45,2.97-4.12.66-1.67.99-3.41.99-5.21s-.33-3.54-.99-5.21c-.66-1.67-1.65-3.05-2.97-4.12-1.32-1.08-2.99-1.62-5.01-1.62s-3.63.54-4.95,1.62c-1.32,1.08-2.31,2.45-2.97,4.12-.66,1.67-.99,3.41-.99,5.21s.33,3.54.99,5.21c.66,1.67,1.65,3.05,2.97,4.12,1.32,1.08,2.97,1.62,4.95,1.62Z"/>
        <path class="cls-1" d="M851.98,195.2l.07-50.15h8.71v50.15h-8.78Z"/>
        <path class="cls-1" d="M874.88,154.82c-1.54,0-2.8-.51-3.79-1.52-.99-1.01-1.48-2.22-1.48-3.63s.49-2.62,1.48-3.63c.99-1.01,2.25-1.52,3.79-1.52s2.81.51,3.83,1.52c1.01,1.01,1.52,2.22,1.52,3.63s-.51,2.62-1.52,3.63c-1.01,1.01-2.29,1.52-3.83,1.52ZM870.52,195.2v-34.97h8.78v34.97h-8.78Z"/>
        <path class="cls-1" d="M905.76,195.86c-2.99,0-5.61-.52-7.85-1.55-2.24-1.03-4.11-2.42-5.61-4.16-1.5-1.74-2.61-3.68-3.33-5.84-.73-2.15-1.09-4.35-1.09-6.6s.36-4.44,1.09-6.6c.73-2.15,1.82-4.1,3.3-5.84,1.47-1.74,3.33-3.12,5.58-4.16,2.24-1.03,4.88-1.55,7.92-1.55s5.48.44,7.46,1.32c1.98.88,3.55,1.98,4.72,3.3,1.17,1.32,2.03,2.63,2.61,3.93.57,1.3,1.03,2.83,1.39,4.59h-8.25c-.35-1.19-.79-2.18-1.32-2.97-.53-.79-1.31-1.5-2.34-2.11-1.03-.62-2.41-.92-4.12-.92-2.02,0-3.73.52-5.11,1.55-1.39,1.03-2.43,2.39-3.13,4.06-.7,1.67-1.06,3.48-1.06,5.41s.35,3.74,1.06,5.41c.7,1.67,1.75,3.02,3.13,4.06,1.39,1.03,3.09,1.55,5.11,1.55,1.72,0,3.09-.31,4.12-.92,1.03-.62,1.81-1.32,2.34-2.11.53-.79.97-1.78,1.32-2.97h8.25c-.35,1.76-.81,3.29-1.39,4.59-.57,1.3-1.44,2.61-2.61,3.93-1.17,1.32-2.74,2.42-4.72,3.3-1.98.88-4.47,1.32-7.46,1.32Z"/>
        <path class="cls-1" d="M934.85,154.82c-1.54,0-2.8-.51-3.79-1.52-.99-1.01-1.48-2.22-1.48-3.63s.49-2.62,1.48-3.63c.99-1.01,2.25-1.52,3.79-1.52s2.81.51,3.83,1.52c1.01,1.01,1.52,2.22,1.52,3.63s-.51,2.62-1.52,3.63c-1.01,1.01-2.29,1.52-3.83,1.52ZM930.5,195.2v-34.97h8.78v34.97h-8.78Z"/>
        <path class="cls-1" d="M964.15,195.86c-2.38,0-4.33-.35-5.87-1.06-1.54-.7-2.74-1.63-3.6-2.77-.86-1.14-1.46-2.4-1.81-3.76-.35-1.36-.53-2.71-.53-4.02v-16.96h-6v-7.06h6v-8.71h8.78v8.71h7.85v7.06h-7.85v16.76c0,3.12,1.76,4.68,5.28,4.68.84,0,1.98-.11,3.43-.33v6.86c-2.24.4-4.13.59-5.67.59Z"/>
        <path class="cls-1" d="M993.24,195.86c-2.99,0-5.59-.52-7.79-1.55-2.2-1.03-4.01-2.42-5.44-4.16-1.43-1.74-2.49-3.68-3.17-5.84-.68-2.15-1.02-4.35-1.02-6.6s.34-4.43,1.02-6.57c.68-2.13,1.72-4.08,3.1-5.84,1.39-1.76,3.16-3.16,5.31-4.19,2.15-1.03,4.71-1.55,7.65-1.55,3.17,0,5.96.7,8.38,2.11,2.42,1.41,4.31,3.46,5.67,6.17,1.36,2.71,2.05,6.06,2.05,10.06v2.24h-24.35c.13,2.38.93,4.43,2.41,6.17,1.47,1.74,3.53,2.61,6.17,2.61,1.5,0,2.73-.24,3.7-.73.97-.48,1.72-1.04,2.24-1.68.53-.64.99-1.42,1.39-2.34h8.12c-.4,1.54-.9,2.89-1.52,4.06-.62,1.17-1.5,2.33-2.64,3.5-1.14,1.17-2.63,2.14-4.45,2.94-1.83.79-4.1,1.19-6.83,1.19ZM984.67,174.42h15.9c-.13-2.73-.95-4.75-2.44-6.07-1.5-1.32-3.26-1.98-5.28-1.98-2.24,0-4.11.72-5.61,2.14-1.5,1.43-2.35,3.4-2.57,5.91ZM996.28,155.29l-6.66-.07,5.41-11.88h8.38l-7.13,11.94Z"/>
      </g>
      <path class="cls-1" d="M390.49,1.29h0v.02c-1.77,0-3.49.17-5.23.27-1.64.09-3.3.1-4.93.27-1.73.18-3.42.51-5.12.79-1.67.27-3.34.48-4.98.83-1.61.34-3.17.8-4.75,1.22-1.68.45-3.37.88-5.02,1.42-1.47.48-2.89,1.04-4.33,1.59-1.7.65-3.4,1.3-5.06,2.04-1.31.58-2.59,1.23-3.87,1.87-1.72.86-3.43,1.75-5.09,2.71-1.14.66-2.25,1.35-3.36,2.05-1.74,1.1-3.44,2.25-5.11,3.45-.96.69-1.9,1.39-2.83,2.11-1.75,1.37-3.45,2.81-5.11,4.29-.75.67-1.51,1.34-2.24,2.04-1.78,1.7-3.47,3.47-5.11,5.3-15.41,17.07-24.91,39.55-25.11,64.26,0,.23.03.45.03.68,0,27.25-22.17,49.41-49.41,49.41s-49.41-22.17-49.41-49.41,22.17-49.41,49.41-49.41c10.5,0,20.23,3.32,28.24,8.92,5.28-15.36,13.47-29.37,23.91-41.39-15.09-9.66-32.94-15.34-52.15-15.34-29.26,0-55.48,13.05-73.31,33.57C152.7,14.35,126.48,1.29,97.22,1.29,43.61,1.29,0,44.91,0,98.51s43.61,97.22,97.22,97.22c29.26,0,55.48-13.05,73.32-33.57,17.84,20.52,44.06,33.57,73.31,33.57,18.03,0,34.92-4.95,49.41-13.54v40.42h47.81v-40.42c14.49,8.59,31.38,13.54,49.41,13.54,53.61,0,97.22-43.61,97.22-97.22S444.1,1.29,390.49,1.29ZM97.22,147.93c-27.25,0-49.41-22.17-49.41-49.41s22.16-49.41,49.41-49.41,49.41,22.16,49.41,49.41-22.17,49.41-49.41,49.41ZM390.49,147.93c-27.25,0-49.41-22.17-49.41-49.41s22.17-49.41,49.41-49.41,49.41,22.16,49.41,49.41-22.17,49.41-49.41,49.41Z"/>
    </g>
  </g>
</svg>