<?xml version="1.0" encoding="UTF-8"?>
<svg id="Capa_2" data-name="Capa 2" xmlns="http://www.w3.org/2000/svg" viewBox="0 0 1680.56 328.24">
  <defs>
    <style>
      .cls-1 {
        fill: #030370;
      }
    </style>
  </defs>
  <g id="Capa_1-2" data-name="Capa 1">
    <g>
      <path class="cls-1" d="M0,0v328.24h328.24V0H0ZM151.46,303.45h-25.33v-101.33H50.13v101.33h-25.33v-126.66h101.33v25.33h25.33v101.33ZM151.46,50.66H50.13v101.33h-25.33V25.33h126.66v25.33ZM302.91,202.12h-101.33v50.66h76v25.33h-76v25.33h-24.79v-126.66h126.12v25.33ZM302.91,151.99h-25.33V50.66h-76v101.33h-24.79V25.33h126.12v126.66Z"/>
      <path class="cls-1" d="M489.94,62.52c-4.85-11.86-16.71-22.1-33.42-22.1-21.02,0-36.11,16.71-36.11,37.19s15.63,36.65,36.11,36.65c16.71,0,28.57-10.24,33.42-21.56l14.55,8.62c-8.08,16.71-25.33,29.64-47.97,29.64-30.72,0-53.36-23.18-53.36-53.36s22.64-53.9,53.36-53.9c20.48,0,38.81,10.78,47.97,29.64l-14.55,9.16Z"/>
      <path class="cls-1" d="M620.37,77.61c0,29.64-23.18,53.36-53.36,53.36s-53.36-23.18-53.36-53.36,23.18-53.9,53.36-53.9c29.64,0,53.36,23.72,53.36,53.9M603.13,77.61c0-20.48-15.63-37.19-36.65-37.19s-36.11,16.71-36.11,37.19,15.63,36.65,36.11,36.65c20.48.54,36.65-15.63,36.65-36.65"/>
      <polygon class="cls-1" points="637.08 129.9 637.08 25.33 658.64 25.33 690.44 94.86 722.78 25.33 743.8 25.33 743.8 129.9 727.09 129.9 727.09 49.59 697.45 115.88 683.44 115.88 653.79 49.59 653.79 129.9 637.08 129.9"/>
      <polygon class="cls-1" points="768.6 129.9 768.6 25.33 790.15 25.33 821.96 94.86 854.29 25.33 875.85 25.33 875.85 129.9 858.61 129.9 859.15 49.59 829.5 115.88 814.95 115.88 785.3 49.59 785.84 129.9 768.6 129.9"/>
      <path class="cls-1" d="M1235.36,62.52c-4.85-11.86-16.71-22.1-33.42-22.1-21.02,0-36.11,16.71-36.11,37.19s15.09,36.65,36.11,36.65c16.71,0,28.57-10.24,33.42-21.56l14.55,8.62c-8.08,16.71-25.33,29.64-47.97,29.64-30.72,0-53.36-23.18-53.36-53.36s22.64-53.9,53.36-53.9c20.48,0,38.81,10.78,47.97,29.64l-14.55,9.16Z"/>
      <path class="cls-1" d="M1291.41,25.33h21.02l34.5,104.56h-18.33l-7.55-24.25h-37.73l-7.55,24.25h-18.33l33.96-104.56ZM1317.28,89.47l-15.09-45.27-15.09,45.27h30.18Z"/>
      <polygon class="cls-1" points="1370.64 129.9 1370.64 42.04 1339.38 42.04 1339.38 25.33 1418.61 25.33 1418.61 42.04 1387.89 42.04 1387.89 129.9 1370.64 129.9"/>
      <rect class="cls-1" x="1435.86" y="25.33" width="17.25" height="104.56"/>
      <path class="cls-1" d="M1210.56,198.89h21.02l33.96,104.56h-18.33l-7.55-24.25h-37.73l-7.55,24.25h-18.33l34.5-104.56ZM1235.9,263.03l-15.09-45.27-15.09,45.27h30.18Z"/>
      <polygon class="cls-1" points="1289.26 303.45 1289.26 215.59 1258 215.59 1258 198.89 1337.23 198.89 1337.23 215.59 1306.5 215.59 1306.5 303.45 1289.26 303.45"/>
      <rect class="cls-1" x="1354.47" y="198.89" width="17.25" height="104.56"/>
      <path class="cls-1" d="M1576.54,77.61c0,29.64-23.18,53.36-53.36,53.36s-53.36-23.18-53.36-53.36,23.18-53.9,53.36-53.9c30.18,0,53.36,23.72,53.36,53.9M1559.83,77.61c0-20.48-15.63-37.19-36.65-37.19s-36.11,16.71-36.11,37.19,15.63,36.65,36.11,36.65c20.48.54,36.65-15.63,36.65-36.65"/>
      <polygon class="cls-1" points="1663.31 25.33 1663.31 100.25 1608.34 25.33 1593.78 25.33 1593.78 129.9 1610.49 129.9 1610.49 56.05 1665.47 129.9 1680.56 129.9 1680.56 25.33 1663.31 25.33"/>
      <polygon class="cls-1" points="812.79 198.89 780.45 267.88 748.65 198.89 727.09 198.89 727.09 303.45 744.34 303.45 743.8 223.14 773.45 289.44 788 289.44 817.1 223.14 817.1 303.45 834.35 303.45 834.35 198.89 812.79 198.89"/>
      <path class="cls-1" d="M958.86,251.17c0,29.64-23.18,53.36-53.36,53.36s-53.36-23.18-53.36-53.36,23.18-53.9,53.36-53.9,53.36,23.72,53.36,53.9M941.61,251.17c0-20.48-15.63-37.19-36.65-37.19s-36.11,16.71-36.11,37.19,15.63,36.65,36.11,36.65,36.65-16.17,36.65-36.65"/>
      <path class="cls-1" d="M1060.73,236.08c-4.85-11.86-16.71-22.1-33.42-22.1-21.02,0-36.11,16.71-36.11,37.19s15.63,36.65,36.11,36.65c16.71,0,28.57-10.24,33.42-21.56l14.55,8.62c-8.08,16.71-25.33,29.64-47.97,29.64-30.72,0-53.36-23.18-53.36-53.36s22.64-53.9,53.36-53.9c20.48,0,38.81,10.78,47.97,29.64l-14.55,9.16Z"/>
      <path class="cls-1" d="M1127.02,198.89c20.48,0,34.5,15.09,34.5,33.96s-12.94,26.41-22.64,30.18l25.33,39.89h-19.4l-21.56-36.11h-15.63v36.11h-17.25v-104.02h36.65ZM1107.08,251.71h16.17c13.47,0,21.02-8.62,21.02-18.86s-7.55-18.86-21.02-18.86h-16.17v37.73Z"/>
      <polygon class="cls-1" points="1395.98 198.89 1395.98 303.45 1459.58 303.45 1459.58 286.74 1413.22 286.74 1413.22 258.71 1454.73 258.71 1454.73 243.08 1413.22 243.08 1413.22 215.59 1459.58 215.59 1459.58 198.89 1395.98 198.89"/>
      <path class="cls-1" d="M529.29,198.89h38.27c29.64,0,52.28,23.18,52.28,52.28s-22.64,52.28-52.28,52.28h-38.27v-104.56ZM567.55,286.74c19.94,0,36.11-15.63,36.11-35.57s-16.17-35.57-36.11-35.57h-20.48v71.15h20.48Z"/>
      <polygon class="cls-1" points="637.08 198.89 637.08 303.45 700.68 303.45 700.68 286.74 654.33 286.74 654.33 258.71 695.83 258.71 695.83 243.08 654.33 243.08 654.33 215.59 700.68 215.59 700.68 198.89 637.08 198.89"/>
      <polygon class="cls-1" points="666.73 181.64 683.44 181.64 700.68 181.64 700.68 164.39 666.73 181.64"/>
      <path class="cls-1" d="M899.57,89.47V25.33h17.25v61.44c0,20.48,7.55,28.03,23.72,28.03s23.72-7.55,23.72-28.03V25.33h17.25v64.14c0,26.95-14.55,42.04-40.96,42.04s-40.96-15.09-40.96-42.04"/>
      <polygon class="cls-1" points="1001.98 25.33 1017.07 25.33 1072.04 100.25 1072.04 25.33 1088.75 25.33 1088.75 129.9 1074.2 129.9 1019.22 56.05 1019.22 129.9 1001.98 129.9 1001.98 25.33"/>
      <rect class="cls-1" x="1112.47" y="25.33" width="17.25" height="104.56"/>
      <path class="cls-1" d="M417.71,274.88c0-5.93,2.69-10.24,7.55-12.94,1.08-.54,1.62-1.08,2.69-1.62.54,0,1.08-.54,1.08-.54,1.08-.54,2.16-1.08,3.23-1.08.54,0,1.08-.54,1.08-.54,1.08-.54,2.69-.54,4.31-1.08h1.08c1.62-.54,3.77-.54,5.39-1.08l.54.54c5.39,5.39,10.78,10.24,15.63,15.63-7.55,9.7-14.55,18.33-26.95,18.33-1.08,0-2.69,0-3.77-.54h-1.08c-1.08-.54-2.69-.54-3.77-1.62-4.31-2.69-7.01-7.01-7.01-13.47M477.54,268.42c5.93-5.93,12.94-10.24,23.18-10.78v-12.94h0c-14.55,1.08-24.25,8.08-31.26,15.63l-15.09-15.09c-11.32-10.78-19.94-23.18-12.4-31.26,2.16-2.16,5.39-3.23,9.16-3.23,6.47,0,15.09,2.69,21.56,5.93h0l5.93-12.4c-9.16-3.77-18.86-6.47-28.03-6.47h0c-7.55,0-14.55,2.16-19.4,7.01-11.32,11.86-7.55,26.95,3.77,40.96-3.23.54-5.93,1.62-8.62,2.69q-.54,0-1.08.54h0c-14.01,5.39-21.56,15.63-21.56,28.57s7.01,24.25,21.56,26.95h0c2.16.54,4.31.54,7.01.54h0c18.86,0,26.95-12.94,36.11-25.33,16.17,15.63,23.18,19.94,23.18,19.94,5.39,3.77,9.16,3.77,9.16,3.77v-12.4c-4.85-4.85-12.94-12.4-23.18-22.64"/>
    </g>
  </g>
</svg>