<svg class="wp-image-153 replaced-svg svg-replaced-2" viewBox="0 0 164.9 55.24" id="Calque_2" xmlns="http://www.w3.org/2000/svg"><defs><style>.cls-1{fill:#101022;}.cls-1,.cls-2{stroke-width:0px;}.cls-2{fill:#e83d3e;}</style></defs><g id="Capa_1"><path d="M98.61,15.44v6.94h-1.82v-2.7h-2.52v2.7h-1.82v-6.94h1.82v2.7h2.52v-2.7h1.82Z" class="cls-1"></path><path d="M99.4,20.84c0-1.01.69-1.52,1.74-1.52.58,0,1.26.15,1.68.34v-.43c0-.38-.33-.58-.65-.58-.39,0-.62.17-.76.47l-1.6-.57c.35-.79,1.09-1.36,2.41-1.36s2.37.65,2.37,2.02v3.17h-1.74v-.57c-.5.44-1.03.68-1.67.68-.99,0-1.77-.59-1.77-1.65ZM102.75,20.45h-1.9c0,.46.26.69.78.69.43,0,.8-.18,1.12-.69Z" class="cls-1"></path><path d="M107.3,22.38h-1.78v-6.94h1.78v6.94Z" class="cls-1"></path><path d="M110.63,20.29c0,.5.28.68.83.68h.32v1.4h-.72c-1.63,0-2.21-.68-2.21-1.87v-1.94h-.95v-1.29h.95v-1.32h1.78v1.28c.39-.03.75-.08,1.12-.17l.37,1.25c-.45.15-.86.21-1.49.23v1.75Z" class="cls-1"></path><path d="M115.89,20.24c-.84,0-1.57-.15-1.84-.29,0,.72.45,1.11,1.09,1.11.45,0,.78-.18.9-.5h1.53c-.12.89-.89,1.91-2.49,1.91-1.73,0-2.66-1.2-2.66-2.69,0-1.66,1.14-2.62,2.67-2.62,1.42,0,2.53.81,2.53,2.58,0,.16,0,.37-.03.49h-1.7ZM114.21,19c.48.28,1.12.33,1.69.33,0-.57-.41-.89-.87-.89-.32,0-.64.15-.81.57Z" class="cls-1"></path><path d="M120.48,20.84c0-1.01.69-1.52,1.74-1.52.58,0,1.26.15,1.68.34v-.43c0-.38-.33-.58-.65-.58-.39,0-.62.17-.76.47l-1.6-.57c.35-.79,1.09-1.36,2.41-1.36s2.37.65,2.37,2.02v3.17h-1.74v-.57c-.5.44-1.03.68-1.67.68-.99,0-1.77-.59-1.77-1.65ZM124.77,15.54c-1.01-.2-2.04-.51-3.04-.92l-.37,1c1.13.49,2,.7,3.24.86l.17-.94ZM123.84,20.45h-1.9c0,.46.26.69.78.69.43,0,.8-.18,1.12-.69Z" class="cls-1"></path><path d="M94.13,33.01h-1.78v-6.94h1.78v6.94Z" class="cls-1"></path><path d="M96.01,25.46c.79,0,1.23.67,1.23,1.5,0,.96-.58,2.01-1.84,2.37l-.29-.67c.68-.2,1.17-.69,1.17-1.27-.07.04-.21.06-.34.06-.47,0-1.02-.29-1.02-.95,0-.59.46-1.03,1.09-1.03Z" class="cls-1"></path><path d="M101.36,33.12c-2.03,0-3.53-1.5-3.53-3.58s1.5-3.58,3.53-3.58,3.55,1.5,3.55,3.58-1.5,3.58-3.55,3.58ZM101.36,27.7c-.99,0-1.67.76-1.67,1.84s.67,1.84,1.67,1.84,1.69-.76,1.69-1.84-.67-1.84-1.69-1.84Z" class="cls-1"></path><path d="M109.02,33.12c-.79,0-1.28-.33-1.59-.68v.57h-1.73v-6.94h1.78v2.45c.33-.43.85-.7,1.51-.7,1.18,0,2.32.88,2.32,2.61,0,1.4-.75,2.7-2.3,2.7ZM107.48,30.49c0,.73.54,1.14,1.03,1.14s1-.38,1-1.12c0-.61-.34-1.1-1.02-1.1s-1.01.52-1.01,1.08Z" class="cls-1"></path><path d="M113.32,31.21c0,.51.48.72,1.04.72.4,0,.78-.1.78-.36,0-.24-.32-.29-.86-.4-.93-.17-2.29-.38-2.29-1.69,0-1.21,1.13-1.68,2.29-1.68.9,0,1.74.3,2.18.76l-.89,1.05c-.38-.37-.8-.53-1.21-.53s-.66.13-.66.37c0,.22.22.33.69.44.84.17,2.46.24,2.46,1.58,0,1.1-1.11,1.64-2.46,1.64-1.42,0-2.78-.59-2.78-1.91h1.71Z" class="cls-1"></path><path d="M122.61,30.48c0,1.59-1.13,2.65-2.74,2.65s-2.73-1.06-2.73-2.65,1.12-2.66,2.73-2.66,2.74,1.06,2.74,2.66ZM120.81,30.48c0-.8-.44-1.15-.94-1.15s-.93.35-.93,1.15.44,1.14.93,1.14.94-.35.94-1.14Z" class="cls-1"></path><path d="M125.08,33.01h-1.78v-6.94h1.78v6.94Z" class="cls-1"></path><path d="M129.25,30.88c-.84,0-1.57-.15-1.84-.29,0,.72.45,1.11,1.09,1.11.45,0,.78-.18.9-.5h1.53c-.12.89-.89,1.91-2.49,1.91-1.73,0-2.66-1.2-2.66-2.69,0-1.66,1.14-2.62,2.67-2.62,1.42,0,2.53.81,2.53,2.58,0,.16,0,.37-.03.49h-1.7ZM127.57,29.63c.48.28,1.12.33,1.69.33,0-.57-.41-.89-.87-.89-.32,0-.64.15-.81.57Z" class="cls-1"></path><path d="M132.97,31.21c0,.51.48.72,1.04.72.4,0,.78-.1.78-.36,0-.24-.32-.29-.86-.4-.93-.17-2.29-.38-2.29-1.69,0-1.21,1.13-1.68,2.29-1.68.9,0,1.74.3,2.18.76l-.89,1.05c-.38-.37-.8-.53-1.21-.53s-.66.13-.66.37c0,.22.22.33.69.44.84.17,2.46.24,2.46,1.58,0,1.1-1.11,1.64-2.46,1.64-1.42,0-2.78-.59-2.78-1.91h1.71Z" class="cls-1"></path><path d="M136.8,30.44c0-1.73,1.19-2.62,2.64-2.62.93,0,1.77.36,2.25.97l-1.23.99c-.2-.32-.58-.47-.91-.47-.52,0-.96.35-.96,1.07s.5,1.14,1.04,1.14c.52,0,.88-.31.88-.9h1.69c0,1.64-1.26,2.5-2.65,2.5s-2.75-.89-2.75-2.69Z" class="cls-1"></path><path d="M145.96,30.88c-.84,0-1.57-.15-1.84-.29,0,.72.45,1.11,1.09,1.11.45,0,.78-.18.9-.5h1.53c-.12.89-.89,1.91-2.49,1.91-1.73,0-2.66-1.2-2.66-2.69,0-1.66,1.14-2.62,2.67-2.62,1.42,0,2.53.81,2.53,2.58,0,.16,0,.37-.03.49h-1.7ZM144.28,29.63c.48.28,1.12.33,1.69.33,0-.57-.41-.89-.87-.89-.32,0-.64.15-.81.57Z" class="cls-1"></path><path d="M153.38,33.01h-1.78v-2.73c0-.59-.33-.85-.68-.85s-.74.32-.74.85v2.73h-1.78v-5.11h1.73v.84c.24-.62.86-.93,1.5-.93.87,0,1.77.57,1.77,1.73v3.46Z" class="cls-1"></path><path d="M154.02,30.44c0-1.73,1.19-2.62,2.64-2.62.93,0,1.77.36,2.25.97l-1.23.99c-.2-.32-.58-.47-.91-.47-.52,0-.96.35-.96,1.07s.5,1.14,1.04,1.14c.52,0,.88-.31.88-.9h1.69c0,1.64-1.26,2.5-2.65,2.5s-2.75-.89-2.75-2.69Z" class="cls-1"></path><path d="M163.18,30.88c-.84,0-1.57-.15-1.84-.29,0,.72.45,1.11,1.09,1.11.45,0,.78-.18.9-.5h1.53c-.12.89-.89,1.91-2.49,1.91-1.73,0-2.66-1.2-2.66-2.69,0-1.66,1.14-2.62,2.67-2.62,1.42,0,2.53.81,2.53,2.58,0,.16,0,.37-.03.49h-1.7ZM161.5,29.63c.48.28,1.12.33,1.69.33,0-.57-.41-.89-.87-.89-.32,0-.64.15-.81.57Z" class="cls-1"></path><path d="M95.66,36.71c1.88,0,2.7,1.14,2.7,2.45,0,1.51-.91,2.52-2.81,2.52h-1.28v1.97h-1.83v-6.94h3.22ZM95.52,40.1c.58,0,1-.3,1-.93,0-.54-.38-.88-1-.88h-1.24v1.81h1.24Z" class="cls-1"></path><path d="M102.45,38.48v1.71h-.57c-.86,0-1.15.53-1.15,1.15v2.32h-1.78v-5.11h1.73v.89c.23-.61.67-.96,1.39-.96h.39Z" class="cls-1"></path><path d="M108.11,41.11c0,1.59-1.13,2.65-2.74,2.65s-2.73-1.06-2.73-2.65,1.12-2.66,2.73-2.66,2.74,1.06,2.74,2.66ZM106.32,41.11c0-.8-.44-1.15-.94-1.15s-.93.35-.93,1.15.44,1.14.93,1.14.94-.35.94-1.14Z" class="cls-1"></path><path d="M112.52,42.47c1.11,0,1.66.7,1.66,1.45s-.55,1.7-2.31,1.7h-1.46c-1.67,0-2.09-.7-2.09-1.2,0-.43.3-.88,1.1-1.01-.54-.17-.8-.56-.8-.94s.27-.79.77-.94c-.43-.34-.64-.79-.64-1.3,0-.98.84-1.76,2.36-1.76.46,0,.85.07,1.19.2.23-.42.21-.97.02-1.44h1.74c.03.09.07.27.07.49,0,.56-.32,1.18-1.04,1.49.25.29.38.64.38,1.03,0,.98-.83,1.81-2.35,1.81-.45,0-.83-.07-1.16-.2-.08.06-.14.17-.14.28,0,.18.13.36.45.36h2.27ZM112.5,43.84h-2.48c0,.49.59.8,1.26.8s1.2-.32,1.22-.8ZM110.43,40.29c0,.45.24.73.66.73s.65-.28.65-.73-.25-.73-.65-.73c-.43,0-.66.3-.66.73Z" class="cls-1"></path><path d="M118.17,38.48v1.71h-.57c-.86,0-1.15.53-1.15,1.15v2.32h-1.78v-5.11h1.73v.89c.23-.61.67-.96,1.39-.96h.39Z" class="cls-1"></path><path d="M118.36,42.12c0-1.01.69-1.52,1.74-1.52.59,0,1.26.15,1.68.34v-.43c0-.38-.33-.59-.65-.59-.39,0-.62.17-.76.47l-1.6-.58c.35-.79,1.09-1.36,2.41-1.36s2.37.65,2.37,2.02v3.17h-1.74v-.58c-.5.44-1.03.68-1.67.68-.99,0-1.77-.59-1.77-1.65ZM121.71,41.73h-1.9c0,.46.26.69.78.69.43,0,.8-.18,1.12-.69Z" class="cls-1"></path><path d="M132.53,43.65h-1.78v-2.76c0-.53-.32-.78-.67-.78s-.67.29-.67.78v2.76h-1.78v-2.76c0-.54-.31-.78-.68-.78s-.66.27-.66.78v2.76h-1.78v-5.11h1.73v.84c.21-.6.87-.93,1.53-.93s1.24.34,1.43.96c.25-.59,1.03-.96,1.72-.96.8,0,1.66.51,1.66,1.75v3.45Z" class="cls-1"></path><path d="M141.52,43.65h-1.78v-2.76c0-.53-.32-.78-.67-.78s-.67.29-.67.78v2.76h-1.78v-2.76c0-.54-.31-.78-.68-.78s-.66.27-.66.78v2.76h-1.78v-5.11h1.73v.84c.21-.6.87-.93,1.53-.93s1.24.34,1.43.96c.25-.59,1.03-.96,1.72-.96.8,0,1.66.51,1.66,1.75v3.45Z" class="cls-1"></path><path d="M145.63,41.52c-.84,0-1.57-.15-1.84-.29,0,.72.45,1.11,1.09,1.11.45,0,.78-.18.9-.5h1.53c-.12.89-.89,1.91-2.49,1.91-1.73,0-2.66-1.2-2.66-2.69,0-1.66,1.14-2.62,2.67-2.62,1.42,0,2.53.81,2.53,2.58,0,.16,0,.37-.03.49h-1.7ZM143.92,37.76c1.23-.16,2.11-.38,3.23-.86l-.37-1c-1,.42-2.02.72-3.04.92l.18.94ZM143.96,40.27c.48.28,1.12.33,1.69.33,0-.57-.41-.89-.87-.89-.32,0-.64.15-.81.57Z" class="cls-1"></path><path d="M151.22,41.52c-.84,0-1.57-.15-1.84-.29,0,.72.45,1.11,1.09,1.11.45,0,.78-.18.9-.5h1.53c-.12.89-.89,1.91-2.49,1.91-1.73,0-2.66-1.2-2.66-2.69,0-1.66,1.14-2.62,2.67-2.62,1.42,0,2.53.81,2.53,2.58,0,.16,0,.37-.03.49h-1.7ZM149.55,40.27c.48.28,1.12.33,1.69.33,0-.57-.41-.89-.87-.89-.32,0-.64.15-.81.57Z" class="cls-1"></path><path d="M24.99,15.44v28.12h-7.39v-10.93H7.39v10.93H0V15.44h7.39v10.93h10.2v-10.93h7.39Z" class="cls-2"></path><path d="M73.97,15.44c7.63,0,10.93,4.62,10.93,9.92,0,6.11-3.7,10.2-11.37,10.2h-5.18v7.99h-7.43V15.44h13.06ZM73.37,29.18c2.37,0,4.06-1.21,4.06-3.78,0-2.17-1.53-3.58-4.06-3.58h-5.02v7.35h5.02Z" class="cls-2"></path><path d="M42.91,44c-8.23,0-14.3-6.07-14.3-14.5s6.07-14.5,14.3-14.5,14.38,6.07,14.38,14.5-6.07,14.5-14.38,14.5ZM42.91,22.03c-4.02,0-6.75,3.09-6.75,7.47s2.73,7.47,6.75,7.47,6.83-3.09,6.83-7.47-2.73-7.47-6.83-7.47Z" class="cls-2"></path><path d="M36.37,10.16c-2.18-2.23-4.23-4.76-6.01-7.51l-2.63,1.87c1.99,3.15,3.79,5.18,6.6,7.7l2.03-2.06Z" class="cls-2"></path><path d="M52.77,12.92c1.85-2.51,4.02-4.93,6.45-7.13l-2.26-2.3c-2.79,2.46-4.51,4.57-6.54,7.75l2.36,1.68Z" class="cls-2"></path><path d="M44.78,10.09c.03-3.12.38-6.35,1.06-9.56l-3.18-.54c-.82,3.63-.99,6.34-.77,10.11l2.89-.02Z" class="cls-2"></path><path d="M37.35,55.24c4.49-1.05,9.25-1.69,14.1-1.84l-.6-6.82c-5.5.1-9.46.81-14.8,2.44l1.3,6.21Z" class="cls-2"></path></g></svg>