<svg width="889" height="228" viewBox="0 0 889 228" fill="none" xmlns="http://www.w3.org/2000/svg">
<path d="M828.633 164.174C816.504 164.174 808.925 155.717 808.925 146.764C808.925 136.068 816.495 130.356 826.601 128.851L863.727 123.378V128.851C863.735 154.973 848.081 164.174 828.633 164.174ZM784.684 147.996C784.684 166.901 800.599 183.814 825.352 183.814C847.065 183.814 859.186 172.374 864.499 163.926C864.499 172.622 865.254 177.102 865.758 180.095H889C888.496 177.102 887.481 170.886 887.481 160.445V100.497C887.481 77.1102 873.338 56.7168 836.968 56.7168C810.705 56.7168 789.737 72.6296 787.219 95.5199L809.949 100.736C811.459 86.8068 820.811 76.6057 837.472 76.6057C855.912 76.6057 863.735 86.3023 863.735 97.991C863.735 102.224 861.721 105.952 854.393 106.943L821.558 111.68C800.59 114.673 784.684 126.61 784.684 147.996ZM737.714 120.146C737.714 144.771 723.831 162.429 701.848 162.429C680.133 162.429 665.739 144.771 665.739 120.146C665.739 96.2638 680.133 78.3501 701.848 78.3501C724.074 78.3586 737.714 96.2638 737.714 120.146ZM665.982 227.355V163.926C672.554 174.623 686.688 183.319 705.381 183.319C740.995 183.319 761.963 155.708 761.963 120.146C761.963 85.3275 742.514 57.7087 706.146 57.7087C686.436 57.7087 672.05 67.1658 665.478 79.094V60.4449H642.496V227.355H665.982ZM617.249 59.2051C615.972 58.9656 612.699 58.4612 609.417 58.4612C597.037 58.4612 581.895 62.9418 573.047 81.3343V60.4449H549.806V180.095H573.551V120.146C573.551 93.7841 586.931 83.3266 606.882 83.3266C610.173 83.3266 613.697 83.566 617.249 84.0705V59.2051ZM498.294 139.043C493.745 152.476 483.891 163.174 464.2 163.174C443.744 163.174 428.073 148.26 427.587 126.867H519.01C519.271 125.37 519.514 122.386 519.514 119.394C519.514 82.0867 498.546 56.7254 461.179 56.7254C430.617 56.7254 403.078 82.3347 403.078 119.898C403.078 160.454 431.624 183.823 464.208 183.823C492.495 183.823 511.943 167.166 518.767 146.021L498.294 139.043ZM428.334 107.961C429.349 92.5357 441.47 77.3582 461.422 77.3582C482.892 77.3582 494.257 90.7913 494.761 107.961H428.334ZM294.724 109.697C295.228 92.0397 304.83 78.1107 323.01 78.1107C344.221 78.1107 351.297 91.5438 351.297 108.2V180.095H375.026V104.225C375.026 77.6147 360.631 56.9648 331.589 56.9648C317.706 56.9648 303.554 61.6848 294.715 74.3741V0H270.97V180.095H294.715L294.724 109.697ZM239.167 43.7796C235.113 24.626 218.955 0 178.549 0C145.461 0 119.449 24.8825 119.449 52.4842C119.449 78.846 137.638 95.2633 163.146 100.736L188.655 106.209C206.583 109.928 215.422 120.881 215.422 133.57C215.422 148.987 203.301 161.676 178.549 161.676C151.53 161.676 137.386 143.515 135.615 123.865L111.87 131.338C115.16 156.453 135.615 183.814 178.801 183.814C216.941 183.814 240.669 158.949 240.669 131.578C240.669 106.952 224.008 88.5425 194.202 82.0867L167.435 76.3663C152.276 73.1257 144.445 63.4291 144.445 50.7398C144.445 34.331 158.84 21.3939 179.052 21.3939C204.056 21.3939 214.918 38.8031 216.941 51.4838L239.167 43.7796ZM56.5642 3.73666H36.6126V37.3153L5.79968 26.6269L0 44.5321L31.3165 54.7245L11.365 80.599L26.7671 92.0483L46.4582 65.182L67.4256 92.2877L82.8277 80.8469L62.1208 54.7245L93.4373 44.5321L87.6289 26.6184L56.5642 37.0587V3.73666Z" fill="#E41907"/>
</svg>
