<svg width="1291" height="562" viewBox="0 0 1291 562" fill="none" xmlns="http://www.w3.org/2000/svg">
<g clip-path="url(#clip0_716_245)">
<path d="M1061.6 330.17V431.87H629.949V330.17H1061.6ZM966.889 369.57C967.329 369.88 976.319 365.54 976.479 365.03C977.159 362.84 971.649 356.66 969.919 355.1C955.669 342.28 928.679 345.35 920.349 363.59C916.639 371.72 916.439 391.61 919.669 399.82C929.179 424.02 968.589 423.27 976.499 398.69L967.249 395.15C960.529 412.5 931.469 410.96 929.489 391.39C929.039 386.95 928.979 376.49 929.649 372.19C932.569 353.44 960.179 352.85 966.899 369.57H966.889ZM705.349 349.54H658.309V415.27H670.069V387.6H696.359V377.91H670.069V359.23H705.349V349.54ZM752.039 349.54H715.719V415.27H727.479V388.29H749.959C752.029 388.29 754.879 390.98 755.629 393C759.589 403.77 750.309 418.7 771.759 415.97C773.369 411.47 769.089 410.02 768.439 407.17C767.689 403.83 768.639 399.15 768.289 395.56C767.609 388.78 763.939 384.69 757.239 383.44L763.789 379.97C769.789 375.68 769.689 363.2 766.119 357.61C763.619 353.71 756.519 350.15 752.049 349.54H752.039ZM839.549 415.27L813.609 350.23C812.469 348.86 804.349 349.56 802.169 349.86L775.909 415.27H787.319L793.809 399.07C794.579 397.95 817.479 398.82 820.879 399C822.799 399.95 825.869 412.91 828.129 415.27H839.539H839.549ZM893.509 395.2L858.579 349.54H848.549V415.27H859.619V369.61L894.849 414.28C897.439 416.27 901.439 414.89 904.579 415.27V349.54H893.509V395.2ZM1035.31 349.54H987.579V415.27H1035.31C1035.08 413.58 1036.04 404.89 1034.27 404.89H998.639V386.21H1025.27C1026.83 386.21 1026.83 375.83 1025.27 375.83H998.639V360.26C998.639 360.19 999.599 359.22 999.679 359.22H1035.31V349.53V349.54Z" fill="#99F900"/>
<path d="M935.609 203.56L947.719 275.52L963.709 203.52L978.469 203.6L993.709 274.83L1005.48 203.57H1020.7L1000.31 301.14C999.219 302.24 985.869 302.22 985.049 301.14L970.539 233.32L953.959 301.87C949.999 301.27 944.499 302.53 940.789 301.83C939.979 301.68 939.389 301.6 939.199 300.66L919.699 203.59H935.609V203.56Z" fill="#3EDEBA"/>
<path d="M811.44 203.56C817.61 204.29 824.69 208.02 827.83 213.46C832.33 221.26 833.49 243.01 825.98 249.23L818.02 253.36C826.66 254.75 831.12 262.93 831.84 271.02C832.16 274.55 830.9 287.89 832.83 289.4C833.62 290.02 836.7 290.16 836.7 291.07V301.45C836.7 303.87 823.97 302.11 821.44 300.8C809.75 294.74 821.34 269.31 812.15 261.66C811.19 260.86 806.9 258.9 805.92 258.9H787.59V300.76C787.59 300.83 786.63 301.8 786.55 301.8H771.68V203.56H811.46H811.44ZM787.58 247.84H805.22C806.61 247.84 811.07 245.59 812.17 244.41C816.41 239.89 816.95 222.84 812.15 218.76C811.6 218.29 808.39 216.7 807.98 216.7H787.57V247.83L787.58 247.84Z" fill="#01AD6C"/>
<path d="M877.39 200.96C894.99 200.61 908.39 209.94 910.01 228.13C911.13 240.74 911.05 263.89 910.05 276.57C907.41 309.98 859.57 313.3 849.03 286.36C845 276.05 845.54 243.67 846.4 231.59C847.74 212.68 857.92 201.35 877.4 200.96H877.39ZM877.39 214.8C866.81 215.32 862.99 222.59 862.26 232.25C861.53 241.91 861.12 272.29 863.63 280.05C868.33 294.54 891.28 293.01 893.8 278.32C896.31 263.64 892.54 244 894.14 228.79C893.36 219.56 886.45 214.36 877.39 214.8Z" fill="#01AD6C"/>
<path d="M1155.59 232.62H1140.37C1141.12 220.35 1133.16 212.71 1120.82 214.8C1112.23 216.25 1108.35 226.17 1113.09 233.27C1122.38 247.19 1153.5 247.56 1156.2 270.41C1161.39 314.33 1089.57 315.5 1094.02 271.37H1108.89C1110.08 271.37 1110.1 278.63 1110.66 280.67C1114.48 294.43 1137.87 293.56 1140.2 279.86C1143.05 263.08 1124.54 259.82 1113.61 253.51C1105.18 248.64 1096.88 241.68 1095.59 231.4C1090.47 190.46 1160.53 191.48 1155.58 232.63L1155.59 232.62Z" fill="#3EDEBA"/>
<path d="M1020.7 301.8L1045.63 203.59L1061.88 203.51L1088.49 301.8H1073.62L1066.65 276.16L1041.49 276.23L1034.89 301.8H1020.71H1020.7ZM1063.58 263.06L1054.58 225.7L1044.9 263.06H1063.58Z" fill="#3EDEBA"/>
<path d="M757.831 203.56V217.4H721.511C721.441 217.4 720.471 218.36 720.471 218.44V243H747.451V256.15H721.511C721.441 256.15 720.471 257.11 720.471 257.19V287.29H757.821V301.82H705.591C705.521 301.82 704.551 300.86 704.551 300.78V203.58H757.811L757.831 203.56Z" fill="#01AD6C"/>
<path d="M1290.48 203.56V217.4H1253.12V243H1280.1V256.14H1253.12V287.28H1290.48V301.11H1237.91V203.56H1290.48Z" fill="#3EDEBA"/>
<path d="M692.11 203.56L690.88 211.67C678.94 235.5 664.51 258.17 652.56 281.96C651.72 283.64 650.48 285.28 650.6 287.27H690.03V301.8H629.16L629.69 292.99C641.48 268.79 658.39 245.09 669.65 220.88C670.18 219.73 670.88 218.77 670.66 217.39H631.23V203.55H692.1L692.11 203.56Z" fill="#01AD6C"/>
<path d="M1226.84 203.56V217.4H1203.67C1203.6 217.4 1202.63 218.36 1202.63 218.44V301.12H1187.41V218.44C1187.41 218.37 1186.45 217.4 1186.37 217.4H1163.2V203.56H1226.84Z" fill="#3EDEBA"/>
<path d="M727.49 379.289V359.229H748.59C748.84 359.229 752.17 360.429 752.65 360.699C759.95 364.869 756.92 379.289 748.59 379.289H727.49Z" fill="#99F900"/>
<path d="M817.41 389.669H797.35L807.05 364.069L817.41 389.669Z" fill="#99F900"/>
<path d="M292.415 0.0425015C341.827 1.40998 394.635 17.6577 437.153 46.3552C437.843 46.8284 438.319 47.214 439.097 47.6514C439.784 48.0435 440.432 48.4745 441.041 48.9476C441.306 49.0934 441.663 49.3883 442.013 49.5957L450.109 55.4253C450.617 55.8012 451.191 56.3067 451.729 56.7215L458.853 62.227C458.966 62.3275 459.063 62.4506 459.177 62.5511L464.681 67.0845C464.995 67.3988 465.348 67.7391 465.653 68.0566L467.273 69.3528C467.376 69.4662 467.493 69.5635 467.597 69.6769L470.188 71.9452C470.402 72.1753 470.632 72.3762 470.836 72.5933L473.752 75.1857C474.186 75.6523 474.63 76.0444 475.048 76.4819L486.381 87.817C486.818 88.2383 487.22 88.6822 487.677 89.1132L490.913 92.6745C491.023 92.7782 491.124 92.8948 491.237 92.9985L493.181 95.2668C493.388 95.4613 493.618 95.7075 493.829 95.9149L497.065 99.8003C497.276 100.021 497.516 100.234 497.713 100.448C505.187 109.392 512.324 118.987 518.762 129.272C518.976 129.596 519.196 129.92 519.41 130.244C523.096 135.886 526.443 141.716 529.446 147.733C529.524 148.031 529.767 148.349 529.77 148.705L529.054 149.337L522.701 149.172C520.326 148.848 518.619 149.305 517.586 150.549L473.626 306.396C473.25 307.449 472.78 308.71 471.588 307.582L430.845 149.823L347.361 150.053L306.748 305.226C305.578 306.898 304.308 304.808 303.936 303.373C293.222 261.966 282.035 220.709 270.728 179.461C269.355 174.451 268.026 169.428 267.489 164.25L266.731 163.842C266.096 158.793 264.907 154.068 263.164 149.665H178.639C172.85 149.593 167.064 149.383 161.281 149.029C125.031 150.066 88.7141 149.82 52.4454 149.48C46.4066 149.425 40.3775 149.068 34.3516 148.705C71.4399 78.0535 139.124 25.869 216.9 7.58631C242.054 1.67246 266.585 -0.326912 292.415 0.0425015Z" fill="#98F700"/>
<path d="M529.76 148.696C529.867 148.696 529.977 148.696 530.084 148.696C530.59 148.832 530.914 149.049 531.056 149.344L532.048 150.319C538.773 164.59 545.36 178.945 550.313 194.584C555.798 211.895 559.598 229.743 561.753 247.773C562.909 257.459 564.079 267.598 563.11 277.271C563.625 278.123 563.619 279.332 563.11 280.184L562.453 284.27L516.037 426.073L515.668 426.676C485.172 427.11 453.19 426.951 422.658 426.679C408.507 379.615 394.541 332.427 380.759 285.119L379.739 287.504C373.716 307.829 367.123 328.13 359.96 348.402L359.111 349.809C358.706 350.554 358.168 350.078 357.883 349.78C313.392 349.883 268.898 349.906 224.41 349.161C224.228 349.78 223.947 349.78 223.762 349.161C223.049 347.722 222.366 346.26 221.902 344.721C214.37 319.572 206.462 294.575 198.032 269.704C197.617 268.146 197.345 266.564 197.212 264.957C196.286 264.938 196.328 264.205 197.212 263.985L197.29 262.75C220.438 229.892 243.579 197.037 266.717 164.192L267.479 164.234C279.155 210.673 293.254 256.61 304.548 303.175C304.82 303.979 305.238 305.006 306.009 305.434L346.855 149.376L431.344 149.153L472.284 307.699L472.936 306.406L516.97 150.303C517.297 149.243 518.234 148.858 519.267 148.712C522.371 148.278 526.699 148.634 529.76 148.683V148.696Z" fill="#4BF8A1"/>
<path d="M535.914 402.601C535.817 402.815 535.694 403.026 535.59 403.249C534.748 405.518 533.624 407.669 532.354 409.727C532.169 410.126 531.936 410.515 531.706 411.023L529.438 415.233C529.344 415.44 529.218 415.66 529.114 415.881C525.683 422.171 522.013 428.324 518.106 434.342C516.298 437.054 514.406 439.721 512.601 442.44L510.981 444.708C510.159 445.797 509.488 446.847 508.714 447.945C508.286 448.289 507.939 448.723 507.742 449.241C507.645 449.355 507.512 449.446 507.418 449.565L502.237 456.367C502.131 456.477 502.024 456.588 501.913 456.691L500.942 457.987C500.828 458.091 500.728 458.205 500.618 458.311L496.085 463.817C495.875 464.024 495.641 464.277 495.437 464.465L493.817 466.409C493.704 466.513 493.604 466.63 493.493 466.733L487.989 472.887C487.772 473.101 487.555 473.321 487.341 473.535L486.369 474.507C486.259 474.614 486.155 474.724 486.045 474.831L475.685 485.194C475.263 485.632 474.82 486.034 474.389 486.491L470.828 489.728C470.637 489.932 470.414 490.123 470.18 490.376L468.561 491.672C468.243 491.999 467.913 492.307 467.589 492.644L463.38 496.205C463.273 496.316 463.16 496.416 463.056 496.53L461.76 497.502C461.55 497.722 461.329 497.91 461.112 498.15L459.816 499.122C459.716 499.235 459.599 499.336 459.493 499.446L456.577 501.714C456.463 501.815 456.369 501.941 456.253 502.038C455.734 502.23 455.291 502.567 454.957 503.01C454.439 503.448 453.872 503.882 453.337 504.307L449.453 507.22C448.704 507.761 447.936 508.299 447.185 508.84C446.56 509.543 445.805 510.127 444.917 510.46C443.407 511.533 441.849 512.57 440.385 513.698L438.765 514.67C438.651 514.77 438.557 514.896 438.441 514.994L434.88 517.262C434.255 517.716 433.571 518.114 432.937 518.558C429.454 520.83 425.935 523.085 422.252 525.036C422.035 525.136 421.824 525.269 421.604 525.36L419.984 526.332C419.543 526.53 419.122 526.773 418.688 526.98C415.954 528.62 413.194 530.23 410.268 531.514C410.054 531.627 409.834 531.724 409.62 531.838C409.102 532.382 408.396 532.645 407.676 532.81C407.463 532.923 407.242 533.02 407.028 533.134C406.513 533.681 405.801 533.941 405.085 534.106C404.871 534.219 404.65 534.317 404.437 534.43L399.58 536.698C399.366 536.812 399.146 536.912 398.932 537.022C393.917 538.847 389.097 541.167 384.117 543.095C355.3 554.258 323.077 561.238 292.077 561.961C291.322 561.977 290.564 561.948 289.809 561.961C288.947 561.977 288.079 561.948 287.217 561.961C283.345 562.013 279.432 562.013 275.56 561.961C274.699 561.948 273.83 561.977 272.969 561.961C272.321 561.948 271.673 561.974 271.025 561.961C269.518 561.929 267.996 562.019 266.492 561.961C248.518 561.248 229.019 558.034 211.634 553.516C141.488 535.292 78.313 488.918 41.7754 426.263C110.739 425.314 179.72 425.343 248.684 426.263L255.228 425.826C282.202 425.599 308.852 425.534 335.175 425.631C342.918 401.94 350.476 377.329 357.736 353.1L359.1 349.834C363.082 335.569 368.699 321.301 373.254 307.153C375.36 300.617 377.171 291.81 379.731 285.779C379.857 285.478 380.557 283.553 381.114 284.091L422.932 426.221L515.284 426.276L563.096 280.199C563.676 289.979 562.901 299.927 561.894 309.694C558.586 341.83 549.897 373.492 535.895 402.618L535.914 402.601Z" fill="#98F800"/>
<path d="M34.3497 148.696C76.5504 149.039 118.984 149.036 161.279 149.02C161.71 149.635 161.93 150.468 161.94 151.521C172.65 187.053 184.061 223.006 196.167 259.383L197.22 263.988V264.96L197.165 266.188L140.901 348.386C168.332 348.542 195.821 348.584 223.371 348.516L223.773 349.164C223.99 349.164 224.204 349.164 224.421 349.164L225.147 349.355C233.175 374.789 241.193 400.224 249.202 425.665L248.706 426.242C179.729 426.323 110.768 426.287 41.7979 426.242C28.204 426.232 14.5939 426.248 1 426.242V410.859C1 410.204 5.95678 402.917 6.75699 401.718C10.392 396.28 15.961 389.945 18.9513 384.443C19.3854 383.642 19.6511 382.074 19.7807 381.873L21.5917 378.263C30.8508 363.529 40.4534 349.012 50.4026 334.718C76.5147 297.433 102.021 259.769 127.048 221.752C127.21 221.506 127.644 220.093 127.524 219.944H8.84985L8.44489 219.292V148.689C17.0723 148.744 25.7191 148.621 34.3497 148.689V148.696Z" fill="#01AC6B"/>
<path d="M8.44291 219.295H128.572L127.61 222.056C93.0807 276.23 54.4632 327.831 19.7755 381.872C3.08765 339.549 -2.10239 292.886 2.94186 247.636C3.99153 238.219 5.36517 228.235 8.44291 219.295Z" fill="#98F800"/>
<path d="M267.486 164.24L197.223 263.988C188.952 238.651 180.376 213.382 172.381 187.954C168.879 176.82 165.198 165.433 162.091 154.201C161.657 152.636 160.663 150.53 161.281 149.02C181.539 149.013 201.768 148.978 221.978 149.036C235.691 149.075 249.405 148.974 263.116 149.02C263.401 149.016 263.569 149.165 263.767 149.34C265.231 150.643 266.822 161.606 267.486 164.243V164.24Z" fill="#01E5C4"/>
<path d="M224.416 349.164C268.94 349.17 313.47 349.157 358 349.164L359.117 349.812C352.819 372.372 345.799 395.049 338.487 417.431C337.541 420.328 336.549 423.238 335.493 426.096C323.995 426.4 312.485 426.206 300.98 426.232C283.599 426.271 266.147 426.226 248.701 426.245L224.416 349.167V349.164Z" fill="#01E5C4"/>
<path d="M531.059 149.344C532.727 149.522 534.69 149.26 536.414 149.331C552.088 149.986 567.645 149.953 583.338 149.655C590.096 149.526 596.867 149.876 603.586 149.023L563.112 277.271C562.503 239.465 554.164 200.054 538.562 165.644C536.1 160.213 532.785 155.106 531.059 149.347V149.344Z" fill="#3EDDB9"/>
<path d="M223.77 349.163H139.582L197.217 264.96C206.006 293.035 216.305 320.69 223.77 349.163Z" fill="#98F800"/>
</g>
<defs>
<clipPath id="clip0_716_245">
<rect width="1289.98" height="561.51" fill="white" transform="translate(0.5 0.5)"/>
</clipPath>
</defs>
</svg>
