<?xml version="1.0" encoding="UTF-8"?>
<svg id="Capa_2" xmlns="http://www.w3.org/2000/svg" version="1.1" viewBox="0 0 1136 397.3">
  <defs>
    <style>
      .st0 {
        fill: #231f20;
      }

      .st1 {
        fill: #00af40;
      }
    </style>
  </defs>
  <g id="Capa_1-2">
    <g>
      <path class="st1" d="M204.1,397.3h-15.7l-9.8-1C91.1,384.2,14,310.7,1.8,222.6L.1,205.5c.3-6.6-.3-13.5,0-20.1C4.7,98.3,57.1,31.5,141.1,8.1c54.2-15.1,131.1-10.8,174.3,28.8,11.1,10.2,18.3,18.5,21,33.9.8,4.3.9,15,2.4,18,1.4,2.8,7.9,8.9,10.3,11.8,37,44.4,51.7,94.4,35.5,151.5-21.6,76-101.1,141-180.5,145.3h0ZM222.4,79.6c-72.2,3.8-138,66.9-132,141.4,3.6,44.9,29.2,91.9,73.1,108.1,77.4,28.7,171.8-43.8,181.4-121.5,4.7-38.7-10.7-87.2-48.8-103.6-5.6-2.4-11.6-3.9-17.2-6.6s-10.6-6.5-16-9.4c-13.9-7.4-24.6-9.4-40.4-8.5h0Z"/>
      <path class="st0" d="M917.6,120.3h-25.8v-39.9c0-.6-.8-2.8-1.2-3.5-2.7-5.5-10.3-5.8-14-1.3-1.4,1.8-2.9,5.9-2.9,8.2v36.6h-25.8v-41.6c0-.5-1.2-2.6-1.5-3.2-4.2-5.8-12.8-3.4-15.1,2.9-.3.8-1.1,3.6-1.1,4.3v37.6h-25.8V53.8h23.6s.5.5.5.5v8.5c5.1-5.2,10.9-9.7,18.6-10.4,10.4-.8,19,1.1,24.4,10.7,4.7-4.2,8.5-8.3,14.8-9.9,18-4.5,31.2,5.2,31.2,23.8v43.3h0Z"/>
      <path class="st0" d="M802.6,120.3h-29.6l-5.1-15h-31.4c0,0-.5.2-.5.2l-4.3,14.8h-29.1l34.9-91.9,30.6.5,34.4,91.4h0ZM762.1,85.2l-9.9-32.4-9.9,32.4h19.7,0Z"/>
      <path class="st0" d="M1028.3,70.1l-23.8,2.3c-1.9-5.8-8.5-7.6-14-6.3-4,1-6.9,5.3-2.9,8.1,3.2,2.3,14.6,2.8,19.1,3.6,10,1.8,22,5.6,23.9,17.3,2.4,15.3-10.2,24.1-23.8,26-15.5,2.2-40.6,1.5-46-16.7-.3-1-1.2-2.8.3-2.9l24.3-2c1.2,2.2,2.2,4.7,4.3,6.2,3.6,2.6,10.5,2.7,14.4.7,4.5-2.3,4.7-7.2-.1-9.3-12.6-5.3-34.1-1.4-39.9-17.9-4.1-11.6,3.3-21.6,14.3-25,9-2.8,29.7-3,38.2,1.2,5.5,2.7,10.5,8.8,11.9,14.7Z"/>
      <rect class="st0" x="928" y="53.8" width="25.8" height="66.5"/>
      <rect class="st0" x="928" y="28.4" width="25.8" height="17.7"/>
      <path class="st0" d="M469.9,97.5h44.1v22.7h-72.9V28.9s.5-.5.5-.5h27.8s.5.5.5.5v68.7Z"/>
      <path class="st0" d="M663.8,70.1l-24.2,2.4c-1-6.9-14.3-8.9-17.7-4-3.5,5,2.8,6.8,6.4,7.6,14,2.9,39,2.4,37.9,23.7-1.2,23.9-37,24.9-53.8,20-8.8-2.5-15.2-8.8-16.9-17.9l.7-.3,24.1-2c.9.2,1.9,3,2.6,4.1,1.4,2,3.5,3.3,5.9,3.8,4,.9,12.3.3,13.7-4.4,1.6-5.4-4.9-6.5-8.7-7.3-12.6-2.9-32.4-2.9-35.4-19.1-4.5-24.7,30.1-26.5,46.4-23.3,9.5,1.9,15.9,7.8,19,16.9h0Z"/>
      <path class="st0" d="M593.6,93.5h-50.8c-.3,11.1,11.9,17.2,20.8,10.6,1.3-.9,2.6-3.1,4-3.3,7.8.8,16,1,23.8,2,.5,0,.6-.2.5.5-.2,1.4-4.7,7-5.8,8.2-10.9,11.3-34,12.8-48.2,8.1-25.3-8.2-28.8-46.8-7.2-61.2,12.1-8,35.3-8.4,47.7-1,12.8,7.6,15.9,22.1,15.3,36h0ZM567.5,81.2c-.1-18.5-24.5-18.1-24.7,0h24.7Z"/>
      <path class="st0" d="M511.7,307.4h-41.8v15.7h35.3s.5.5.5.5v18.2h-35.8v37.4h-28.4v-91.9h69.7s.5.5.5.5v19.5h0Z"/>
      <path class="st0" d="M642.4,379.3h-24.1c-1.1-2.5-2.3-4.9-2.5-7.7-2.4,1.6-4.4,3.6-7,5.1-13.6,7.6-41.6,6.4-43-13.6-1.6-21.8,25-21.1,39.9-25.3,1.1-.3,8.1-2.5,8.4-3,.7-1.1-.6-5.2-1.5-6.2-2.8-3.2-12.1-2.3-15.6-.6-1.8.9-2.7,2.3-3.7,4-.5.8-.5,2.4-1.6,2.5l-23.9-2.7c1.4-7.9,5.7-14.2,13.3-17.3,9.7-4.1,31.9-4.1,42.1-1.4,26.1,7.1,12.1,41.8,17.1,60.5.5,2,1.5,3.8,2.2,5.7h0ZM614.3,347.9c-5.9,3.1-27.4,4.1-22,15.2,3,6.2,13.8,3.4,18-.3,1.8-1.5,4-5.4,4-7.7v-7.2h0Z"/>
      <path class="st0" d="M719.7,379.3h-25.8v-37.9c0-.9-.5-3.5-.8-4.5-2.4-7.8-13.7-6.9-16.8.2-.4.9-1.4,4.4-1.4,5.3v36.9h-25.8v-66.5h23.7v10.4c.8.2.6-.2.8-.4,5.2-5.9,10.8-10.6,19.1-11.3,15-1.2,24.8,4.8,26.6,20.2.7,15.8.2,31.8.3,47.6h0Z"/>
      <path class="st0" d="M801.6,334.5l-23.5,3c-1.5-3-2.5-5.7-5.8-7.3-5.2-2.5-12.6-1.5-16.5,2.8-4.4,4.8-5,15.3-3.2,21.2,3.6,11.6,19.3,12.8,25,2.2.5-.9.8-3.1,1.8-3.2l23.6,2.7c-2.3,12.4-12.2,21.3-24.4,23.9-21.9,4.6-49.2-1.6-52.1-27.5-2.2-19.4,6.7-36.3,26.7-40.1,10.7-2,27.4-1.4,36.7,4.8,5.5,3.7,10.8,10.8,11.8,17.5h0Z"/>
      <path class="st0" d="M541.5,379.3h-25.8v-66.5h23.7v10.4c2.1-3,3.6-6.3,6.5-8.7,5.1-4.2,13.1-3.7,18.9-1.2.7.3,3,1.2,3,2-1.4,2.2-6.6,16.7-7.7,17.4-.6.4-5.4-1.5-6.9-1.5-6.8-.3-9.5,5.6-10.8,11.3-2.5,11.7-.4,24.9-1.1,36.8h0Z"/>
      <path class="st0" d="M883.2,352.5h-50.8c-.2,10.9,11.8,17.1,20.7,10.8,1.3-.9,2.6-3.3,4.2-3.5,8,.8,16.1,1,24.1,2,.5,0,.6-.2.5.5-5.6,9.4-12.8,15.3-23.7,17.4-28.7,5.4-54.7-5.4-51.8-38.4,2.4-26.9,31.3-34.5,53.9-28.2,18.1,5.1,24.2,21.9,23,39.3h0ZM832.3,340.2h24.7c0-18.5-24.4-18-24.7,0Z"/>
      <path class="st0" d="M873.5,158v22.7h-28.8v68.7s-.5.5-.5.5h-27.8s-.5-.5-.5-.5v-68.7h-28.8v-22.7h86.3Z"/>
      <path class="st0" d="M1135.9,222.9h-50.8c0,12.5,13,17.6,22.3,9.6.7-.6,1.3-2.3,2.6-2.2,7.4,1.1,15,1.2,22.4,2,.5,0,2,.1,1.8.8-.4,1.3-4.1,6-5.2,7.2-10.7,11.9-32,13.3-46.7,9.6-29-7.4-32-51.2-5.5-64.1,11.6-5.6,32-5.3,43.2,1,13.1,7.4,16.4,22,15.8,36.2h0ZM1109.9,210.5c-.7-6.7-3.4-12.8-10.8-13.4-8.7-.6-13.7,5.1-13.9,13.4h24.7Z"/>
      <path class="st0" d="M945.4,222.9h-50.8c-.4,12.2,13.4,17.7,22.2,9.7.8-.8,1.2-2.4,2.7-2.4,7.4,1.1,15,1.2,22.4,2,.5,0,2,.1,1.8.8-.8,3-7.4,9.8-10,11.7-10,7.4-30.1,8.1-41.8,5.1-27.8-7.1-32-48.5-8.1-62.7,13.7-8.1,39.5-7.6,51.4,3.6,8.7,8.2,10.6,20.6,10.2,32.1h0ZM919.3,210.5c-.2-18.2-24.5-17.8-24.7,0h24.7Z"/>
      <path class="st0" d="M1032.6,193.8l3.1-5.1c5.7-9.1,17.1-8.1,25.4-3.4l-7.7,18.2c-4.5-1.4-8.9-3.1-13,.2-5.1,4.1-5.8,15.6-6,21.7-.3,8.2.3,16.4,0,24.6h-25.2s-.5-.5-.5-.5v-66h24.1v10.4h0Z"/>
      <path class="st0" d="M975.8,193.4l2.7-4.4c6.6-9.5,16.3-8.5,25.7-3.7l-7.7,18.2c-3.5-1.1-6.7-2.4-10.5-1.3-7.3,2.2-8.2,15.3-8.5,21.5-.4,8.6.3,17.6,0,26.2h-25.8v-66.5h24.1v10h0Z"/>
      <path class="st0" d="M747.8,249.9h-23.6c-1.6-2.4-2.7-5.1-2.8-8-7.9,7.9-18.7,10.1-29.6,9.4-13.4-.9-23-10.7-19.8-24.5,1.9-8.3,9.1-11.5,16.5-13.5,10.3-2.8,21.4-3.4,31.2-8,.6-8-5.4-8.7-11.8-8.1-5.4.5-8.2,2.7-10.1,7.7l-24.2-2.4c.7-7.2,5-13.5,11.5-16.8,9.4-4.8,27.4-4.5,37.8-3.2,33.6,4.1,17.6,39.1,22.8,61.1.5,2.2,1.8,4.1,2.2,6.4h0ZM720,218.5c-.5,0-.9,0-1.3.1-4,.9-10.8,3-14.6,4.4-4.2,1.6-8.2,4-6.7,9.3,2.3,8,15.5,4.7,19.7-.3,3.1-3.7,2.9-9,3-13.5h0Z"/>
      <rect class="st0" x="638.1" y="158" width="25.8" height="91.9"/>
      <path class="st0" d="M509.7,158v91.9h-23.6s-.5-.5-.5-.5v-8.9c-3.9,4.3-7.5,8-13.2,9.7-39.2,11.4-48.5-54.9-18.2-66.7,8.5-3.3,19.4-2.2,26.7,3.4,1,.8,1.8,2.2,3,2.5v-31.4h25.8,0ZM471.5,200.9c-14.8,1.6-12.5,37.4,5,31.1,11.6-4.2,10.4-32.7-5-31.1Z"/>
      <path class="st0" d="M593.6,222.9h-50.8c-.3,12.2,13.4,17.7,22.2,9.7.9-.8,1.2-2.4,2.7-2.4,7.4,1.1,15,1.2,22.4,2,.5,0,2,.1,1.8.8-.7,2.4-6.4,8.8-8.5,10.6-10.1,8.5-29.3,9.2-41.7,6.6-31.2-6.6-34.3-52.8-5.5-65.1,12.3-5.3,33.4-4.5,44.5,3.5s13.5,21.7,12.9,34.4h0ZM567.5,210.5c-.2-18.2-24.4-17.8-24.7,0h24.7Z"/>
    </g>
  </g>
</svg>
