<?xml version="1.0" encoding="UTF-8"?>
<svg id="Capa_2" data-name="Capa 2" xmlns="http://www.w3.org/2000/svg" viewBox="0 0 1136.01 397.32">
  <defs>
    <style>
      .cls-1 {
        fill: #030370;
      }
    </style>
  </defs>
  <g id="Capa_1-2" data-name="Capa 1">
    <g>
      <path class="cls-1" d="M204.07,397.32h-15.72l-9.82-1.05C91.12,384.18,14,310.7,1.83,222.64L.11,205.48c.26-6.61-.35-13.48,0-20.05C4.74,98.26,57.09,31.48,141.14,8.05c54.18-15.1,131.1-10.82,174.28,28.81,11.11,10.2,18.26,18.49,20.96,33.87.75,4.28.9,14.97,2.37,18.01,1.39,2.85,7.86,8.88,10.28,11.79,36.97,44.39,51.73,94.38,35.51,151.48-21.6,76.04-101.14,140.97-180.46,145.31ZM222.39,79.58c-72.24,3.77-137.97,66.91-132,141.44,3.59,44.89,29.24,91.91,73.05,108.13,77.43,28.66,171.82-43.82,181.36-121.54,4.74-38.67-10.69-87.22-48.79-103.55-5.62-2.41-11.64-3.95-17.16-6.58s-10.64-6.48-16.04-9.37c-13.88-7.44-24.6-9.36-40.42-8.53Z"/>
      <path class="cls-1" d="M917.61,120.26h-25.75v-39.94c0-.58-.84-2.85-1.16-3.52-2.66-5.53-10.33-5.83-14.03-1.29-1.44,1.77-2.87,5.93-2.87,8.16v36.6h-25.75v-41.61c0-.47-1.15-2.61-1.53-3.15-4.19-5.83-12.75-3.39-15.11,2.89-.29.76-1.08,3.63-1.08,4.27v37.6h-25.75V53.75h23.57s.5.47.5.5v8.52c5.12-5.23,10.93-9.73,18.56-10.36,10.43-.85,19.02,1.14,24.41,10.69,4.67-4.16,8.46-8.34,14.8-9.93,18.01-4.51,31.24,5.18,31.18,23.78v43.29Z"/>
      <path class="cls-1" d="M802.59,120.26h-29.59l-5.06-14.99-31.4-.07-.53.22-4.31,14.85h-29.09l34.93-91.93,30.63.5,34.42,91.43ZM762.13,85.16l-9.86-32.42-9.86,32.42h19.73Z"/>
      <path class="cls-1" d="M1028.28,70.12l-23.85,2.35c-1.92-5.79-8.49-7.64-14.01-6.27-3.95.98-6.86,5.28-2.91,8.07,3.23,2.28,14.61,2.84,19.1,3.64,9.99,1.77,22.05,5.59,23.86,17.26,2.39,15.35-10.19,24.12-23.8,26.04-15.46,2.17-40.61,1.51-46.02-16.74-.29-.98-1.15-2.76.26-2.93l24.35-2.02c1.2,2.18,2.15,4.66,4.26,6.18,3.59,2.58,10.5,2.68,14.37.71,4.48-2.29,4.7-7.24-.13-9.27-12.59-5.3-34.14-1.43-39.93-17.9-4.09-11.62,3.33-21.59,14.29-24.99,9.03-2.8,29.7-2.97,38.25,1.21,5.47,2.68,10.46,8.77,11.91,14.66Z"/>
      <rect class="cls-1" x="927.97" y="53.75" width="25.75" height="66.51"/>
      <rect class="cls-1" x="927.97" y="28.35" width="25.75" height="17.71"/>
      <path class="cls-1" d="M469.89,97.53h44.14v22.73h-72.89V28.85s.47-.5.5-.5h27.75s.5.47.5.5v68.68Z"/>
      <path class="cls-1" d="M663.83,70.12l-24.2,2.36c-1.03-6.86-14.27-8.94-17.73-4.01-3.48,4.96,2.76,6.82,6.43,7.56,14.03,2.86,38.95,2.4,37.86,23.68-1.22,23.93-36.99,24.87-53.84,20.04-8.82-2.53-15.23-8.82-16.91-17.89l.69-.32,24.08-2c.89.17,1.89,3.03,2.63,4.05,1.43,1.98,3.48,3.29,5.88,3.82,3.97.88,12.26.33,13.7-4.4,1.63-5.37-4.93-6.47-8.66-7.32-12.57-2.87-32.44-2.92-35.36-19.13-4.45-24.72,30.14-26.52,46.41-23.33,9.54,1.87,15.88,7.81,19.04,16.89Z"/>
      <path class="cls-1" d="M593.61,93.52h-50.82c-.26,11.08,11.93,17.17,20.84,10.64,1.28-.94,2.63-3.11,4.05-3.3,7.83.78,15.99,1,23.77,2.02.45.06.6-.17.5.5-.2,1.36-4.68,6.97-5.85,8.19-10.92,11.32-33.98,12.76-48.25,8.11-25.27-8.23-28.8-46.83-7.2-61.19,12.08-8.03,35.27-8.37,47.69-1,12.76,7.58,15.92,22.07,15.28,36.03ZM567.53,81.15c-.14-18.5-24.49-18.06-24.74,0h24.74Z"/>
      <path class="cls-1" d="M511.69,307.42h-41.8v15.71h35.28s.5.47.5.5v18.21h-35.78v37.43h-28.42v-91.91h69.72s.5.47.5.5v19.55Z"/>
      <path class="cls-1" d="M642.43,379.27h-24.07c-1.11-2.49-2.32-4.9-2.51-7.69-2.37,1.63-4.43,3.65-6.96,5.07-13.6,7.65-41.6,6.35-43.04-13.58-1.57-21.8,25.03-21.12,39.94-25.27,1.14-.32,8.09-2.47,8.39-2.97.69-1.14-.62-5.2-1.51-6.19-2.81-3.16-12.1-2.28-15.61-.56-1.79.88-2.73,2.31-3.73,3.96-.48.79-.52,2.38-1.56,2.46l-23.91-2.69c1.4-7.93,5.73-14.17,13.26-17.33,9.71-4.08,31.92-4.1,42.06-1.36,26.07,7.06,12.1,41.76,17.08,60.46.53,1.97,1.53,3.76,2.17,5.69ZM614.34,347.86c-5.9,3.06-27.44,4.06-22.03,15.16,3.01,6.18,13.8,3.4,18.02-.29,1.75-1.53,4.01-5.4,4.01-7.69v-7.19Z"/>
      <path class="cls-1" d="M719.66,379.27h-25.75v-37.93c0-.94-.54-3.49-.85-4.5-2.41-7.81-13.68-6.9-16.79.23-.4.9-1.41,4.44-1.41,5.27v36.93h-25.75v-66.51h23.74v10.36c.79.21.56-.2.76-.43,5.25-5.93,10.82-10.58,19.14-11.26,15-1.23,24.77,4.84,26.57,20.22.74,15.83.15,31.76.34,47.62Z"/>
      <path class="cls-1" d="M801.58,334.49l-23.53,2.98c-1.48-3.04-2.52-5.74-5.77-7.28-5.17-2.45-12.56-1.53-16.51,2.8-4.36,4.78-5.02,15.33-3.18,21.22,3.64,11.65,19.26,12.84,24.97,2.23.47-.87.78-3.14,1.79-3.25l23.57,2.69c-2.33,12.4-12.2,21.33-24.41,23.9-21.86,4.6-49.17-1.65-52.12-27.45-2.23-19.44,6.65-36.26,26.7-40.07,10.69-2.03,27.37-1.41,36.7,4.78,5.55,3.69,10.77,10.84,11.8,17.45Z"/>
      <path class="cls-1" d="M541.45,379.27h-25.75v-66.51h23.74v10.36c2.14-3.03,3.57-6.27,6.51-8.7,5.13-4.23,13.06-3.66,18.89-1.16.72.31,3,1.2,3.02,1.99-1.38,2.17-6.57,16.71-7.69,17.41-.62.39-5.4-1.45-6.87-1.52-6.83-.31-9.53,5.61-10.75,11.31-2.49,11.67-.42,24.89-1.11,36.83Z"/>
      <path class="cls-1" d="M883.17,352.53h-50.82c-.21,10.9,11.84,17.15,20.71,10.84,1.33-.94,2.64-3.29,4.18-3.5,8,.79,16.12,1.04,24.1,2.02.47.06.58-.18.49.5-5.63,9.43-12.76,15.34-23.73,17.39-28.67,5.37-54.68-5.42-51.79-38.4,2.36-26.9,31.3-34.51,53.86-28.19,18.14,5.08,24.17,21.86,23,39.34ZM832.34,340.17h24.74c.08-18.51-24.42-18.02-24.74,0Z"/>
      <path class="cls-1" d="M873.47,158.02v22.73h-28.76v68.68s-.47.5-.5.5h-27.75s-.5-.47-.5-.5v-68.68h-28.76v-22.73h86.27Z"/>
      <path class="cls-1" d="M1135.95,222.86h-50.82c-.08,12.5,13,17.61,22.28,9.57.74-.64,1.26-2.3,2.62-2.25,7.42,1.08,14.97,1.16,22.4,2.04.47.06,2.02.14,1.82.81-.39,1.34-4.05,5.98-5.16,7.21-10.7,11.85-32.01,13.33-46.72,9.59-29-7.39-32-51.2-5.51-64.13,11.56-5.64,32.03-5.34,43.25,1.01,13.08,7.4,16.38,22.04,15.82,36.15ZM1109.87,210.49c-.65-6.67-3.38-12.83-10.85-13.38-8.66-.65-13.65,5.07-13.89,13.38h24.74Z"/>
      <path class="cls-1" d="M945.36,222.86h-50.82c-.38,12.23,13.38,17.71,22.23,9.69.83-.75,1.24-2.36,2.67-2.37,7.42,1.05,14.97,1.17,22.4,2.04.48.06,1.99.13,1.81.8-.81,2.99-7.41,9.77-10.03,11.71-10.01,7.43-30.1,8.1-41.84,5.11-27.76-7.07-31.98-48.47-8.06-62.67,13.67-8.11,39.5-7.58,51.44,3.6,8.71,8.16,10.58,20.65,10.19,32.09ZM919.28,210.49c-.2-18.22-24.55-17.84-24.74,0h24.74Z"/>
      <path class="cls-1" d="M1032.63,193.78l3.07-5.12c5.65-9.07,17.11-8.07,25.38-3.37l-7.74,18.16c-4.47-1.44-8.9-3.08-13.02.19-5.14,4.07-5.79,15.57-6.03,21.71-.32,8.17.27,16.41.01,24.58h-25.24s-.5-.47-.5-.5v-66.01h24.07v10.36Z"/>
      <path class="cls-1" d="M975.79,193.45l2.74-4.45c6.62-9.47,16.32-8.54,25.7-3.72l-7.73,18.17c-3.54-1.06-6.71-2.42-10.49-1.3-7.28,2.17-8.25,15.26-8.54,21.54-.4,8.64.29,17.57,0,26.23h-25.75v-66.51h24.07v10.03Z"/>
      <path class="cls-1" d="M747.75,249.93h-23.57c-1.64-2.35-2.73-5.12-2.85-8.02-7.92,7.85-18.68,10.12-29.6,9.37-13.44-.92-23-10.66-19.78-24.48,1.92-8.26,9.07-11.53,16.55-13.54,10.33-2.78,21.37-3.44,31.18-8.01.59-7.96-5.4-8.71-11.84-8.09-5.38.52-8.17,2.68-10.13,7.66l-24.19-2.35c.74-7.23,5-13.47,11.48-16.77,9.44-4.81,27.38-4.51,37.8-3.24,33.59,4.1,17.6,39.11,22.78,61.12.51,2.18,1.77,4.14,2.18,6.35ZM720,218.51c-.47-.06-.9.05-1.35.15-3.95.88-10.8,2.99-14.62,4.44-4.2,1.59-8.24,3.98-6.74,9.26,2.26,8,15.53,4.67,19.7-.32,3.09-3.7,2.94-8.99,3.02-13.53Z"/>
      <rect class="cls-1" x="638.08" y="158.02" width="25.75" height="91.91"/>
      <path class="cls-1" d="M509.68,158.02v91.91h-23.57s-.5-.47-.5-.5v-8.86c-3.86,4.31-7.49,8-13.23,9.67-39.23,11.41-48.5-54.95-18.2-66.65,8.55-3.3,19.36-2.22,26.72,3.36,1.03.78,1.78,2.21,3.04,2.48v-31.42h25.75ZM471.49,200.9c-14.8,1.57-12.49,37.44,4.98,31.05,11.59-4.24,10.37-32.68-4.98-31.05Z"/>
      <path class="cls-1" d="M593.61,222.86h-50.82c-.32,12.23,13.41,17.7,22.25,9.71.91-.82,1.24-2.35,2.66-2.39,7.42,1.05,14.97,1.17,22.4,2.04.48.06,1.99.13,1.81.8-.65,2.41-6.44,8.81-8.5,10.56-10.08,8.5-29.3,9.21-41.68,6.59-31.2-6.59-34.29-52.85-5.51-65.13,12.33-5.26,33.37-4.53,44.47,3.46s13.47,21.68,12.93,34.37ZM567.53,210.49c-.19-18.25-24.43-17.81-24.74,0h24.74Z"/>
    </g>
  </g>
</svg>