<svg width="254" height="166" viewBox="0 0 254 166" fill="none" xmlns="http://www.w3.org/2000/svg">
<path d="M75.3595 46.239V130.232H53.3553V97.5849H22.9544V130.232H0.950195V46.239H22.9544V78.8865H53.3255V46.239H75.3595Z" fill="#E83D3E"/>
<path d="M221.2 46.239C243.919 46.239 253.745 60.0387 253.745 75.8697C253.745 94.12 242.728 106.337 219.89 106.337H204.467V130.203H182.343V46.239H221.23H221.2ZM219.414 87.2799C226.471 87.2799 231.503 83.6656 231.503 75.9891C231.503 69.5074 226.947 65.2958 219.414 65.2958H204.467V87.25H219.414V87.2799Z" fill="#E83D3E"/>
<path d="M128.717 131.547C104.212 131.547 86.1383 113.416 86.1383 88.2357C86.1383 63.0556 104.212 44.9247 128.717 44.9247C153.223 44.9247 171.535 63.0556 171.535 88.2357C171.535 113.416 153.461 131.547 128.717 131.547ZM128.717 65.9231C116.748 65.9231 108.619 75.1528 108.619 88.2357C108.619 101.319 116.748 110.548 128.717 110.548C140.687 110.548 149.054 101.319 149.054 88.2357C149.054 75.1528 140.925 65.9231 128.717 65.9231Z" fill="#E83D3E"/>
<path d="M109.244 30.4678C102.753 23.8068 96.6491 16.2498 91.349 8.03566L83.518 13.6213C89.4433 23.0302 94.803 29.0938 103.17 36.6209L109.214 30.4678H109.244Z" fill="#E83D3E"/>
<path d="M158.076 38.7118C163.585 31.2145 170.046 23.9861 177.281 17.4147L170.552 10.5447C162.245 17.8926 157.123 24.1951 151.079 33.6937L158.106 38.7118H158.076Z" fill="#E83D3E"/>
<path d="M134.285 30.2587C134.375 20.9394 135.417 11.2915 137.442 1.70329L127.973 0.090332C125.531 10.933 125.025 19.0277 125.68 30.2886L134.285 30.2288V30.2587Z" fill="#E83D3E"/>
<path d="M112.162 165.12C125.531 161.984 139.705 160.072 154.146 159.624L152.359 139.253C135.983 139.552 124.191 141.673 108.291 146.541L112.162 165.09V165.12Z" fill="#E83D3E"/>
</svg>
