<svg width="976" height="533" viewBox="0 0 976 533" fill="none" xmlns="http://www.w3.org/2000/svg">
<g clip-path="url(#clip0_716_190)">
<path d="M429.259 290.68H405.389L396.209 260.08L360.599 260.23C357.989 270.43 355.519 281.13 351.439 290.68H328.039L364.769 163.68C369.229 164.49 392.769 162.43 394.429 164.68L429.259 290.68ZM392.009 242.01L379.589 195.25L366.229 242.01H392.009Z" fill="#040404"/>
<path d="M464.11 305.95C472.03 304.83 475.75 298.3 475.09 290.68C463.48 294.39 449.04 293.33 441.28 282.96C431.49 269.88 431.47 234.74 442.23 222.04C453.13 209.17 482.21 212.26 496.15 218.78C494.78 241.76 497.82 266.52 496.15 289.29C494.18 316.01 478.45 322.5 453.63 320.26C451.9 320.1 440.32 317.85 439.86 317.32C439.17 316.52 440.16 307.99 439.77 305.96C447.35 305.2 456.79 306.99 464.12 305.96L464.11 305.95ZM476.05 227.69C461.21 226.05 456.08 230.88 455 245.31C453.83 260.87 453.76 284.45 476.05 276.37V227.7V227.69Z" fill="#040404"/>
<path d="M921.029 290.681H900.979V233.891C900.979 227.151 881.879 226.511 881.879 230.071V290.671H860.869V215.751C860.869 215.651 862.199 214.321 862.299 214.321H877.579C878.429 214.321 878.899 217.091 879.029 217.181C879.249 217.341 882.639 215.171 883.809 214.821C893.849 211.871 909.659 212.231 916.739 220.981C917.819 222.311 921.019 227.901 921.019 229.111V290.671L921.029 290.681Z" fill="#040404"/>
<path d="M811.01 213.64C845.76 209.41 852.08 234.38 849.4 263.46C847.1 288.42 825.37 298.99 802.83 289.99C778.37 280.22 776.87 217.79 811.01 213.63V213.64ZM824.26 276.03C831.31 269.04 831.31 236.54 824.04 229.66C820.17 225.99 813.63 226.7 810.43 231.19C804.31 239.76 804.76 263.69 809.43 272.9C812.38 278.71 819.5 280.75 824.26 276.03Z" fill="#040404"/>
<path d="M649.36 278.27C655.4 277.7 665.53 275.93 663.02 267.5C660.72 259.77 632.68 258.25 627.56 242.79C626.16 238.57 626 231.72 627.15 227.43C632.14 208.77 665.13 212.75 679.4 216.27L679.44 227.68H657C655.91 227.68 648.62 229.92 647.85 230.93C640.21 240.93 667.38 246.84 673.08 250.74C682.36 257.09 684.72 264.69 683.18 275.79C680.89 292.31 657.64 293.51 644.6 292.56C642.09 292.38 629.21 290.27 627.85 289.26C625.89 287.79 627.34 280.88 626.92 278.26C634.17 277.76 642.21 278.94 649.36 278.26V278.27Z" fill="#040404"/>
<path d="M708.57 278.27C714.59 277.7 724.64 276.06 722 267.73C720.07 261.66 701.47 257.57 695.37 253.28C686.45 247.02 683.27 237.1 686.57 226.7C692.3 208.64 724.31 212.87 738.6 216.27L738.64 227.68H715.24C714.47 227.68 707.64 230.14 707.04 230.93C703.2 235.96 708.06 239.97 712.21 242.16C723.61 248.15 740.62 249.7 742.46 266.33C745.14 290.65 723.05 293.96 703.8 292.57C701.29 292.39 688.41 290.28 687.05 289.27C685.09 287.8 686.54 280.89 686.12 278.27C693.37 277.77 701.41 278.95 708.56 278.27H708.57Z" fill="#040404"/>
<path d="M528.57 214.33C528.97 214.76 527.89 218.16 529.06 218.16L543.37 214.33H557.22V231.51H534.78C534.24 231.51 530.48 233.47 530.48 233.9V290.69H510.43V214.34C512.91 214.84 527.96 213.68 528.57 214.34V214.33Z" fill="#040404"/>
<path d="M773.021 214.33H752.971V290.68H773.021V214.33Z" fill="#040404"/>
<path d="M358.61 532.14C324.25 445.89 295.24 357.38 265.95 269.23C241.71 196.29 215.81 121.61 194.1 48.0499C191.01 37.5899 187.4 26.6299 185.1 15.9999C184.49 13.1899 181.32 2.61987 184.43 1.57987C188.7 0.149869 192.08 9.25987 193.57 12.3099C203.61 32.9199 212.41 57.9199 220.85 79.5199C274.21 216.02 314.37 356.31 356.41 496.62C358 502.79 364.04 525.64 361.92 530.22C361.49 531.15 359.48 532.79 358.61 532.14Z" fill="#040404"/>
<path d="M235.31 254.511L255.5 315.971C242.97 330.811 219.36 327.861 207.22 313.591C186.84 289.621 202.63 251.061 235.31 254.511Z" fill="#040404"/>
<path d="M37.7402 279.23C38.7002 192.63 92.4102 109.11 178.97 88.4297C179.52 92.5797 189.53 114.98 187.64 116.96C101.44 138.07 55.0202 225.76 67.5002 311.04C82.4302 413.06 182.11 492.26 285.56 459.62C288.36 458.74 301 452.88 302.21 453.91C302.85 461.42 308.79 470.55 309.72 477.51C309.94 479.14 310.19 479.73 308.95 481.08C307.94 482.19 297.68 485.83 295.37 486.59C277.3 492.56 260.1 494.72 241.14 494.91C235.33 494.97 228.7 495.32 223 494.91C121.79 487.61 46.6802 395.43 38.7002 298.3C38.1502 291.63 37.6702 286.04 37.7502 279.21L37.7402 279.23Z" fill="#F8AB34"/>
<path d="M193.349 129.42C193.329 133.96 203.199 155.96 201.589 158.07C148.589 170.23 110.629 216.75 104.599 270.17C94.8193 356.67 166.779 436.43 255.669 423.06C266.949 421.36 277.419 417.3 287.959 413.27C289.249 417.01 297.619 438.46 296.409 440.39C202.589 481.78 103.329 417.53 82.1393 322.18C63.5393 238.46 106.789 148.99 193.359 129.42H193.349Z" fill="#F8AB34"/>
<path d="M206.651 170.54L216.321 199.04C150.301 211.56 124.901 288.53 162.071 342.51C187.131 378.91 234.701 392.49 274.561 371.8L284.111 401.34C187.711 444.36 93.4606 350.69 120.361 252.5C131.351 212.41 164.661 177.06 206.661 170.54H206.651Z" fill="#F8AB34"/>
<path d="M220.971 212.53L229.681 241.04C189.701 241.02 172.581 290.47 195.861 320.18C208.691 336.55 230.081 344 249.981 336.25C254.011 334.68 256.961 331.59 261.181 330.75L269.711 359.29C220.241 384.98 165.721 352 158.171 298.66C152.501 258.56 179.131 216.53 220.961 212.52L220.971 212.53Z" fill="#F8AB34"/>
<path d="M37.74 279.23C37.66 286.06 38.15 291.65 38.69 298.32H0.5V280.66C0.5 279.61 2.83 279.29 3.79 279.18C14.23 277.96 27.03 280.19 37.74 279.23Z" fill="#040404"/>
<path d="M241.14 494.92V532.14H223V494.92C228.7 495.33 235.33 494.98 241.14 494.92Z" fill="#040404"/>
<path d="M314.669 202.88C305.729 202.32 295.109 208.05 294.569 194.8C294.149 184.62 298.729 183.78 307.979 183.79C307.539 177.02 301.349 179.3 296.519 179.03C295.459 173.23 298.109 173.28 303.209 173.3C303.769 169.46 299.569 167.42 299.389 163.76C307.489 162.71 308.719 164.5 308.929 172.33L306.079 172.82C308.269 174.48 314.669 174.72 314.669 178.55V202.89V202.88ZM307.979 189.51C300.759 187.19 298.779 197.56 304.679 198.14C309.469 198.61 307.769 192.79 307.979 189.51Z" fill="#040404"/>
<path d="M773.021 189.51H752.971V211.46H773.021V189.51Z" fill="#040404"/>
<path d="M340.44 162.79H333.76V202.87H340.44V162.79Z" fill="#040404"/>
<path d="M344.27 162.79H351.91C350.71 169.02 353.44 179.57 344.27 177.11V162.79Z" fill="#040404"/>
<path d="M272.65 5.79015C273.21 4.05015 286.83 1.81015 289.38 1.51015C311.4 -1.07985 340.11 -0.489849 346.67 25.3502C351.28 43.5002 351.32 75.6502 331.83 85.0402L353.82 130.34H328.99L309.43 91.2001C307 89.0401 299.08 90.8302 295.57 90.2602V130.34H274.08C273.98 130.34 272.65 129.01 272.65 128.91V5.79015ZM295.57 72.1202C304.08 72.1102 316.96 73.1402 322.32 64.9702C327.77 56.6602 327.99 30.0102 320.44 22.9202C319.35 21.9002 313.29 18.6702 312.28 18.6702H295.57V72.1202Z" fill="#040404"/>
<path d="M749.149 130.34H729.099V72.6001C729.099 65.7901 711.909 66.3201 711.909 68.7801V128.91C711.909 129.01 710.579 130.34 710.479 130.34H691.859V53.0401C696.779 53.5901 702.959 52.3201 707.679 52.9601C709.519 53.2101 708.989 54.9701 709.589 55.0001C711.239 55.0601 716.069 52.4201 719.069 52.0801C729.839 50.8801 742.619 53.0701 747.049 64.2101C747.449 65.2301 749.149 71.0901 749.149 71.6501V130.35V130.34Z" fill="#040404"/>
<path d="M679.44 128.91C678.83 130.89 666.08 130.73 663.62 130.42C661.66 130.17 662.69 128.19 660.91 128.39C658.62 128.65 655.37 130.79 652.12 131.19C637.43 133.01 624.74 127.69 623.11 111.72C620.41 85.1304 634.81 77.4004 659.38 81.6704C659.7 77.5304 659.67 70.1304 655.33 68.0604C654.8 67.8104 649.66 66.4004 649.35 66.4004H628.82L628.86 54.9904C644.22 51.2804 672.62 47.2904 677.82 67.5304C678.21 69.0604 679.43 75.3204 679.43 76.4204V128.91H679.44ZM659.39 95.0304C647.8 93.8304 637.96 98.6204 643.09 111.8C646.03 119.36 659.39 116.61 659.39 114.6V95.0304Z" fill="#040404"/>
<path d="M416.839 98.8497H378.639C379.559 123.6 396.959 113.24 411.589 116.03C415.279 116.73 414.599 126.67 413.039 127.98C411.629 129.16 400.749 131.14 398.259 131.34C381.239 132.67 366.079 129.05 361.189 111.05C358.059 99.4997 357.939 74.3097 364.119 63.8197C373.399 48.0797 401.659 47.4797 411.289 62.8797C413.019 65.6497 416.829 76.4097 416.829 79.2897V98.8597L416.839 98.8497ZM397.739 84.5297C396.969 59.9097 379.069 59.9897 378.639 84.5297H397.739Z" fill="#040404"/>
<path d="M869.469 98.8501H832.229C831.879 104.38 833.079 112.22 838.649 114.86C839.439 115.23 845.619 116.98 846.079 116.98H866.609L866.569 128.39C848.579 132.68 822.499 135.26 815.009 113.67C810.749 101.37 811.019 76.5501 816.779 64.7901C825.379 47.2601 856.889 47.4601 865.539 65.0701C866.519 67.0601 869.469 75.6601 869.469 77.3701V98.8401V98.8501ZM850.369 84.5301C851.479 60.3401 830.299 59.7101 832.229 84.5301H850.369Z" fill="#040404"/>
<path d="M534.08 52.3501C540.53 51.5701 557.82 51.8601 563.27 55.1001C565.74 56.5701 565.44 65.9101 563.96 66.9401C558.63 70.6501 531.52 60.8101 534.31 75.4301C535.41 81.2101 553.1 85.7101 558.47 89.4701C570.86 98.1501 572.8 120.07 558.84 127.67C550.63 132.14 523.65 132.91 515.82 128.28C513.35 126.82 513.66 117.47 515.13 116.44C520.05 113.02 553.33 122.57 548.43 106.21C546.85 100.95 528.56 95.9801 522.91 91.6101C515.16 85.5901 513.17 78.5801 514.34 68.8901C515.58 58.5401 524.41 53.5101 534.08 52.3501Z" fill="#040404"/>
<path d="M598.271 37.7698V54.9498H619.281C618.811 57.8098 620.371 65.1998 618.341 66.8998C615.671 69.1298 602.171 70.4298 598.271 70.2198C599.501 78.0098 595.171 112.25 602.091 115.56C606.031 117.45 618.631 114.63 621.251 116.45C622.591 117.38 622.601 126.18 621.711 127.52C620.821 128.86 609.561 131.1 607.331 131.28C597.041 132.15 586.791 130.73 581.661 120.7C580.401 118.23 578.221 110.38 578.221 107.91V70.2098C578.221 69.7798 569.631 70.6398 569.631 70.2098V54.9398C569.631 54.5098 578.221 55.3698 578.221 54.9398V39.1898C578.221 39.0898 579.551 37.7598 579.651 37.7598H598.271V37.7698Z" fill="#040404"/>
<path d="M445.01 116.98C455.38 115.89 463.05 108.59 451.88 101.53C441.8 95.1599 424.87 94.0299 422.66 78.2499C419.37 54.7799 438.08 50.4299 457.41 52.0999C459.21 52.2599 471.64 54.4699 472.13 55.0399C472.83 55.8699 471.83 64.3499 472.23 66.3999H451.7C450.76 66.3999 443.6 68.7499 442.88 69.5099C434.59 78.3699 459.68 85.4799 464.27 88.1899C474.77 94.3799 477.61 102.5 475.96 114.51C473.02 135.95 438.6 132.2 423.57 128.39L423.53 116.98C430.43 116.46 438.24 117.69 445.02 116.98H445.01Z" fill="#040404"/>
<path d="M811.22 116.98C810.68 120.21 812.69 126.47 809.64 128.28C803.12 132.14 783.54 131.92 776.32 129.43C756.63 122.64 756.45 90.9701 760.28 74.18C766.1 48.7201 788.48 49.16 809.36 55.53L809.3 66.4001H789.72C776.39 66.4001 777.16 95.1 778.99 103.85C780.2 109.64 783.64 116.98 790.68 116.98H811.21H811.22Z" fill="#040404"/>
<path d="M504.69 53.04H485.59V130.35H504.69V53.04Z" fill="#040404"/>
<path d="M407.291 26.3105C405.831 29.4205 394.871 51.1205 393.441 51.1205H378.641L385.321 26.3105H407.281H407.291Z" fill="#040404"/>
<path d="M505.65 28.2197V48.7397C505.65 48.8397 504.32 50.1697 504.22 50.1697H485.6V28.2197H505.65Z" fill="#040404"/>
<path d="M404.431 419.52V455.79H382.471V332.2C397.241 325.91 425.831 323.78 439.511 333.41C454.161 343.73 454.351 368.41 453.131 384.68C450.841 415.17 433.671 424.64 404.441 419.53L404.431 419.52ZM404.431 402.34H418.281C418.621 402.34 423.241 400.68 423.881 400.31C434.221 394.35 433.241 363.08 429.061 353.39C427.921 350.75 422.801 345.08 420.191 345.08H404.431V402.34Z" fill="#040404"/>
<path d="M547.661 351.76V379.44C581.601 371.02 586.041 401.84 583.931 427.62C581.151 461.64 555.491 461.92 528.561 452.93V351.76H547.661ZM547.661 442.43C561.831 444.4 564.021 438.26 564.891 425.77C565.771 413.17 567.171 387.64 547.661 393.75V442.42V442.43Z" fill="#040404"/>
<path d="M498.01 441.47V379.43H516.15V455.78C510.78 456.71 503.52 454.79 498.61 455.13C490.1 455.72 487.05 459.83 476.05 456.25C469.42 454.09 462.67 446.13 462.67 439.08V379.43H480.34C480.44 379.43 481.77 380.76 481.77 380.86V438.12C481.77 443.38 494.43 443.14 498 441.46L498.01 441.47Z" fill="#040404"/>
<path d="M835.09 455.79C834.1 456.78 820.1 454.97 817.55 455.14C815.14 455.31 811.69 457.27 808.73 457.59C788.58 459.78 780.94 445.91 782.58 427.65C784.37 407.81 799.75 404.78 816.94 408.06C817.07 404.46 817.1 399.29 814.92 396.24C814.09 395.08 809.78 392.79 808.82 392.79H788.29C788.69 390.76 787.69 382.23 788.38 381.43C788.81 380.93 799.67 378.76 801.29 378.59C812.05 377.49 826.33 377.99 832.24 388.46C832.73 389.33 835.07 394.81 835.07 395.17V455.77L835.09 455.79ZM816.95 421.43C805 418.98 796.62 426.95 802.15 438.61C805.48 445.63 816.95 442.87 816.95 441V421.43Z" fill="#040404"/>
<path d="M972.6 442.43C971.76 449.23 975.72 453.39 968.01 455.5C953.72 459.42 933.76 459.67 925.65 444.97C918.72 432.4 918.76 399.04 927.3 387.13C936.36 374.51 961.43 375.11 969.55 388.68C972.77 394.06 975.46 405.23 975.46 411.41V425.25H939.17C939.64 430.75 942.03 442.43 949.2 442.43H972.6ZM956.37 410.93C957.22 385.6 939.12 386.37 939.18 410.93H956.37Z" fill="#040404"/>
<path d="M759.65 364.17V379.92C759.65 380.02 760.98 381.35 761.08 381.35H778.75C778.36 384.44 779.32 388.48 778.76 391.38C777.98 395.46 763.7 396.35 759.65 396.61C760.49 408.11 758.53 421.08 759.67 432.39C759.88 434.44 761.76 442.42 763.96 442.42H781.63C781.16 445.28 782.72 452.67 780.69 454.37C776.1 458.2 758.44 458.07 752.7 455.59C747.38 453.29 741.52 444.81 741.52 439.09V396.62C741.52 396.19 732.93 397.05 732.93 396.62V381.35C732.93 380.92 741.52 381.78 741.52 381.35V364.17H759.66H759.65Z" fill="#040404"/>
<path d="M702.36 442.43C701.78 445.78 703.89 452.84 700.78 454.69C698.72 455.91 688.47 457.62 685.69 457.74C665.22 458.63 655.2 448.66 653.63 428.63C651.18 397.36 656.67 370.99 694.74 379.91C695.88 380.18 701.1 381.19 701.32 381.45C702.01 382.25 701.02 390.78 701.41 392.81H681.83C669.69 392.81 671.08 425.17 673.19 432.94C673.89 435.51 676.95 442.44 679.92 442.44H702.36V442.43Z" fill="#040404"/>
<path d="M611.64 351.76H593.5V455.79H611.64V351.76Z" fill="#040404"/>
<path d="M895.25 379.441C895.65 379.871 894.57 383.251 895.74 383.271C898.88 382.081 903.91 379.441 907.19 379.441H921.039V396.621H899.549C899.229 396.621 898.099 397.881 897.159 397.571V455.791H879.02V379.441C881.29 379.881 894.7 378.851 895.25 379.441Z" fill="#040404"/>
<path d="M866.61 379.44H847.51V456.75H866.61V379.44Z" fill="#040404"/>
<path d="M727.19 379.44H708.09V456.75H727.19V379.44Z" fill="#040404"/>
<path d="M644.11 379.44H625.01V456.75H644.11V379.44Z" fill="#040404"/>
<path d="M866.6 354.62V375.14C866.6 375.24 865.27 376.57 865.17 376.57H848.94C848.84 376.57 847.51 375.24 847.51 375.14V354.62H866.61H866.6Z" fill="#040404"/>
<path d="M727.19 354.62V375.14C727.19 375.24 725.86 376.57 725.76 376.57H709.53C709.43 376.57 708.1 375.24 708.1 375.14V354.62H727.2H727.19Z" fill="#040404"/>
<path d="M644.109 354.62V375.14C644.109 375.24 642.78 376.57 642.68 376.57H626.45C626.35 376.57 625.02 375.24 625.02 375.14V354.62H644.12H644.109Z" fill="#040404"/>
<path d="M620.24 260.141H579.18C579.22 266.661 581.14 274.311 588.02 276.591C589.15 276.961 595.13 278.271 595.89 278.271H616.42C615.98 281.031 617.48 287.571 615.48 289.261C614.3 290.261 602.85 292.271 600.54 292.461C563.87 295.581 556.79 276.011 559.08 243.391C560.63 221.251 572.55 211.181 594.81 213.491C619.72 216.071 619.69 240.471 620.23 260.141H620.24ZM599.23 245.821C600.58 220.761 577.93 220.851 579.18 245.821H599.23Z" fill="#040404"/>
</g>
<defs>
<clipPath id="clip0_716_190">
<rect width="974.96" height="531.79" fill="white" transform="translate(0.5 0.5)"/>
</clipPath>
</defs>
</svg>
