<?xml version="1.0" encoding="UTF-8"?>
<svg id="Capa_2" data-name="Capa 2" xmlns="http://www.w3.org/2000/svg" viewBox="0 0 974.96 531.79">
  <defs>
    <style>
      .cls-1 {
        fill: #030370;
      }
    </style>
  </defs>
  <g id="Capa_1-2" data-name="Capa 1">
    <g>
      <path class="cls-1" d="M428.76,290.18h-23.87l-9.18-30.6-35.61.15c-2.61,10.2-5.08,20.9-9.16,30.45h-23.4l36.73-127c4.46.81,28-1.25,29.66,1l34.83,126ZM391.51,241.51l-12.42-46.76-13.36,46.76h25.78Z"/>
      <path class="cls-1" d="M463.61,305.45c7.92-1.12,11.64-7.65,10.98-15.27-11.61,3.71-26.05,2.65-33.81-7.72-9.79-13.08-9.81-48.22.95-60.92,10.9-12.87,39.98-9.78,53.92-3.26-1.37,22.98,1.67,47.74,0,70.51-1.97,26.72-17.7,33.21-42.52,30.97-1.73-.16-13.31-2.41-13.77-2.94-.69-.8.3-9.33-.09-11.36,7.58-.76,17.02,1.03,24.35,0ZM475.55,227.19c-14.84-1.64-19.97,3.19-21.05,17.62-1.17,15.56-1.24,39.14,21.05,31.06v-48.67Z"/>
      <path class="cls-1" d="M920.53,290.18h-20.05v-56.79c0-6.74-19.1-7.38-19.1-3.82v60.6h-21.01v-74.92c0-.1,1.33-1.43,1.43-1.43h15.28c.85,0,1.32,2.77,1.45,2.86.22.16,3.61-2.01,4.78-2.36,10.04-2.95,25.85-2.59,32.93,6.16,1.08,1.33,4.28,6.92,4.28,8.13v61.56Z"/>
      <path class="cls-1" d="M810.51,213.14c34.75-4.23,41.07,20.74,38.39,49.82-2.3,24.96-24.03,35.53-46.57,26.53-24.46-9.77-25.96-72.2,8.18-76.36ZM823.76,275.53c7.05-6.99,7.05-39.49-.22-46.37-3.87-3.67-10.41-2.96-13.61,1.53-6.12,8.57-5.67,32.5-1,41.71,2.95,5.81,10.07,7.85,14.83,3.13Z"/>
      <path class="cls-1" d="M648.86,277.77c6.04-.57,16.17-2.34,13.66-10.77-2.3-7.73-30.34-9.25-35.46-24.71-1.4-4.22-1.56-11.07-.41-15.36,4.99-18.66,37.98-14.68,52.25-11.16l.04,11.41h-22.44c-1.09,0-8.38,2.24-9.15,3.25-7.64,10,19.53,15.91,25.23,19.81,9.28,6.35,11.64,13.95,10.1,25.05-2.29,16.52-25.54,17.72-38.58,16.77-2.51-.18-15.39-2.29-16.75-3.3-1.96-1.47-.51-8.38-.93-11,7.25-.5,15.29.68,22.44,0Z"/>
      <path class="cls-1" d="M708.07,277.77c6.02-.57,16.07-2.21,13.43-10.54-1.93-6.07-20.53-10.16-26.63-14.45-8.92-6.26-12.1-16.18-8.8-26.58,5.73-18.06,37.74-13.83,52.03-10.43l.04,11.41h-23.4c-.77,0-7.6,2.46-8.2,3.25-3.84,5.03,1.02,9.04,5.17,11.23,11.4,5.99,28.41,7.54,30.25,24.17,2.68,24.32-19.41,27.63-38.66,26.24-2.51-.18-15.39-2.29-16.75-3.3-1.96-1.47-.51-8.38-.93-11,7.25-.5,15.29.68,22.44,0Z"/>
      <path class="cls-1" d="M528.07,213.83c.4.43-.68,3.83.49,3.83l14.31-3.83h13.85v17.18h-22.44c-.54,0-4.3,1.96-4.3,2.39v56.79h-20.05v-76.35c2.48.5,17.53-.66,18.14,0Z"/>
      <rect class="cls-1" x="752.47" y="213.83" width="20.05" height="76.35"/>
      <path class="cls-1" d="M358.11,531.64c-34.36-86.25-63.37-174.76-92.66-262.91-24.24-72.94-50.14-147.62-71.85-221.18-3.09-10.46-6.7-21.42-9-32.05-.61-2.81-3.78-13.38-.67-14.42,4.27-1.43,7.65,7.68,9.14,10.73,10.04,20.61,18.84,45.61,27.28,67.21,53.36,136.5,93.52,276.79,135.56,417.1,1.59,6.17,7.63,29.02,5.51,33.6-.43.93-2.44,2.57-3.31,1.92Z"/>
      <path class="cls-1" d="M234.81,254.01l20.19,61.46c-12.53,14.84-36.14,11.89-48.28-2.38-20.38-23.97-4.59-62.53,28.09-59.08Z"/>
      <g>
        <path class="cls-1" d="M37.24,278.73c.96-86.6,54.67-170.12,141.23-190.8.55,4.15,10.56,26.55,8.67,28.53-86.2,21.11-132.62,108.8-120.14,194.08,14.93,102.02,114.61,181.22,218.06,148.58,2.8-.88,15.44-6.74,16.65-5.71.64,7.51,6.58,16.64,7.51,23.6.22,1.63.47,2.22-.77,3.57-1.01,1.11-11.27,4.75-13.58,5.51-18.07,5.97-35.27,8.13-54.23,8.32-5.81.06-12.44.41-18.14,0-101.21-7.3-176.32-99.48-184.3-196.61-.55-6.67-1.03-12.26-.95-19.09Z"/>
        <path class="cls-1" d="M192.85,128.92c-.02,4.54,9.85,26.54,8.24,28.65-53,12.16-90.96,58.68-96.99,112.1-9.78,86.5,62.18,166.26,151.07,152.89,11.28-1.7,21.75-5.76,32.29-9.79,1.29,3.74,9.66,25.19,8.45,27.12-93.82,41.39-193.08-22.86-214.27-118.21-18.6-83.72,24.65-173.19,111.22-192.76Z"/>
        <path class="cls-1" d="M206.15,170.04l9.67,28.5c-66.02,12.52-91.42,89.49-54.25,143.47,25.06,36.4,72.63,49.98,112.49,29.29l9.55,29.54c-96.4,43.02-190.65-50.65-163.75-148.84,10.99-40.09,44.3-75.44,86.3-81.96Z"/>
        <path class="cls-1" d="M220.47,212.03l8.71,28.51c-39.98-.02-57.1,49.43-33.82,79.14,12.83,16.37,34.22,23.82,54.12,16.07,4.03-1.57,6.98-4.66,11.2-5.5l8.53,28.54c-49.47,25.69-103.99-7.29-111.54-60.63-5.67-40.1,20.96-82.13,62.79-86.14Z"/>
        <path class="cls-1" d="M37.24,278.73c-.08,6.83.41,12.42.95,19.09H0v-17.66c0-1.05,2.33-1.37,3.29-1.48,10.44-1.22,23.24,1.01,33.95.05Z"/>
      </g>
      <path class="cls-1" d="M240.64,494.42v37.22h-18.14v-37.22c5.7.41,12.33.06,18.14,0Z"/>
      <path class="cls-1" d="M314.17,202.38c-8.94-.56-19.56,5.17-20.1-8.08-.42-10.18,4.16-11.02,13.41-11.01-.44-6.77-6.63-4.49-11.46-4.76-1.06-5.8,1.59-5.75,6.69-5.73.56-3.84-3.64-5.88-3.82-9.54,8.1-1.05,9.33.74,9.54,8.57l-2.85.49c2.19,1.66,8.59,1.9,8.59,5.73v24.34ZM307.48,189.01c-7.22-2.32-9.2,8.05-3.3,8.63,4.79.47,3.09-5.35,3.3-8.63Z"/>
      <rect class="cls-1" x="752.47" y="189.01" width="20.05" height="21.95"/>
      <rect class="cls-1" x="333.26" y="162.29" width="6.68" height="40.08"/>
      <path class="cls-1" d="M343.77,162.29h7.64c-1.2,6.23,1.53,16.78-7.64,14.32v-14.32Z"/>
      <path class="cls-1" d="M272.15,5.29c.56-1.74,14.18-3.98,16.73-4.28,22.02-2.59,50.73-2,57.29,23.84,4.61,18.15,4.65,50.3-14.84,59.69l21.99,45.3h-24.83l-19.56-39.14c-2.43-2.16-10.35-.37-13.86-.94v40.08h-21.49c-.1,0-1.43-1.33-1.43-1.43V5.29ZM295.07,71.62c8.51-.01,21.39,1.02,26.75-7.15,5.45-8.31,5.67-34.96-1.88-42.05-1.09-1.02-7.15-4.25-8.16-4.25h-16.71v53.45Z"/>
      <path class="cls-1" d="M748.65,129.84h-20.05v-57.74c0-6.81-17.19-6.28-17.19-3.82v60.13c0,.1-1.33,1.43-1.43,1.43h-18.62V52.54c4.92.55,11.1-.72,15.82-.08,1.84.25,1.31,2.01,1.91,2.04,1.65.06,6.48-2.58,9.48-2.92,10.77-1.2,23.55.99,27.98,12.13.4,1.02,2.1,6.88,2.1,7.44v58.7Z"/>
      <path class="cls-1" d="M678.94,128.41c-.61,1.98-13.36,1.82-15.82,1.51-1.96-.25-.93-2.23-2.71-2.03-2.29.26-5.54,2.4-8.79,2.8-14.69,1.82-27.38-3.5-29.01-19.47-2.7-26.59,11.7-34.32,36.27-30.05.32-4.14.29-11.54-4.05-13.61-.53-.25-5.67-1.66-5.98-1.66h-20.53l.04-11.41c15.36-3.71,43.76-7.7,48.96,12.54.39,1.53,1.61,7.79,1.61,8.89v52.49ZM658.89,94.53c-11.59-1.2-21.43,3.59-16.3,16.77,2.94,7.56,16.3,4.81,16.3,2.8v-19.57Z"/>
      <path class="cls-1" d="M416.34,98.35h-38.2c.92,24.75,18.32,14.39,32.95,17.18,3.69.7,3.01,10.64,1.45,11.95-1.41,1.18-12.29,3.16-14.78,3.36-17.02,1.33-32.18-2.29-37.07-20.29-3.13-11.55-3.25-36.74,2.93-47.23,9.28-15.74,37.54-16.34,47.17-.94,1.73,2.77,5.54,13.53,5.54,16.41v19.57ZM397.24,84.03c-.77-24.62-18.67-24.54-19.1,0h19.1Z"/>
      <path class="cls-1" d="M868.97,98.35h-37.24c-.35,5.53.85,13.37,6.42,16.01.79.37,6.97,2.12,7.43,2.12h20.53l-.04,11.41c-17.99,4.29-44.07,6.87-51.56-14.72-4.26-12.3-3.99-37.12,1.77-48.88,8.6-17.53,40.11-17.33,48.76.28.98,1.99,3.93,10.59,3.93,12.3v21.47ZM849.87,84.03c1.11-24.19-20.07-24.82-18.14,0h18.14Z"/>
      <path class="cls-1" d="M533.58,51.85c6.45-.78,23.74-.49,29.19,2.75,2.47,1.47,2.17,10.81.69,11.84-5.33,3.71-32.44-6.13-29.65,8.49,1.1,5.78,18.79,10.28,24.16,14.04,12.39,8.68,14.33,30.6.37,38.2-8.21,4.47-35.19,5.24-43.02.61-2.47-1.46-2.16-10.81-.69-11.84,4.92-3.42,38.2,6.13,33.3-10.23-1.58-5.26-19.87-10.23-25.52-14.6-7.75-6.02-9.74-13.03-8.57-22.72,1.24-10.35,10.07-15.38,19.74-16.54Z"/>
      <path class="cls-1" d="M597.77,37.27v17.18h21.01c-.47,2.86,1.09,10.25-.94,11.95-2.67,2.23-16.17,3.53-20.07,3.32,1.23,7.79-3.1,42.03,3.82,45.34,3.94,1.89,16.54-.93,19.16.89,1.34.93,1.35,9.73.46,11.07s-12.15,3.58-14.38,3.76c-10.29.87-20.54-.55-25.67-10.58-1.26-2.47-3.44-10.32-3.44-12.79v-37.7c0-.43-8.59.43-8.59,0v-15.27c0-.43,8.59.43,8.59,0v-15.75c0-.1,1.33-1.43,1.43-1.43h18.62Z"/>
      <path class="cls-1" d="M444.51,116.48c10.37-1.09,18.04-8.39,6.87-15.45-10.08-6.37-27.01-7.5-29.22-23.28-3.29-23.47,15.42-27.82,34.75-26.15,1.8.16,14.23,2.37,14.72,2.94.7.83-.3,9.31.1,11.36h-20.53c-.94,0-8.1,2.35-8.82,3.11-8.29,8.86,16.8,15.97,21.39,18.68,10.5,6.19,13.34,14.31,11.69,26.32-2.94,21.44-37.36,17.69-52.39,13.88l-.04-11.41c6.9-.52,14.71.71,21.49,0Z"/>
      <path class="cls-1" d="M810.72,116.48c-.54,3.23,1.47,9.49-1.58,11.3-6.52,3.86-26.1,3.64-33.32,1.15-19.69-6.79-19.87-38.46-16.04-55.25,5.82-25.46,28.2-25.02,49.08-18.65l-.06,10.87h-19.58c-13.33,0-12.56,28.7-10.73,37.45,1.21,5.79,4.65,13.13,11.69,13.13h20.53Z"/>
      <rect class="cls-1" x="485.09" y="52.54" width="19.1" height="77.31"/>
      <path class="cls-1" d="M406.79,25.81c-1.46,3.11-12.42,24.81-13.85,24.81h-14.8l6.68-24.81h21.96Z"/>
      <path class="cls-1" d="M505.15,27.72v20.52c0,.1-1.33,1.43-1.43,1.43h-18.62v-21.95h20.05Z"/>
      <path class="cls-1" d="M403.93,419.02v36.27h-21.96v-123.59c14.77-6.29,43.36-8.42,57.04,1.21,14.65,10.32,14.84,35,13.62,51.27-2.29,30.49-19.46,39.96-48.69,34.85ZM403.93,401.84h13.85c.34,0,4.96-1.66,5.6-2.03,10.34-5.96,9.36-37.23,5.18-46.92-1.14-2.64-6.26-8.31-8.87-8.31h-15.76v57.26Z"/>
      <path class="cls-1" d="M547.16,351.26v27.68c33.94-8.42,38.38,22.4,36.27,48.18-2.78,34.02-28.44,34.3-55.37,25.31v-101.17h19.1ZM547.16,441.93c14.17,1.97,16.36-4.17,17.23-16.66.88-12.6,2.28-38.13-17.23-32.02v48.67Z"/>
      <path class="cls-1" d="M497.51,440.97v-62.04h18.14v76.35c-5.37.93-12.63-.99-17.54-.65-8.51.59-11.56,4.7-22.56,1.12-6.63-2.16-13.38-10.12-13.38-17.17v-59.65h17.67c.1,0,1.43,1.33,1.43,1.43v57.26c0,5.26,12.66,5.02,16.23,3.34Z"/>
      <path class="cls-1" d="M834.59,455.29c-.99.99-14.99-.82-17.54-.65-2.41.17-5.86,2.13-8.82,2.45-20.15,2.19-27.79-11.68-26.15-29.94,1.79-19.84,17.17-22.87,34.36-19.59.13-3.6.16-8.77-2.02-11.82-.83-1.16-5.14-3.45-6.1-3.45h-20.53c.4-2.03-.6-10.56.09-11.36.43-.5,11.29-2.67,12.91-2.84,10.76-1.1,25.04-.6,30.95,9.87.49.87,2.83,6.35,2.83,6.71v60.6ZM816.45,420.93c-11.95-2.45-20.33,5.52-14.8,17.18,3.33,7.02,14.8,4.26,14.8,2.39v-19.57Z"/>
      <path class="cls-1" d="M972.1,441.93c-.84,6.8,3.12,10.96-4.59,13.07-14.29,3.92-34.25,4.17-42.36-10.53-6.93-12.57-6.89-45.93,1.65-57.84,9.06-12.62,34.13-12.02,42.25,1.55,3.22,5.38,5.91,16.55,5.91,22.73v13.84h-36.29c.47,5.5,2.86,17.18,10.03,17.18h23.4ZM955.87,410.43c.85-25.33-17.25-24.56-17.19,0h17.19Z"/>
      <path class="cls-1" d="M759.15,363.67v15.75c0,.1,1.33,1.43,1.43,1.43h17.67c-.39,3.09.57,7.13.01,10.03-.78,4.08-15.06,4.97-19.11,5.23.84,11.5-1.12,24.47.02,35.78.21,2.05,2.09,10.03,4.29,10.03h17.67c-.47,2.86,1.09,10.25-.94,11.95-4.59,3.83-22.25,3.7-27.99,1.22-5.32-2.3-11.18-10.78-11.18-16.5v-42.47c0-.43-8.59.43-8.59,0v-15.27c0-.43,8.59.43,8.59,0v-17.18h18.14Z"/>
      <path class="cls-1" d="M701.86,441.93c-.58,3.35,1.53,10.41-1.58,12.26-2.06,1.22-12.31,2.93-15.09,3.05-20.47.89-30.49-9.08-32.06-29.11-2.45-31.27,3.04-57.64,41.11-48.72,1.14.27,6.36,1.28,6.58,1.54.69.8-.3,9.33.09,11.36h-19.58c-12.14,0-10.75,32.36-8.64,40.13.7,2.57,3.76,9.5,6.73,9.5h22.44Z"/>
      <rect class="cls-1" x="593" y="351.26" width="18.14" height="104.03"/>
      <path class="cls-1" d="M894.75,378.94c.4.43-.68,3.81.49,3.83,3.14-1.19,8.17-3.83,11.45-3.83h13.85v17.18h-21.49c-.32,0-1.45,1.26-2.39.95v58.22h-18.14v-76.35c2.27.44,15.68-.59,16.23,0Z"/>
      <rect class="cls-1" x="847.01" y="378.94" width="19.1" height="77.31"/>
      <rect class="cls-1" x="707.59" y="378.94" width="19.1" height="77.31"/>
      <rect class="cls-1" x="624.51" y="378.94" width="19.1" height="77.31"/>
      <path class="cls-1" d="M866.1,354.12v20.52c0,.1-1.33,1.43-1.43,1.43h-16.23c-.1,0-1.43-1.33-1.43-1.43v-20.52h19.1Z"/>
      <path class="cls-1" d="M726.69,354.12v20.52c0,.1-1.33,1.43-1.43,1.43h-16.23c-.1,0-1.43-1.33-1.43-1.43v-20.52h19.1Z"/>
      <path class="cls-1" d="M643.61,354.12v20.52c0,.1-1.33,1.43-1.43,1.43h-16.23c-.1,0-1.43-1.33-1.43-1.43v-20.52h19.1Z"/>
      <path class="cls-1" d="M619.74,259.64h-41.06c.04,6.52,1.96,14.17,8.84,16.45,1.13.37,7.11,1.68,7.87,1.68h20.53c-.44,2.76,1.06,9.3-.94,10.99-1.18,1-12.63,3.01-14.94,3.2-36.67,3.12-43.75-16.45-41.46-49.07,1.55-22.14,13.47-32.21,35.73-29.9,24.91,2.58,24.88,26.98,25.42,46.65ZM598.73,245.32c1.35-25.06-21.3-24.97-20.05,0h20.05Z"/>
    </g>
  </g>
</svg>