<?xml version="1.0" encoding="UTF-8"?>
<svg id="Capa_2" data-name="Capa 2" xmlns="http://www.w3.org/2000/svg" viewBox="0 0 1138.26 478.91">
  <defs>
    <style>
      .cls-1 {
        fill: #030370;
      }
    </style>
  </defs>
  <g id="Capa_1-2" data-name="Capa 1">
    <g>
      <ellipse class="cls-1" cx="21" cy="457.93" rx="21" ry="20.98"/>
      <path class="cls-1" d="M522.88,297.02c.19,1.26.05,1.6-.74,2.51-.59.68-11.87,9.04-12.9,9.56-.97.48-3.71,1.71-4.47.96-2-1.98,8.08-10.36,8.85-12.88l9.27-.15Z"/>
      <path class="cls-1" d="M804.7,295.74c3.52,3.55-4.14,12.23-7.87,7.5-3.92-4.96,4.44-10.96,7.87-7.5Z"/>
      <path class="cls-1" d="M902.01,88.41l-2.9,19.55c13.39-5.3,24.34.28,23.1,15.49-1.23,15.04-7.52,30.8-25.58,28.64-1.75-.21-3.41-1.44-5.17-1.45-1.35-.01-.64,1.39-2.08,1.57-1.76.23-7.03.21-8.77-.05-.99-.15-1.23.42-1.09-1.1l10.9-62.65h11.6ZM903.28,116.8c-1.46.22-4.24,1.7-5.21,2.81-1.74,2.02-4.35,14.28-4.03,16.9.8,6.6,10.43,6.21,13.18.93,1.09-2.08,3.65-14.53,3.17-16.47-.69-2.84-4.37-4.59-7.12-4.18Z"/>
      <path class="cls-1" d="M838.58,88.41c.64.18,1.44,1.42.77,2.2l-29.85,61.58-9.71-.04-7.25-63.02h11.24c1.95,0,3.59,35.46,4.74,38.74-.6,1.28,1.11,1.44,1.42,1.1.48-.53,1.44-6.55,1.96-7.81.35-.86,1.47-.89,1.89-1.79,1.6-3.5,12.22-30.96,13.92-30.96,2.56,0,9-.51,10.87,0Z"/>
      <path class="cls-1" d="M591.98,119.85c-.22.11-.2,1-.33,1.04-.44.15-1.18-.63-1.64-.61-.54.02-.47,1.41-.79,1.48-3.14.61-2.95-4.22-4.75-5.43-5.02-3.38-16.4,1.52-11.06,5.45,4.43,3.26,19.84,1,21.2,10.5,2.42,16.93-15.99,24.93-30.08,19.92-3.73-1.33-9.72-6.81-8.22-11.17.16-.46,7.73-4.28,8.61-4.5,3.8-.93,2.4,2.41,4.32,4.43,5.14,5.41,17.98-1.42,12.6-4.81-5.78-3.65-21.63-.36-22.02-12.64-.46-14.6,14.3-19.68,26.48-18.44,5.19.53,12.85,5.59,12.67,11.27-.08,2.48-4.86,2.42-7,3.5Z"/>
      <path class="cls-1" d="M708.46,105.79c1.13,1.13-5.04,26.46-4.39,31.56.8,6.31,11.2,4.67,13.46-1.86,2.97-8.57,2.67-20.76,5.43-29.7h11.6l-7.89,45.94c-.42.61-8.61.65-9.92.48-1.39-.19-.97-1.48-1.49-1.55-1.26-.17-3.83,1.29-5.7,1.49-28.5,3.08-13.99-31.01-12.69-46.36h11.6Z"/>
      <path class="cls-1" d="M506.94,152.15l8.32-45.65c.72-.95,8.62-1.04,10.13-.76.93.17-.08,2.16.77,2.23,10.41-5.12,22.73-.88,24.13,11.43l-5.65,32.75h-11.6l5.07-29.34c-.49-8.27-10.81-7.4-13.61-.57-3.26,7.92-3.15,21.28-5.22,29.91h-12.32Z"/>
      <path class="cls-1" d="M996.24,152.15c1.63-5.43,6.26-44.76,8.05-46.28.39-.33,9.28-.25,10.1.3.57.37.51,1.74,1.02,1.74,4.95.04,5.95-3.62,14.18-1.03,17.97,5.66,4.5,32.23,4.35,45.27h-11.6l4.84-29.97c-1.4-7.59-10.4-6.56-13.37-.66-3.39,6.73-3.18,21.67-5.37,29.4l-.95,1.22h-11.24Z"/>
      <path class="cls-1" d="M679.47,105.79h7.97c.47.47-.37,9.81-1.4,10.56-1.5,1.08-7.72-.71-8.74,1.58-.89,2-3.28,18.03-2.89,20.08.85,4.41,7.16,3.24,7.2,5.74.01.96-1.37,8.63-1.76,9.14-1.96,2.58-11.63-1.74-13.8-3.62-3.19-2.76-4.15-7.93-4.01-11.98.17-4.92,3.67-14.91,2.95-18.8-.63-3.47-6.48-.92-6.55-2.2l1.68-6.66c5.54-3.26,11.39-13.34,18.29-12.57,4.64.51,1.14,5.46,1.07,8.74Z"/>
      <path class="cls-1" d="M625.1,97.1l-.73,8.69h7.98c.38.39-1.11,10.43-1.53,10.79-1.7,1.45-7.41-2.57-9.15,2.82-.59,1.84-3.2,16.53-2.99,17.74.81,4.59,7.09,4.83,7.18,5.29.31,1.7-1,10.06-2.19,10.85-1.57,1.05-7.38-.85-9.22-1.72-13.84-6.54-4.77-23.49-4.58-34.9-1.54-.48-6.67,1.16-6.53-1.08.09-1.46.69-4.63,1.42-5.84.47-.77,12.56-11.47,13.41-11.96,2.15-1.24,4.53-.55,6.93-.69Z"/>
      <path class="cls-1" d="M760.65,97.1l-.72,8.69h7.97c.49.5-.95,10.39-1.55,10.77-2.23,1.41-7.62-2.43-9.14,2.82-.62,2.13-3.03,16.07-2.78,17.61.98,6.16,7.09,4.24,7.58,6.16-1.83,8.8-.42,13.02-10.96,8.82-7.26-2.89-8.99-8.8-8.55-16.14.2-3.32,4.19-17.49,2.24-18.85-1.68-1.17-5.99.97-5.85-1.39.09-1.41.7-4.73,1.41-5.85.3-.48,7.26-6.58,8.4-7.54,3.84-3.24,6.36-6.14,11.94-5.09Z"/>
      <polygon class="cls-1" points="505.49 88.41 494.25 152.15 483.02 152.15 494.98 88.41 505.49 88.41"/>
      <path class="cls-1" d="M938.98,152.15h-12.32l11.55-63.43c2.04-.29,11.08-1.17,11.56.83l-10.78,62.6Z"/>
      <polygon class="cls-1" points="654.09 105.79 645.76 152.15 634.52 152.15 642.49 105.79 654.09 105.79"/>
      <path class="cls-1" d="M649.55,87.85c10.51-2.16,10.39,11.67,1.84,13.43-10.74,2.21-10.5-11.65-1.84-13.43Z"/>
      <path class="cls-1" d="M873.01,131.87h-23.56c-5.22,0-3.92,11,2.79,10.65,5.12-.27,7.45-6.65,8.9-6.93,1-.19,9.75,4.38,9.62,5.93s-6.13,7.31-7.66,8.33c-6.63,4.43-20.01,5.33-25.62-1.16-4.88-5.64-2.69-17.23-1.1-24.1,6.81-29.41,47.66-25.39,36.63,7.27ZM849.09,122.45h13.77c1.1-9.71-13.77-8.17-13.77,0Z"/>
      <path class="cls-1" d="M989.72,131.87h-24.28c-3.2,0-4.07,10.49,3.62,10.49,5.3,0,7.4-6.48,8.77-6.81.94-.22,9.75,4.68,9.64,5.98-5.59,10.15-19.8,15.58-30.15,9.32-6.13-3.71-6.49-9.06-6.01-15.7.98-13.71,6.17-28.78,22.06-30.1,17.04-1.42,21.06,13.02,16.34,26.83ZM965.8,122.45h13.77c1.21-9.76-13.47-8.07-13.77,0Z"/>
      <path class="cls-1" d="M727.3,315.13l-.72,5.79c3.82-1.62,6-5.25,10.49-5.8,3.99-.49,6.08.01,9.23,2.23.87.62,2.75,3.41,3.17,3.53,1.22.33,5.38-3.65,7.07-4.42,7.52-3.42,18.71-1.36,21.02,7.5,2.34,9-4.36,25.59-4.62,35.33l-7.22.03,5.12-30.77c-2.47-11.3-14.63-8.65-18.54.34-2.01,4.6-4.35,29.32-5.46,30.39-.41.39-5.92-.2-7.21.04l5.12-30.05c-1.77-7.53-7.31-10.89-14.08-6.07-1,.71-3.48,3.49-4,4.66-2.26,5.12-4.77,30.31-5.92,31.42-.41.39-5.92-.2-7.21.04l7.39-42.96c.79-2.13,4.48-.98,6.38-1.22Z"/>
      <path class="cls-1" d="M838.52,318.44c.75.71,2.15,2.62,2.95,2.47,1.93-1.12.41-4.51,1.77-5.48,1.14-.81,4.32-.11,5.85-.31l-11.37,65.06c.19,3.09-6.21,2.92-7.18,1.6-.85-1.16,4.53-24.67,4.77-28.27-.76-.77-7.34,5.22-9.21,5.64-9.73,2.17-17.93-3.8-17.63-13.93.1-3.52,2.36-14.82,3.61-18.18,3.27-8.8,13.62-13.83,22.71-11.76,2.36.54,2.42,1.92,3.72,3.16ZM827.88,321.1c-3.16.52-7.2,3.73-8.65,6.56-1.24,2.39-3.33,13.37-3.42,16.2-.35,11.07,13.31,12.62,19.11,4.54,1.96-2.73,4.63-15.04,4.7-18.51.12-6.35-5.94-9.74-11.72-8.79Z"/>
      <path class="cls-1" d="M521.44,337.58h-27.91c-1.62,0-5.13,15.56,5.06,16.68,7.41.82,10.45-5.73,13.04-5.8.76-.02,4.02,1.55,4.39,2.14,2.97,4.74-11.04,9.75-14.61,10.06-20.44,1.8-18.3-16.37-14.57-30.49,3.14-11.88,16.88-21.1,28.58-14.48,8.86,5.02,6.85,13.34,6.01,21.88ZM493.89,332.51h19.93c1.51,0,1.37-6.5.71-7.95-.25-.55-2.65-2.83-3.28-3.24-7.36-4.74-17.54,3.03-17.37,11.19Z"/>
      <path class="cls-1" d="M941.15,337.58h-28.27c-2.83,8.81-1.51,18.8,10.19,16.33,3.53-.75,7.15-5.47,9.02-5.46.26,0,4.53,1.99,4.68,2.2,1.04,1.49-2.57,4.47-3.66,5.33-5.86,4.68-14.31,6.12-21.35,3.35-10.82-4.24-7.2-17.95-5.17-26.97,1.88-8.38,5.44-14.81,14.27-17.61,16.25-5.14,25.62,7.66,20.29,22.81ZM934.63,332.51c4.03-18.32-20.08-14.95-21.02,0h21.02Z"/>
      <path class="cls-1" d="M593.04,313.89c6.75-.8,15.62,1.1,17.79,8.61,1.69,5.85-2.16,25.79-6.04,30.66-9.34,11.73-33.43,11.14-31.8-8.6,1.11-13.42,4.21-28.78,20.05-30.66ZM591.55,320.37c-2.84.59-6.91,4.52-8.06,7.15-1.32,3-3.75,16.73-3.29,19.8,1.47,9.72,14.43,8.52,19.11,1.81,2.06-2.94,4.42-15.35,4.69-19.25.54-7.66-5.38-10.97-12.45-9.51Z"/>
      <path class="cls-1" d="M703.13,317.56c.97.92,2.52,3.43,2.84,4.76,1.55,6.44-1.84,26.18-6.2,31.37-8.6,10.24-31.54,10.29-31.63-6.2-.02-4.43,2.7-19.59,4.65-23.45,4.96-9.83,22.16-14.24,30.34-6.48ZM677.54,351.82c5.01,5.3,13.79,2.14,17.29-3.6,2.25-3.69,4.37-15.27,4.26-19.7-.27-11.4-15.52-10.76-19.92-1.73-1.34,2.75-3.94,15.41-3.98,18.48-.02,1.95,1,5.14,2.34,6.55Z"/>
      <path class="cls-1" d="M948.49,350.7c.2-.23,5.08-1.68,5.92-1.44,1.44.42,1.95,2.58,3.04,3.54,5.85,5.16,21.66,1.2,19.08-7.46-2.26-7.59-27.12-2.12-24.17-17.94,2.34-12.55,18.41-16.63,29.05-12.3,4.88,1.99,9.93,8.48,1.97,10.04-3.23.64-2.75-1.66-4.49-3.17-6.2-5.38-21.64-2.37-18.75,7.14,2.14,7.04,30.16,1.28,23.26,20.63-4.13,11.57-23.66,14.56-32.46,7.4-1.55-1.26-3.97-4.69-2.45-6.43Z"/>
      <path class="cls-1" d="M631.62,315.12c.25.25-.19,4.09,0,5.07,3.12-.54,4.97-3.94,7.95-4.73,5.88-1.54,14.49-.26,17.56,5.67,4.33,8.36-2.77,28.31-3.72,37.86l-6.58.32c-1.18-1.19,5.02-26.53,4.38-31.54-1.34-10.52-17.62-8.38-20.84,3.15-2.42,8.69-2.71,18.86-4.9,27.7-.96,1.37-5.19.46-6.92.7l7.32-44.11c1.02-.03,5.53-.28,5.73-.08Z"/>
      <path class="cls-1" d="M868.66,314.41c1.18,1.41-5.35,27.3-4.31,32.92.68,3.68,5.58,6.25,9.02,6.25,15.9,0,13.36-27.61,16.95-38.03l6.61-.42-7.33,44.11-5.73.08.73-5.79c-6.56,2.92-7.31,6.46-15.61,5.82-21.13-1.64-7.7-31.01-7.08-43.34.75-1.67,4.82-.52,6.74-1.6Z"/>
      <path class="cls-1" d="M562.66,350.71c1.16,1.99-3.89,5.54-5.33,6.45-10.96,6.97-27.77,4.49-27.21-11.21.18-5.22,3.29-20.12,6.22-24.25,5.03-7.11,15.55-9.56,23.67-7.08,2.86.87,10.76,6.06,6.64,9.13-7.3,5.43-6.64-2.59-12.28-3.5-5.21-.84-10.14,1.45-12.8,5.96-1.7,2.89-4.17,15.51-4.22,19.02-.11,7.45,6.67,10.75,13.24,8.1,2.75-1.11,5.76-5.5,8.54-4.6.29.09,3.42,1.8,3.53,1.97Z"/>
      <polygon class="cls-1" points="801.25 315.13 793.99 359.31 786.75 359.31 794 315.13 801.25 315.13"/>
      <path class="cls-1" d="M994.79,211.55l-.72,5.79c7.39-6.25,16.37-9.42,22.9-.05,2.58-.47,3.8-2.78,6.05-3.97,5.4-2.87,14.24-2.85,18.81,1.56,8.36,8.04-1.34,30.29-1.41,40.82l-7.22.04,5.11-30.04c-1.34-8.64-8.52-10.76-15.2-5.03s-6.35,26.36-8.79,35.03l-7.21.04,5.01-29.99c-.8-8.02-8.02-10.91-14.37-5.81-7.63,6.12-7.08,26.5-9.49,35.79h-7.24s7.26-44.17,7.26-44.17h6.51Z"/>
      <path class="cls-1" d="M496.79,211.54c.25.25-.19,4.09,0,5.07,4.04-1.77,5.69-4.63,10.47-5.1,19.16-1.91,17.86,14.39,14.42,28.17-2.55,10.2-11.11,17.92-22.19,15.88-3.75-.69-4.11-4.17-7.42-5.6-1.74.03-4.42,27.22-5.51,28.15-.61.52-5.78-.2-7.17.08l11.63-66.6c1.04.06,5.56-.25,5.77-.04ZM511.03,246.06c1.01-1.01,2.48-3.26,2.97-4.64.7-1.97,3.07-14.6,2.92-16.31-.97-11.04-17.41-9.62-21.03.39-1,2.78-3.04,14.71-2.56,17.38,1.54,8.56,12.15,8.7,17.69,3.17Z"/>
      <path class="cls-1" d="M911.43,191.27c-.33,6.59-1.49,4.96-5.84,6.11-9.86,2.6-12.03,8.89-12.28,18.52h8.7c.28.28-.5,5.46-.8,5.71-1.17,1-8.51-1.57-9.54,1.7-3.27,12.87-3.61,27.95-7.27,40.54-2.55,8.77-9.9,14.89-19.09,15.69-2.06.18-5.77.84-5.04-2.11,1.32-5.3,4.19-3.58,7.69-4.66,2.94-.91,7.42-4.34,8.72-7.22l7.93-42.72c-.11-1.09-4.17-.99-4.33-1.16-.32-.33.51-5.48.78-5.7.63-.52,3.74.62,4.68-.76.5-.72.74-5.7,1.26-7.43,3.24-10.85,12.83-18.06,24.43-16.51Z"/>
      <path class="cls-1" d="M703.75,234c-2.27.74-4.7,16.15,5.78,16.71,7.19.38,9.75-5.77,12.32-5.83.76-.02,4.02,1.55,4.39,2.14,2.93,4.68-10.54,9.56-13.98,9.97-21.25,2.5-18.84-16.49-14.91-30.83,6.87-25.04,44.48-19.7,33.22,7.84h-26.82ZM725.13,228.93c3.26-17.68-20.7-15.43-21.02,0h21.02Z"/>
      <path class="cls-1" d="M868.66,234h-28.27c-2.5,8.28-1.44,18.28,9.61,16.48,4.09-.66,7.43-5.52,9.59-5.58.77-.02,4.03,1.55,4.39,2.12,1.18,1.84-2.62,5.11-4.07,6.13-8.78,6.16-25.77,6-27.9-6.8-.84-5.05,2.63-22.75,5.59-27.08,6.38-9.35,23.05-13.63,30.21-2.9,3.95,5.92,2,11.23.85,17.63ZM841.84,228.93h19.93c2.01,0,2.24-10.89-4.52-12.14-8.04-1.49-16.03,3.52-15.42,12.14Z"/>
      <path class="cls-1" d="M1091.93,234h-28.27c-3.31,8.09-1.14,18.7,9.62,16.49,4.26-.87,9.69-9.14,13.22-3.45,2.03,3.27-5.1,7.33-7.63,8.32-11.9,4.67-24.64.7-23.9-13.74.78-15.32,7.28-34.39,26.27-31.34,12.47,2,13.33,13.56,10.69,23.73ZM1085.41,228.93c4.05-18.22-20.24-15.42-21.02,0h21.02Z"/>
      <path class="cls-1" d="M925.01,210.27c8.44-1.33,17.93,1.59,18.95,11.13.63,5.82-2.68,22.98-6.12,27.76-7.18,9.99-28.99,11.8-31.89-2.08-1.17-5.58,2.34-23.64,5.6-28.53,2.64-3.97,8.78-7.54,13.46-8.28ZM924.29,216.79c-2.59.48-6.81,4.22-7.94,6.55-1.22,2.54-3.34,14.49-3.47,17.57-.55,12.44,14.72,12.69,19.86,3.16,1.53-2.84,3.98-15.04,4.08-18.43.24-7.78-5.65-10.11-12.53-8.84Z"/>
      <path class="cls-1" d="M566.11,213.3c1.32.9,3.42,4.49,3.73,6.02,1.11,5.45-2.14,24.45-5.32,29.13-8.1,11.92-32.82,12.51-32.93-4.66-.02-3.38,2.13-15.06,3.09-18.63,3.59-13.43,19.96-19.65,31.43-11.85ZM541.96,248.98c5.38,4.55,14.8.39,17.46-5.63,1.36-3.08,3.72-16.62,3.35-19.86-1.11-9.77-15.65-8.89-19.99-.39-1.43,2.8-3.95,15.99-3.94,19.25,0,1.91,1.72,5.45,3.13,6.64Z"/>
      <path class="cls-1" d="M1111.72,219c-1.7,2.12-1.96,5.79.11,7.8,5.59,5.43,24.15,1.62,23.43,14.59-.74,13.42-16.51,17.91-27.66,14.99-3.31-.87-10.95-4.98-8.29-9.22.14-.22,4.46-2.15,4.72-2.17,1.74-.16,3.78,4.41,6.58,5.47,4.7,1.78,13.5.98,16.03-3.87,6.61-12.66-22.86-7.15-23.86-18.74-.85-9.8,8.09-16.95,17.08-17.73,5.09-.44,17.06.77,18.35,7.03.65,3.16-4.65,5.31-6.41,4.2-.68-.43-1.52-2.52-2.94-3.6-4-3.03-13.87-2.83-17.14,1.25Z"/>
      <path class="cls-1" d="M739.03,247.15c.15-.24,4.91-2.25,5.22-2.19,1.05.2,2.78,3.92,5.03,5.11,5.18,2.75,13.1,1.69,16.45-3.4,6.53-9.91-13.75-10-19.04-12.85-6.87-3.69-4.61-12.46-.53-17.58,6.54-8.22,28.16-9.52,31.79,2.08-6.5,7.42-7.26.02-11.8-1.77-6.04-2.38-19.69.7-16,8.73,2.87,6.24,22.76,3.2,24.22,13.48,2.28,16.05-20.11,22.97-31.76,15.81-2.11-1.3-5.12-4.95-3.57-7.43Z"/>
      <path class="cls-1" d="M590.3,211.54c1.14,1.16-5.11,26.24-4.3,31.47,1.04,6.73,9.35,8.51,14.7,5.37,4.29-2.51,5.69-6.1,6.78-10.61.88-3.62,3.63-25.29,4.64-26.15.59-.5,5.14.18,6.45-.08l-7.32,44.11-5.73.08.73-5.79c-4.69,1.41-6.53,5.36-11.92,5.82-25.3,2.2-12.1-29.02-10.92-42.81.39-2.73,4.67-.95,6.9-1.41Z"/>
      <path class="cls-1" d="M690.34,192.71l-10.15,63.02h-7.25s10.66-62.14,10.66-62.14c.85-1.88,4.75-.49,6.75-.89Z"/>
      <path class="cls-1" d="M964.35,211.55l-.72,6.51c.91,1.02,7.55-5.65,8.72-6.12,2.49-1,5.96-.11,8.67-.39.21.21-.6,5.26-.87,6-.91,2.45-3.03.52-4.57.66-17.82,1.53-13.49,24.19-17.35,36.84-.93,1.38-5.88.42-7.65.68,2.08-5.13,6.34-42.65,8.04-44.11.55-.47,4.51.16,5.73-.07Z"/>
      <path class="cls-1" d="M638.87,211.55l-.71,6.52c5.97-3.63,8.65-8.2,16.67-6.52.34.34-.35,6.79-.8,7.17-.81.68-3.98-.48-5.26-.4-6.2.39-10.25,4.75-11.85,10.46-1.09,3.9-3.62,25.96-4.6,26.91-.41.39-5.93-.2-7.21.03l7.38-42.96c.8-2.13,4.47-.98,6.38-1.22Z"/>
      <path class="cls-1" d="M814.3,211.54v6.52c5.82-3.81,8.76-8.12,16.67-6.52l-.76,7.21c-22.12-4.01-18.02,22.85-21.73,36.97h-7.24s7.26-44.17,7.26-44.17h5.8Z"/>
      <path class="cls-1" d="M870.83,193.44c.81.69-1.99,3.12-2.55,3.6-1.81,1.55-12.33,9.34-13.81,9.44-.89.06-2.3-.26-2.48-1.1-.16-.73,8.33-9.96,9.43-11.57l9.41-.37Z"/>
      <path class="cls-1" d="M204.68,410.02c-9.81,21.22-30.76,37.84-53.51,43.25-62.89,14.96-117.59-42.59-98.93-104.65.86-2.86,4.96-11.52,4.44-13.41C-18.83,244.52.12,105.55,96.42,37.84c117-82.26,280.4-24.06,317.53,113.43,34.8,128.88-59.17,253.84-191.5,259.5-5.65.24-12.33.33-17.77-.76ZM123.11,156.5h36.61l-35.54,176.34c.41,2.04,2.19,2.37,4,2.58,11.1,1.3,32.63.65,44.26.02,56.73-3.08,96.86-32.82,126.32-79.48,26.01-41.18,39.96-89.52,39.17-138.45-.53-.11-1.43-.85-1.7-.85h-50.02c-3.98,0-2.29,10.99-2.55,14.11-4.03,49.23-22.87,99.53-60.87,132.58-9.51,8.27-21.95,16.28-34.8,17.01l33.29-158.38c.39-3.45-2-5.52-5.35-5.35-27.21,1.81-57.29-2.3-84.15,0-5.1.44-4.43,2.14-5.64,6.68-1.67,6.28-5.07,21.08-5.52,27.13-.13,1.81.59,5.51,2.49,6.06Z"/>
    </g>
  </g>
</svg>