<svg width="1139" height="480" viewBox="0 0 1139 480" fill="none" xmlns="http://www.w3.org/2000/svg">
<g clip-path="url(#clip0_716_141)">
<path d="M21.5 479.41C33.098 479.41 42.5 470.017 42.5 458.43C42.5 446.843 33.098 437.45 21.5 437.45C9.90202 437.45 0.5 446.843 0.5 458.43C0.5 470.017 9.90202 479.41 21.5 479.41Z" fill="#991118"/>
<path d="M523.38 297.521C523.57 298.781 523.43 299.121 522.64 300.031C522.05 300.711 510.77 309.071 509.74 309.591C508.77 310.071 506.03 311.301 505.27 310.551C503.27 308.571 513.35 300.191 514.12 297.671L523.39 297.521H523.38Z" fill="#757575"/>
<path d="M805.2 296.241C808.72 299.791 801.06 308.471 797.33 303.741C793.41 298.781 801.77 292.781 805.2 296.241Z" fill="#757575"/>
<path d="M902.511 88.9102L899.611 108.46C913.001 103.16 923.951 108.74 922.711 123.95C921.481 138.99 915.191 154.75 897.131 152.59C895.381 152.38 893.721 151.15 891.961 151.14C890.611 151.13 891.321 152.53 889.881 152.71C888.121 152.94 882.851 152.92 881.111 152.66C880.121 152.51 879.881 153.08 880.021 151.56L890.921 88.9102H902.521H902.511ZM903.781 117.3C902.321 117.52 899.541 119 898.571 120.11C896.831 122.13 894.221 134.39 894.541 137.01C895.341 143.61 904.971 143.22 907.721 137.94C908.811 135.86 911.371 123.41 910.891 121.47C910.201 118.63 906.521 116.88 903.771 117.29L903.781 117.3Z" fill="#991118"/>
<path d="M839.079 88.9103C839.719 89.0903 840.519 90.3303 839.849 91.1103L809.999 152.69L800.289 152.65L793.039 89.6303H804.279C806.229 89.6303 807.869 125.09 809.019 128.37C808.419 129.65 810.129 129.81 810.439 129.47C810.919 128.94 811.879 122.92 812.399 121.66C812.749 120.8 813.869 120.77 814.289 119.87C815.889 116.37 826.509 88.9103 828.209 88.9103C830.769 88.9103 837.209 88.4003 839.079 88.9103Z" fill="#991118"/>
<path d="M592.48 120.35C592.26 120.46 592.28 121.35 592.15 121.39C591.71 121.54 590.97 120.76 590.51 120.78C589.97 120.8 590.04 122.19 589.72 122.26C586.58 122.87 586.77 118.04 584.97 116.83C579.95 113.45 568.57 118.35 573.91 122.28C578.34 125.54 593.75 123.28 595.11 132.78C597.53 149.71 579.12 157.71 565.03 152.7C561.3 151.37 555.31 145.89 556.81 141.53C556.97 141.07 564.54 137.25 565.42 137.03C569.22 136.1 567.82 139.44 569.74 141.46C574.88 146.87 587.72 140.04 582.34 136.65C576.56 133 560.71 136.29 560.32 124.01C559.86 109.41 574.62 104.33 586.8 105.57C591.99 106.1 599.65 111.16 599.47 116.84C599.39 119.32 594.61 119.26 592.47 120.34L592.48 120.35Z" fill="#991118"/>
<path d="M708.96 106.29C710.09 107.42 703.92 132.75 704.57 137.85C705.37 144.16 715.77 142.52 718.03 135.99C721 127.42 720.7 115.23 723.46 106.29H735.06L727.17 152.23C726.75 152.84 718.56 152.88 717.25 152.71C715.86 152.52 716.28 151.23 715.76 151.16C714.5 150.99 711.93 152.45 710.06 152.65C681.56 155.73 696.07 121.64 697.37 106.29H708.969H708.96Z" fill="#991118"/>
<path d="M507.439 152.651L515.759 107.001C516.479 106.051 524.379 105.961 525.889 106.241C526.819 106.411 525.809 108.401 526.659 108.471C537.069 103.351 549.389 107.591 550.789 119.901L545.139 152.651H533.539L538.609 123.311C538.119 115.041 527.799 115.911 524.999 122.741C521.739 130.661 521.849 144.021 519.779 152.651H507.459H507.439Z" fill="#991118"/>
<path d="M996.74 152.65C998.37 147.22 1003 107.89 1004.79 106.37C1005.18 106.04 1014.07 106.12 1014.89 106.67C1015.46 107.04 1015.4 108.41 1015.91 108.41C1020.86 108.45 1021.86 104.79 1030.09 107.38C1048.06 113.04 1034.59 139.61 1034.44 152.65H1022.84L1027.68 122.68C1026.28 115.09 1017.28 116.12 1014.31 122.02C1010.92 128.75 1011.13 143.69 1008.94 151.42L1007.99 152.64H996.75L996.74 152.65Z" fill="#991118"/>
<path d="M679.969 106.29H687.939C688.409 106.76 687.569 116.1 686.539 116.85C685.039 117.93 678.819 116.14 677.799 118.43C676.909 120.43 674.519 136.46 674.909 138.51C675.759 142.92 682.069 141.75 682.109 144.25C682.119 145.21 680.739 152.88 680.349 153.39C678.389 155.97 668.719 151.65 666.549 149.77C663.359 147.01 662.399 141.84 662.539 137.79C662.709 132.87 666.209 122.88 665.489 118.99C664.859 115.52 659.009 118.07 658.939 116.79L660.619 110.13C666.159 106.87 672.009 96.7904 678.909 97.5604C683.549 98.0704 680.049 103.02 679.979 106.3L679.969 106.29Z" fill="#991118"/>
<path d="M625.601 97.6L624.871 106.29H632.851C633.231 106.68 631.741 116.72 631.321 117.08C629.621 118.53 623.911 114.51 622.171 119.9C621.581 121.74 618.971 136.43 619.181 137.64C619.991 142.23 626.271 142.47 626.361 142.93C626.671 144.63 625.361 152.99 624.171 153.78C622.601 154.83 616.791 152.93 614.951 152.06C601.111 145.52 610.181 128.57 610.371 117.16C608.831 116.68 603.701 118.32 603.841 116.08C603.931 114.62 604.531 111.45 605.261 110.24C605.731 109.47 617.821 98.77 618.671 98.28C620.821 97.04 623.201 97.73 625.601 97.59V97.6Z" fill="#991118"/>
<path d="M761.15 97.6003L760.43 106.29H768.4C768.89 106.79 767.45 116.68 766.85 117.06C764.62 118.47 759.23 114.63 757.71 119.88C757.09 122.01 754.68 135.95 754.93 137.49C755.91 143.65 762.02 141.73 762.51 143.65C760.68 152.45 762.09 156.67 751.55 152.47C744.29 149.58 742.56 143.67 743 136.33C743.2 133.01 747.19 118.84 745.24 117.48C743.56 116.31 739.25 118.45 739.39 116.09C739.48 114.68 740.09 111.36 740.8 110.24C741.1 109.76 748.06 103.66 749.2 102.7C753.04 99.4603 755.56 96.5603 761.14 97.6103L761.15 97.6003Z" fill="#991118"/>
<path d="M505.99 88.9102L494.75 152.65H483.52L495.48 88.9102H505.99Z" fill="#991118"/>
<path d="M939.48 152.65H927.16L938.71 89.2202C940.75 88.9302 949.79 88.0502 950.27 90.0502L939.49 152.65H939.48Z" fill="#991118"/>
<path d="M654.59 106.29L646.26 152.65H635.02L642.99 106.29H654.59Z" fill="#991118"/>
<path d="M650.051 88.3504C660.561 86.1904 660.441 100.02 651.891 101.78C641.151 103.99 641.391 90.1304 650.051 88.3504Z" fill="#991118"/>
<path d="M873.509 132.37H849.949C844.729 132.37 846.029 143.37 852.739 143.02C857.859 142.75 860.189 136.37 861.639 136.09C862.639 135.9 871.389 140.47 871.259 142.02C871.129 143.57 865.129 149.33 863.599 150.35C856.969 154.78 843.589 155.68 837.979 149.19C833.099 143.55 835.289 131.96 836.879 125.09C843.689 95.6802 884.539 99.7002 873.509 132.36V132.37ZM849.589 122.95H863.359C864.459 113.24 849.589 114.78 849.589 122.95Z" fill="#991118"/>
<path d="M990.219 132.37H965.939C962.739 132.37 961.869 142.86 969.559 142.86C974.859 142.86 976.959 136.38 978.329 136.05C979.269 135.83 988.079 140.73 987.969 142.03C982.379 152.18 968.169 157.61 957.819 151.35C951.689 147.64 951.329 142.29 951.809 135.65C952.789 121.94 957.979 106.87 973.869 105.55C990.909 104.13 994.929 118.57 990.209 132.38L990.219 132.37ZM966.299 122.95H980.069C981.279 113.19 966.599 114.88 966.299 122.95Z" fill="#991118"/>
<path d="M727.799 315.63L727.079 321.42C730.899 319.8 733.079 316.17 737.569 315.62C741.559 315.13 743.649 315.63 746.799 317.85C747.669 318.47 749.549 321.26 749.969 321.38C751.189 321.71 755.349 317.73 757.039 316.96C764.559 313.54 775.749 315.6 778.059 324.46C780.399 333.46 773.699 350.05 773.439 359.79L766.219 359.82L771.339 329.05C768.869 317.75 756.709 320.4 752.799 329.39C750.789 333.99 748.449 358.71 747.339 359.78C746.929 360.17 741.419 359.58 740.129 359.82L745.249 329.77C743.479 322.24 737.939 318.88 731.169 323.7C730.169 324.41 727.689 327.19 727.169 328.36C724.909 333.48 722.399 358.67 721.249 359.78C720.839 360.17 715.329 359.58 714.039 359.82L721.429 316.86C722.219 314.73 725.909 315.88 727.809 315.64L727.799 315.63Z" fill="#757575"/>
<path d="M839.021 318.94C839.771 319.65 841.171 321.56 841.971 321.41C843.901 320.29 842.381 316.9 843.741 315.93C844.881 315.12 848.061 315.82 849.591 315.62L838.221 380.68C838.411 383.77 832.011 383.6 831.041 382.28C830.191 381.12 835.571 357.61 835.811 354.01C835.051 353.24 828.471 359.23 826.601 359.65C816.871 361.82 808.671 355.85 808.971 345.72C809.071 342.2 811.331 330.9 812.581 327.54C815.851 318.74 826.201 313.71 835.291 315.78C837.651 316.32 837.711 317.7 839.011 318.94H839.021ZM828.381 321.6C825.221 322.12 821.181 325.33 819.731 328.16C818.491 330.55 816.401 341.53 816.311 344.36C815.961 355.43 829.621 356.98 835.421 348.9C837.381 346.17 840.051 333.86 840.121 330.39C840.241 324.04 834.181 320.65 828.401 321.6H828.381Z" fill="#757575"/>
<path d="M521.941 338.08H494.031C492.411 338.08 488.901 353.64 499.091 354.76C506.501 355.58 509.541 349.03 512.131 348.96C512.891 348.94 516.151 350.51 516.521 351.1C519.491 355.84 505.481 360.85 501.911 361.16C481.471 362.96 483.611 344.79 487.341 330.67C490.481 318.79 504.221 309.57 515.921 316.19C524.781 321.21 522.771 329.53 521.931 338.07L521.941 338.08ZM494.391 333.01H514.321C515.831 333.01 515.691 326.51 515.031 325.06C514.781 324.51 512.381 322.23 511.751 321.82C504.391 317.08 494.211 324.85 494.381 333.01H494.391Z" fill="#757575"/>
<path d="M941.65 338.08H913.38C910.55 346.89 911.87 356.88 923.57 354.41C927.1 353.66 930.72 348.94 932.59 348.95C932.85 348.95 937.12 350.94 937.27 351.15C938.31 352.64 934.7 355.62 933.61 356.48C927.75 361.16 919.3 362.6 912.26 359.83C901.44 355.59 905.06 341.88 907.09 332.86C908.97 324.48 912.53 318.05 921.36 315.25C937.61 310.11 946.98 322.91 941.65 338.06V338.08ZM935.13 333.01C939.16 314.69 915.05 318.06 914.11 333.01H935.13Z" fill="#757575"/>
<path d="M593.541 314.39C600.291 313.59 609.161 315.49 611.331 323C613.021 328.85 609.171 348.79 605.291 353.66C595.951 365.39 571.861 364.8 573.491 345.06C574.601 331.64 577.701 316.28 593.541 314.4V314.39ZM592.051 320.87C589.211 321.46 585.141 325.39 583.991 328.02C582.671 331.02 580.241 344.75 580.701 347.82C582.171 357.54 595.131 356.34 599.811 349.63C601.871 346.69 604.231 334.28 604.501 330.38C605.041 322.72 599.121 319.41 592.051 320.87Z" fill="#757575"/>
<path d="M703.631 318.06C704.601 318.98 706.151 321.49 706.471 322.82C708.021 329.26 704.631 349 700.271 354.19C691.671 364.43 668.731 364.48 668.641 347.99C668.621 343.56 671.341 328.4 673.291 324.54C678.251 314.71 695.451 310.3 703.631 318.06ZM678.041 352.32C683.051 357.62 691.831 354.46 695.331 348.72C697.581 345.03 699.701 333.45 699.591 329.02C699.321 317.62 684.071 318.26 679.671 327.29C678.331 330.04 675.731 342.7 675.691 345.77C675.671 347.72 676.691 350.91 678.031 352.32H678.041Z" fill="#757575"/>
<path d="M948.99 351.201C949.19 350.971 954.07 349.521 954.91 349.761C956.35 350.181 956.86 352.341 957.95 353.301C963.8 358.461 979.61 354.501 977.03 345.841C974.77 338.251 949.91 343.721 952.86 327.901C955.2 315.351 971.27 311.271 981.91 315.601C986.79 317.591 991.84 324.081 983.88 325.641C980.65 326.281 981.13 323.981 979.39 322.471C973.19 317.091 957.75 320.101 960.64 329.611C962.78 336.651 990.8 330.891 983.9 350.241C979.77 361.811 960.24 364.801 951.44 357.641C949.89 356.381 947.47 352.951 948.99 351.211V351.201Z" fill="#757575"/>
<path d="M632.121 315.62C632.371 315.87 631.931 319.71 632.121 320.69C635.241 320.15 637.091 316.75 640.071 315.96C645.951 314.42 654.561 315.7 657.631 321.63C661.961 329.99 654.861 349.94 653.911 359.49L647.331 359.81C646.151 358.62 652.351 333.28 651.711 328.27C650.371 317.75 634.091 319.89 630.871 331.42C628.451 340.11 628.161 350.28 625.971 359.12C625.011 360.49 620.781 359.58 619.051 359.82L626.371 315.71C627.391 315.68 631.901 315.43 632.101 315.63L632.121 315.62Z" fill="#757575"/>
<path d="M869.16 314.91C870.34 316.32 863.81 342.21 864.85 347.83C865.53 351.51 870.43 354.08 873.87 354.08C889.77 354.08 887.23 326.47 890.82 316.05L897.43 315.63L890.1 359.74L884.37 359.82L885.1 354.03C878.54 356.95 877.79 360.49 869.49 359.85C848.36 358.21 861.79 328.84 862.41 316.51C863.16 314.84 867.23 315.99 869.15 314.91H869.16Z" fill="#757575"/>
<path d="M563.159 351.211C564.319 353.201 559.269 356.751 557.829 357.661C546.869 364.631 530.059 362.151 530.619 346.451C530.799 341.231 533.909 326.331 536.839 322.201C541.869 315.091 552.389 312.641 560.509 315.121C563.369 315.991 571.269 321.181 567.149 324.251C559.849 329.681 560.509 321.661 554.869 320.751C549.659 319.911 544.729 322.201 542.069 326.711C540.369 329.601 537.899 342.221 537.849 345.731C537.739 353.181 544.519 356.481 551.089 353.831C553.839 352.721 556.849 348.331 559.629 349.231C559.919 349.321 563.049 351.031 563.159 351.201V351.211Z" fill="#757575"/>
<path d="M801.75 315.63L794.49 359.81H787.25L794.5 315.63H801.75Z" fill="#757575"/>
<path d="M995.289 212.05L994.57 217.84C1001.96 211.59 1010.94 208.42 1017.47 217.79C1020.05 217.32 1021.27 215.01 1023.52 213.82C1028.92 210.95 1037.76 210.97 1042.33 215.38C1050.69 223.42 1040.99 245.67 1040.92 256.2L1033.7 256.24L1038.81 226.2C1037.47 217.56 1030.29 215.44 1023.61 221.17C1016.93 226.9 1017.26 247.53 1014.82 256.2L1007.61 256.24L1012.62 226.25C1011.82 218.23 1004.6 215.34 998.25 220.44C990.62 226.56 991.17 246.94 988.76 256.23H981.52L988.78 212.06H995.289V212.05Z" fill="#757575"/>
<path d="M497.291 212.04C497.541 212.29 497.101 216.13 497.291 217.11C501.331 215.34 502.981 212.48 507.761 212.01C526.921 210.1 525.621 226.4 522.181 240.18C519.631 250.38 511.071 258.1 499.991 256.06C496.241 255.37 495.881 251.89 492.571 250.46C490.831 250.49 488.151 277.68 487.061 278.61C486.451 279.13 481.281 278.41 479.891 278.69L491.521 212.09C492.561 212.15 497.081 211.84 497.291 212.05V212.04ZM511.531 246.56C512.541 245.55 514.011 243.3 514.501 241.92C515.201 239.95 517.571 227.32 517.421 225.61C516.451 214.57 500.011 215.99 496.391 226C495.391 228.78 493.351 240.71 493.831 243.38C495.371 251.94 505.981 252.08 511.521 246.55L511.531 246.56Z" fill="#757575"/>
<path d="M911.929 191.77C911.599 198.36 910.44 196.73 906.09 197.88C896.23 200.48 894.059 206.77 893.809 216.4H902.509C902.789 216.68 902.01 221.86 901.71 222.11C900.54 223.11 893.199 220.54 892.169 223.81C888.899 236.68 888.56 251.76 884.9 264.35C882.35 273.12 874.999 279.24 865.809 280.04C863.749 280.22 860.04 280.88 860.77 277.93C862.09 272.63 864.96 274.35 868.46 273.27C871.4 272.36 875.879 268.93 877.179 266.05L885.109 223.33C884.999 222.24 880.94 222.34 880.78 222.17C880.46 221.84 881.289 216.69 881.559 216.47C882.189 215.95 885.299 217.09 886.239 215.71C886.739 214.99 886.979 210.01 887.499 208.28C890.739 197.43 900.329 190.22 911.929 191.77Z" fill="#757575"/>
<path d="M704.249 234.5C701.979 235.24 699.549 250.65 710.029 251.21C717.219 251.59 719.779 245.44 722.349 245.38C723.109 245.36 726.369 246.93 726.739 247.52C729.669 252.2 716.199 257.08 712.759 257.49C691.509 259.99 693.919 241 697.849 226.66C704.719 201.62 742.329 206.96 731.069 234.5H704.249ZM725.629 229.43C728.889 211.75 704.929 214 704.609 229.43H725.629Z" fill="#757575"/>
<path d="M869.16 234.501H840.89C838.39 242.781 839.45 252.781 850.5 250.981C854.59 250.321 857.93 245.461 860.09 245.401C860.86 245.381 864.12 246.951 864.48 247.521C865.66 249.361 861.86 252.631 860.41 253.651C851.63 259.811 834.64 259.651 832.51 246.851C831.67 241.801 835.14 224.101 838.1 219.771C844.48 210.421 861.15 206.141 868.31 216.871C872.26 222.791 870.31 228.101 869.16 234.501ZM842.34 229.431H862.27C864.28 229.431 864.51 218.541 857.75 217.291C849.71 215.801 841.72 220.811 842.33 229.431H842.34Z" fill="#757575"/>
<path d="M1092.43 234.501H1064.16C1060.85 242.591 1063.02 253.201 1073.78 250.991C1078.04 250.121 1083.47 241.85 1087 247.54C1089.03 250.81 1081.9 254.871 1079.37 255.861C1067.47 260.531 1054.73 256.56 1055.47 242.12C1056.25 226.8 1062.75 207.731 1081.74 210.781C1094.21 212.781 1095.07 224.34 1092.43 234.51V234.501ZM1085.91 229.43C1089.96 211.21 1065.67 214.01 1064.89 229.43H1085.91Z" fill="#757575"/>
<path d="M925.511 210.77C933.951 209.44 943.441 212.36 944.461 221.9C945.091 227.72 941.781 244.88 938.341 249.66C931.161 259.65 909.351 261.46 906.451 247.58C905.281 242 908.791 223.94 912.051 219.05C914.691 215.08 920.831 211.51 925.511 210.77ZM924.791 217.29C922.201 217.77 917.981 221.51 916.851 223.84C915.631 226.38 913.511 238.33 913.381 241.41C912.831 253.85 928.101 254.1 933.241 244.57C934.771 241.73 937.221 229.53 937.321 226.14C937.561 218.36 931.671 216.03 924.791 217.3V217.29Z" fill="#757575"/>
<path d="M566.61 213.8C567.93 214.7 570.03 218.29 570.34 219.82C571.45 225.27 568.2 244.27 565.02 248.95C556.92 260.87 532.2 261.46 532.09 244.29C532.07 240.91 534.22 229.23 535.18 225.66C538.77 212.23 555.14 206.01 566.61 213.81V213.8ZM542.46 249.48C547.84 254.03 557.26 249.87 559.92 243.85C561.28 240.77 563.64 227.23 563.27 223.99C562.16 214.22 547.62 215.1 543.28 223.6C541.85 226.4 539.33 239.59 539.34 242.85C539.34 244.76 541.06 248.3 542.47 249.49L542.46 249.48Z" fill="#757575"/>
<path d="M1112.22 219.5C1110.52 221.62 1110.26 225.29 1112.33 227.3C1117.92 232.73 1136.48 228.92 1135.76 241.89C1135.02 255.31 1119.25 259.8 1108.1 256.88C1104.79 256.01 1097.15 251.9 1099.81 247.66C1099.95 247.44 1104.27 245.51 1104.53 245.49C1106.27 245.33 1108.31 249.9 1111.11 250.96C1115.81 252.74 1124.61 251.94 1127.14 247.09C1133.75 234.43 1104.28 239.94 1103.28 228.35C1102.43 218.55 1111.37 211.4 1120.36 210.62C1125.45 210.18 1137.42 211.39 1138.71 217.65C1139.36 220.81 1134.06 222.96 1132.3 221.85C1131.62 221.42 1130.78 219.33 1129.36 218.25C1125.36 215.22 1115.49 215.42 1112.22 219.5Z" fill="#757575"/>
<path d="M739.53 247.65C739.68 247.41 744.44 245.4 744.75 245.46C745.8 245.66 747.53 249.38 749.78 250.57C754.96 253.32 762.88 252.26 766.23 247.17C772.76 237.26 752.48 237.17 747.19 234.32C740.32 230.63 742.58 221.86 746.66 216.74C753.2 208.52 774.82 207.22 778.45 218.82C771.95 226.24 771.19 218.84 766.65 217.05C760.61 214.67 746.96 217.75 750.65 225.78C753.52 232.02 773.41 228.98 774.87 239.26C777.15 255.31 754.76 262.23 743.11 255.07C741 253.77 737.99 250.12 739.54 247.64L739.53 247.65Z" fill="#757575"/>
<path d="M590.8 212.04C591.94 213.2 585.69 238.28 586.5 243.51C587.54 250.24 595.85 252.02 601.2 248.88C605.49 246.37 606.89 242.78 607.98 238.27C608.86 234.65 611.61 212.98 612.62 212.12C613.21 211.62 617.76 212.3 619.07 212.04L611.75 256.15L606.02 256.23L606.75 250.44C602.06 251.85 600.22 255.8 594.83 256.26C569.53 258.46 582.73 227.24 583.91 213.45C584.3 210.72 588.58 212.5 590.81 212.04H590.8Z" fill="#757575"/>
<path d="M690.839 193.21L680.689 256.23H673.439L684.099 194.09C684.949 192.21 688.849 193.6 690.849 193.2L690.839 193.21Z" fill="#757575"/>
<path d="M964.85 212.051L964.13 218.561C965.04 219.581 971.68 212.911 972.85 212.441C975.34 211.441 978.81 212.331 981.52 212.051C981.73 212.261 980.92 217.311 980.65 218.051C979.74 220.501 977.62 218.571 976.08 218.711C958.26 220.241 962.59 242.901 958.73 255.551C957.8 256.931 952.85 255.971 951.08 256.231C953.16 251.101 957.42 213.581 959.12 212.121C959.67 211.651 963.63 212.281 964.85 212.051Z" fill="#757575"/>
<path d="M639.369 212.05L638.659 218.57C644.629 214.94 647.309 210.37 655.329 212.05C655.669 212.39 654.979 218.84 654.529 219.22C653.719 219.9 650.549 218.74 649.269 218.82C643.069 219.21 639.019 223.57 637.419 229.28C636.329 233.18 633.799 255.24 632.819 256.19C632.409 256.58 626.889 255.99 625.609 256.22L632.989 213.26C633.789 211.13 637.459 212.28 639.369 212.04V212.05Z" fill="#757575"/>
<path d="M814.8 212.04V218.56C820.62 214.75 823.56 210.44 831.47 212.04L830.71 219.25C808.59 215.24 812.69 242.1 808.98 256.22H801.74L809 212.05H814.8V212.04Z" fill="#757575"/>
<path d="M871.331 193.94C872.141 194.63 869.341 197.06 868.781 197.54C866.971 199.09 856.45 206.88 854.97 206.98C854.08 207.04 852.671 206.72 852.491 205.88C852.331 205.15 860.821 195.92 861.921 194.31L871.331 193.94Z" fill="#757575"/>
<path d="M205.18 410.52C195.37 431.74 174.42 448.36 151.67 453.77C88.7797 468.73 34.0797 411.18 52.7397 349.12C53.5997 346.26 57.6997 337.6 57.1797 335.71C-18.3303 245.02 0.619713 106.05 96.9197 38.3403C213.92 -43.9197 377.32 14.2803 414.45 151.77C449.25 280.65 355.28 405.61 222.95 411.27C217.3 411.51 210.62 411.6 205.18 410.51V410.52ZM123.61 157H160.22L124.68 333.34C125.09 335.38 126.87 335.71 128.68 335.92C139.78 337.22 161.31 336.57 172.94 335.94C229.67 332.86 269.8 303.12 299.26 256.46C325.27 215.28 339.22 166.94 338.43 118.01C337.9 117.9 337 117.16 336.73 117.16H286.71C282.73 117.16 284.42 128.15 284.16 131.27C280.13 180.5 261.29 230.8 223.29 263.85C213.78 272.12 201.34 280.13 188.49 280.86L221.78 122.48C222.17 119.03 219.78 116.96 216.43 117.13C189.22 118.94 159.14 114.83 132.28 117.13C127.18 117.57 127.85 119.27 126.64 123.81C124.97 130.09 121.57 144.89 121.12 150.94C120.99 152.75 121.71 156.45 123.61 157Z" fill="#991118"/>
</g>
<defs>
<clipPath id="clip0_716_141">
<rect width="1138.26" height="478.91" fill="white" transform="translate(0.5 0.5)"/>
</clipPath>
</defs>
</svg>
